<svg id="00b2e947-5dea-41a3-a074-06ca6f121d27" data-name="Layer 1" xmlns="http://www.w3.org/2000/svg" viewBox="0 0 477.47 137.41"><title>Hello World</title><rect x="77.43" y="65.03" width="236.44" height="66.86" fill="#464fa1"/><rect x="77.43" y="40.9" width="163.37" height="66.63" fill="#2e388d"/><rect x="218.98" y="62.27" width="5.28" height="30.1" fill="#010101"/><rect x="207.72" y="62.27" width="5.28" height="30.1" fill="#010101"/><rect y="32.86" width="19.3" height="82.95" fill="#2e388d"/><rect y="66.63" width="82.95" height="19.3" fill="#2e388d"/><rect x="201.51" y="40.67" width="112.36" height="66.86" fill="#2e388d"/><rect x="139.93" y="51.47" width="27.11" height="11.03" fill="#6571ad"/><rect x="100.18" y="51.47" width="27.11" height="11.03" fill="#6571ad"/><rect x="139.93" y="79.73" width="27.11" height="11.03" fill="#6571ad"/><rect x="100.18" y="79.73" width="27.11" height="11.03" fill="#6571ad"/><rect x="216.91" y="51.47" width="27.11" height="11.03" fill="#6571ad"/><rect x="176.93" y="51.47" width="27.11" height="11.03" fill="#6571ad"/><rect x="216.91" y="79.73" width="27.11" height="11.03" fill="#6571ad"/><rect x="176.93" y="79.73" width="27.11" height="11.03" fill="#6571ad"/><rect x="157.4" y="98.34" width="24.13" height="39.06" fill="#2e388d"/><rect x="157.4" width="24.13" height="41.59" fill="#2e388d"/><rect x="313.87" y="86.17" width="163.6" height="9.65" fill="#ecd066"/><rect x="313.87" y="81.8" width="9.65" height="17.92" fill="#ecd066"/><rect x="323.3" y="84.56" width="9.65" height="12.87" fill="#ecd066"/><rect x="332.95" y="86.17" width="9.65" height="9.65" fill="#ecd066"/></svg>