<svg id="8ae4a8f7-576f-4759-9a27-6e23aec15eee" data-name="Layer 1" xmlns="http://www.w3.org/2000/svg" viewBox="0 0 284.4 325.38"><title>Hello World</title><rect x="45.2" y="130.83" width="129.63" height="160.67" transform="translate(220.02 422.32) rotate(-180)" fill="#27aae1"/><rect x="137.7" y="280.84" width="11.49" height="33.68" transform="translate(286.9 595.35) rotate(-180)" fill="#27aae1"/><rect x="137.7" y="314.52" width="28.28" height="7.33" transform="translate(303.69 636.36) rotate(-180)" fill="#27aae1"/><rect x="83.79" y="284.37" width="11.49" height="33.68" transform="translate(179.07 602.42) rotate(-180)" fill="#27aae1"/><rect x="83.79" y="318.05" width="28.28" height="7.33" transform="translate(195.86 643.43) rotate(-180)" fill="#27aae1"/><rect x="45.24" y="283.15" width="9.68" height="33.68" fill="#27aae1"/><rect y="316.83" width="54.93" height="7.33" fill="#27aae1"/><rect x="178.75" y="98.29" width="105.65" height="8.44" transform="translate(463.16 205.02) rotate(-180)" fill="#f7a5aa"/><rect x="260.1" y="82.43" width="40.17" height="8.44" transform="translate(366.83 -193.53) rotate(90)" fill="#f7a5aa"/><rect x="137.69" y="93.07" width="105.65" height="18.71" transform="translate(381.04 204.86) rotate(-180)" fill="#27aae1"/><rect x="227.84" y="92.17" width="29.02" height="18.71" transform="translate(343.88 -140.83) rotate(90)" fill="#27aae1"/><rect x="142.95" y="12.25" width="43.22" height="18.71" transform="translate(186.17 -142.95) rotate(90)" fill="#27aae1"/><rect x="104.95" y="12.25" width="43.22" height="18.71" transform="translate(148.17 -104.95) rotate(90)" fill="#27aae1"/><rect x="102.42" y="193.98" width="43.22" height="18.71" transform="translate(327.36 79.3) rotate(90)" fill="#1b75bc"/><rect x="117.2" y="36.95" width="93.88" height="93.88" transform="translate(328.28 167.77) rotate(-180)" fill="#27aae1"/><rect x="174.86" y="172.37" width="43.22" height="18.71" fill="#1b75bc"/><rect x="158.63" y="68.85" width="15.04" height="15.04" transform="translate(332.3 152.74) rotate(-180)" fill="#fbb040"/></svg>