<svg id="ed0b8616-aa60-4a7d-a7f6-37741f346ff4" data-name="Layer 1" xmlns="http://www.w3.org/2000/svg" viewBox="0 0 330.44 272.64"><title>Hello World</title><rect x="23.3" y="100.46" width="90.48" height="90.48" fill="#8b2b1e"/><rect x="35.27" y="70.88" width="67.46" height="74.82" fill="#8b2b1e"/><rect x="46.22" y="41.26" width="46.85" height="74.82" fill="#8b2b1e"/><rect x="57.46" y="15.09" width="24.36" height="74.82" fill="#8b2b1e"/><rect x="113.78" y="100.46" width="90.48" height="90.48" fill="#8b2b1e"/><rect x="125.74" y="70.88" width="67.46" height="74.82" fill="#8b2b1e"/><rect x="136.7" y="41.26" width="46.85" height="74.82" fill="#8b2b1e"/><rect x="147.94" y="15.09" width="24.36" height="74.82" fill="#8b2b1e"/><rect x="222.71" y="26.33" width="46.9" height="164.61" fill="#8b2b1e"/><rect x="103.49" y="144.04" width="164.61" height="46.9" fill="#8b2b1e"/><rect x="222.71" y="26.33" width="107.72" height="52.35" fill="#8b2b1e"/><rect x="222.71" width="23.6" height="45.69" fill="#8b2b1e"/><rect x="155.53" y="179.14" width="23.6" height="90.48" fill="#8b2b1e"/><rect x="113.78" y="179.14" width="23.6" height="90.48" fill="#8b2b1e"/><rect x="71.41" y="179.14" width="23.6" height="90.48" fill="#8b2b1e"/><rect x="36.01" y="182.16" width="23.6" height="90.48" fill="#8b2b1e"/><rect y="130.72" width="23.6" height="82.21" fill="#8b2b1e"/></svg>