<svg id="6a37e485-9f40-4c64-a74a-91b66270d741" data-name="Layer 1" xmlns="http://www.w3.org/2000/svg" viewBox="0 0 317.55 155.56"><title>Hello World</title><rect x="78.35" y="25.51" width="125.46" height="94.44" fill="#f69322"/><rect x="162.22" y="107.08" width="16.54" height="47.1" fill="#f69322"/><rect x="133.04" y="107.08" width="16.54" height="47.1" fill="#f69322"/><rect x="103.17" y="107.08" width="16.54" height="47.1" fill="#f69322"/><rect x="78.35" y="108.45" width="16.54" height="47.1" fill="#f69322"/><rect x="53.77" y="25.51" width="24.59" height="14.71" fill="#f69322"/><rect x="47.56" y="25.51" width="12.18" height="82.26" fill="#f69322"/><rect y="95.59" width="59.97" height="12.18" fill="#f69322"/><rect x="185.2" width="132.35" height="145.45" fill="#f15b28"/><rect x="196" y="25.73" width="112.36" height="89.84" fill="#f69322"/><rect x="245.86" y="79.96" width="24.59" height="10.11" fill="#e9262a"/><rect x="284" y="15.85" width="24.59" height="10.11" fill="#f69322"/><rect x="196" y="15.85" width="24.59" height="10.11" fill="#f69322"/><rect x="281.93" y="104.09" width="4.6" height="5.06" fill="#e9262a"/><rect x="230.92" y="96.74" width="4.6" height="5.06" fill="#e9262a"/><rect x="230.92" y="104.09" width="4.6" height="5.06" fill="#e9262a"/><rect x="281.93" y="96.74" width="4.6" height="5.06" fill="#e9262a"/></svg>