<svg id="1ddaecf8-adf3-4e2d-9ac5-9fbfaeb38845" data-name="Layer 1" xmlns="http://www.w3.org/2000/svg" viewBox="0 0 1723.28 629.89"><title>Hello World</title><rect width="1723.28" height="209.96" fill="#e8f6fd"/><rect y="209.96" width="1723.28" height="209.96" fill="#d9f1fd"/><rect y="419.93" width="1723.28" height="209.96" fill="#c9ebfc"/><rect y="503.27" width="1723.28" height="126.62" fill="#8eb84a"/><rect x="127" y="95.88" width="107.56" height="107.56" fill="#f384a1"/><rect x="1402.01" y="214.97" width="17.3" height="16.76" fill="#009e91"/><rect x="1383.95" y="231.73" width="53.42" height="16.76" fill="#009e91"/><rect x="1371.71" y="248.49" width="77.89" height="16.76" fill="#009e91"/><rect x="1356.93" y="265.24" width="107.47" height="16.76" fill="#009e91"/><rect x="1398.73" y="339.71" width="23.87" height="23.87" fill="#009e91"/><rect x="1373.81" y="363.58" width="73.71" height="23.87" fill="#009e91"/><rect x="1356.93" y="387.45" width="107.47" height="23.87" fill="#009e91"/><rect x="1336.52" y="411.31" width="148.27" height="23.87" fill="#009e91"/><rect x="1400.14" y="269.53" width="21.04" height="21.04" fill="#009e91"/><rect x="1378.17" y="290.57" width="64.98" height="21.04" fill="#009e91"/><rect x="1363.29" y="311.61" width="94.74" height="21.04" fill="#009e91"/><rect x="1345.3" y="332.65" width="130.72" height="21.04" fill="#009e91"/><rect x="1386.02" y="435.18" width="49.28" height="97.83" fill="#c58979"/><rect x="1048.67" y="214.97" width="17.3" height="16.76" fill="#009e91"/><rect x="1030.61" y="231.73" width="53.42" height="16.76" fill="#009e91"/><rect x="1018.37" y="248.49" width="77.89" height="16.76" fill="#009e91"/><rect x="1003.59" y="265.24" width="107.47" height="16.76" fill="#009e91"/><rect x="1045.39" y="339.71" width="23.87" height="23.87" fill="#009e91"/><rect x="1020.47" y="363.58" width="73.71" height="23.87" fill="#009e91"/><rect x="1003.59" y="387.45" width="107.47" height="23.87" fill="#009e91"/><rect x="983.18" y="411.31" width="148.27" height="23.87" fill="#009e91"/><rect x="1046.8" y="269.53" width="21.04" height="21.04" fill="#009e91"/><rect x="1024.83" y="290.57" width="64.98" height="21.04" fill="#009e91"/><rect x="1009.95" y="311.61" width="94.74" height="21.04" fill="#009e91"/><rect x="991.96" y="332.65" width="130.72" height="21.04" fill="#009e91"/><rect x="1032.68" y="435.18" width="49.28" height="97.83" fill="#c58979"/><rect x="424.31" y="149.66" width="186.02" height="34" fill="#fffef9"/><rect x="740.88" y="92.58" width="186.02" height="34" fill="#fffef9"/><rect x="578.86" y="284.09" width="186.02" height="34" fill="#fffef9"/><rect x="1233.48" y="132.66" width="186.02" height="34" fill="#fffef9"/><rect x="1449.61" y="75.58" width="186.02" height="34" fill="#fffef9"/><rect x="28.41" y="525.61" width="12" height="40.97" fill="#98bd5c"/><rect x="63.35" y="525.61" width="12" height="40.97" fill="#98bd5c"/><rect x="98.29" y="525.61" width="12" height="40.97" fill="#98bd5c"/><rect x="133.23" y="525.61" width="12" height="40.97" fill="#98bd5c"/><rect x="168.17" y="525.61" width="12" height="40.97" fill="#98bd5c"/><rect x="203.11" y="525.61" width="12" height="40.97" fill="#98bd5c"/><rect x="238.05" y="525.61" width="12" height="40.97" fill="#98bd5c"/><rect x="272.99" y="525.61" width="12" height="40.97" fill="#98bd5c"/><rect x="307.92" y="525.61" width="12" height="40.97" fill="#98bd5c"/><rect x="342.86" y="525.61" width="12" height="40.97" fill="#98bd5c"/><rect x="377.8" y="525.61" width="12" height="40.97" fill="#98bd5c"/><rect x="412.74" y="525.61" width="12" height="40.97" fill="#98bd5c"/><rect x="447.68" y="525.61" width="12" height="40.97" fill="#98bd5c"/><rect x="482.62" y="525.61" width="12" height="40.97" fill="#98bd5c"/><rect x="517.56" y="525.61" width="12" height="40.97" fill="#98bd5c"/><rect x="552.5" y="525.61" width="12" height="40.97" fill="#98bd5c"/><rect x="587.44" y="525.61" width="12" height="40.97" fill="#98bd5c"/><rect x="622.38" y="525.61" width="12" height="40.97" fill="#98bd5c"/><rect x="657.32" y="525.61" width="12" height="40.97" fill="#98bd5c"/><rect x="692.26" y="525.61" width="12" height="40.97" fill="#98bd5c"/><rect x="727.19" y="525.61" width="12" height="40.97" fill="#98bd5c"/><rect x="762.13" y="525.61" width="12" height="40.97" fill="#98bd5c"/><rect x="797.07" y="525.61" width="12" height="40.97" fill="#98bd5c"/><rect x="832.01" y="525.61" width="12" height="40.97" fill="#98bd5c"/><rect x="866.95" y="525.61" width="12" height="40.97" fill="#98bd5c"/><rect x="901.89" y="525.61" width="12" height="40.97" fill="#98bd5c"/><rect x="936.83" y="525.61" width="12" height="40.97" fill="#98bd5c"/><rect x="971.77" y="525.61" width="12" height="40.97" fill="#98bd5c"/><rect x="1006.71" y="525.61" width="12" height="40.97" fill="#98bd5c"/><rect x="1041.65" y="525.61" width="12" height="40.97" fill="#98bd5c"/><rect x="1076.59" y="525.61" width="12" height="40.97" fill="#98bd5c"/><rect x="1111.52" y="525.61" width="12" height="40.97" fill="#98bd5c"/><rect x="1146.46" y="525.61" width="12" height="40.97" fill="#98bd5c"/><rect x="1181.4" y="525.61" width="12" height="40.97" fill="#98bd5c"/><rect x="1216.34" y="525.61" width="12" height="40.97" fill="#98bd5c"/><rect x="1251.28" y="525.61" width="12" height="40.97" fill="#98bd5c"/><rect x="1286.22" y="525.61" width="12" height="40.97" fill="#98bd5c"/><rect x="1321.16" y="525.61" width="12" height="40.97" fill="#98bd5c"/><rect x="1356.1" y="525.61" width="12" height="40.97" fill="#98bd5c"/><rect x="1391.04" y="525.61" width="12" height="40.97" fill="#98bd5c"/><rect x="1425.98" y="525.61" width="12" height="40.97" fill="#98bd5c"/><rect x="1460.92" y="525.61" width="12" height="40.97" fill="#98bd5c"/><rect x="1495.86" y="525.61" width="12" height="40.97" fill="#98bd5c"/><rect x="1530.79" y="525.61" width="12" height="40.97" fill="#98bd5c"/><rect x="1565.73" y="525.61" width="12" height="40.97" fill="#98bd5c"/><rect x="1600.67" y="525.61" width="12" height="40.97" fill="#98bd5c"/><rect x="1635.61" y="525.61" width="12" height="40.97" fill="#98bd5c"/><rect x="1670.55" y="525.61" width="12" height="40.97" fill="#98bd5c"/><rect x="331.08" y="326.26" width="166.72" height="121.91" fill="#ac5b26"/><rect x="498.13" y="326.59" width="181.55" height="145.96" fill="#ac5b26"/><rect x="463.53" y="377.99" width="39.54" height="32.29" fill="#f2c9a3"/><rect x="519.54" y="344.05" width="138.05" height="108.4" fill="#f2c9a3"/><rect x="679.34" y="377.99" width="38.22" height="32.29" fill="#f2c9a3"/><rect x="544.91" y="372.72" width="11.2" height="12.52" fill="#221f1f"/><rect x="620.69" y="372.72" width="11.2" height="12.52" fill="#221f1f"/><rect x="445.74" y="326.26" width="7.91" height="67.54" fill="#934e1e"/><rect x="427.94" y="326.26" width="7.91" height="67.54" fill="#934e1e"/><rect x="408.51" y="326.26" width="7.91" height="67.54" fill="#934e1e"/><rect x="390.71" y="326.26" width="7.91" height="67.54" fill="#934e1e"/><rect x="372.59" y="326.26" width="7.91" height="67.54" fill="#934e1e"/><rect x="354.8" y="326.26" width="7.91" height="67.54" fill="#934e1e"/><rect x="337.34" y="326.26" width="7.91" height="67.54" fill="#934e1e"/><rect x="478.68" y="439.6" width="19.44" height="72.49" fill="#ac5b26"/><rect x="478.68" y="512.09" width="19.44" height="15.49" fill="#f2c9a3"/><rect x="431.57" y="512.09" width="19.44" height="15.49" fill="#f2c9a3"/><rect x="381.49" y="512.09" width="19.44" height="15.49" fill="#f2c9a3"/><rect x="331.08" y="512.09" width="19.44" height="15.49" fill="#f2c9a3"/><rect x="431.57" y="439.6" width="19.44" height="72.49" fill="#ac5b26"/><rect x="381.49" y="439.6" width="19.44" height="72.49" fill="#ac5b26"/><rect x="331.08" y="439.6" width="19.44" height="72.49" fill="#ac5b26"/><rect x="268.15" y="326.26" width="65.9" height="21.42" fill="#ac5b26"/><rect x="221.36" y="391.83" width="65.9" height="21.42" fill="#ac5b26"/><rect x="268.15" y="340.76" width="19.44" height="72.49" fill="#ac5b26"/><rect x="848.55" y="340.94" width="30.19" height="11.46" fill="#009e91"/><rect x="817.03" y="352.4" width="93.23" height="11.46" fill="#009e91"/><rect x="795.68" y="363.86" width="135.94" height="11.46" fill="#009e91"/><rect x="769.87" y="375.32" width="187.55" height="11.46" fill="#009e91"/><rect x="846.79" y="386.78" width="33.7" height="171.67" fill="#c58979"/><rect x="1212.78" y="310.01" width="30.19" height="11.46" fill="#009e91"/><rect x="1181.26" y="321.47" width="93.23" height="11.46" fill="#009e91"/><rect x="1159.9" y="332.93" width="135.94" height="11.46" fill="#009e91"/><rect x="1134.1" y="344.39" width="187.55" height="11.46" fill="#009e91"/><rect x="1211.02" y="355.84" width="33.7" height="171.67" fill="#c58979"/></svg>