<svg id="8cf7bb3a-03ee-4814-9b6c-8dd16d6ba7b9" data-name="Layer 1" xmlns="http://www.w3.org/2000/svg" viewBox="0 0 340.76 182.21"><title>Hello World</title><rect x="38.37" width="174.17" height="130.97" fill="#1471b9"/><rect x="154.64" y="112.82" width="22.75" height="65.26" fill="#1471b9"/><rect x="114.2" y="112.82" width="22.75" height="65.26" fill="#1471b9"/><rect x="72.84" y="112.82" width="22.75" height="65.26" fill="#1471b9"/><rect x="38.37" y="114.89" width="22.75" height="65.26" fill="#1471b9"/><rect x="8.73" y="21.83" width="34.01" height="20.45" fill="#1471b9"/><rect y="21.83" width="17" height="113.97" fill="#1471b9"/><rect x="192.78" y="2.99" width="109.6" height="120.63" fill="#0f7dc2"/><rect x="197.84" y="61.81" width="7.81" height="19.53" fill="#0f7dc2"/><rect x="284" y="12.64" width="56.76" height="90.76" fill="#0f7dc2"/><rect x="155.79" y="16.08" width="56.76" height="90.76" fill="#0f7dc2"/><rect x="234.83" y="103.4" width="28.49" height="74.45" fill="#0f7dc2"/><rect x="234.37" y="161.76" width="53.77" height="20.45" fill="#0f7dc2"/><rect x="234.83" y="123.62" width="28.49" height="15.85" fill="#1471b9"/><rect x="234.83" y="149.35" width="28.49" height="15.85" fill="#1471b9"/><rect x="192.89" y="123.56" width="10.27" height="28.17" transform="translate(1.08 -1.54) rotate(0.45)" fill="#fde3d8"/><rect x="201.77" y="132.57" width="10.27" height="28.17" transform="translate(355.17 -59.1) rotate(90.45)" fill="#fde3d8"/><rect x="291.97" y="123.49" width="10.27" height="28.17" transform="translate(1.08 -2.32) rotate(0.45)" fill="#fde3d8"/><rect x="300.85" y="132.5" width="10.27" height="28.17" transform="translate(454.96 -158.25) rotate(90.45)" fill="#fde3d8"/></svg>