<svg id="b9d9a416-b4c5-4a14-b242-c67f16d9f8c0" data-name="Layer 1" xmlns="http://www.w3.org/2000/svg" viewBox="0 0 308.82 147.75"><title>Hello World</title><rect x="261.71" y="22.06" width="28.72" height="9.42" fill="#046938"/><rect x="54" width="161.99" height="107.99" fill="#38b34a"/><rect x="215.99" y="54" width="92.83" height="54" fill="#38b34a"/><rect x="222.19" y="1.15" width="54" height="92.83" fill="#38b34a"/><rect x="55.84" y="93.75" width="29.18" height="54" fill="#38b34a"/><rect x="97.2" y="93.75" width="29.18" height="54" fill="#38b34a"/><rect x="138.78" y="93.75" width="29.18" height="54" fill="#38b34a"/><rect x="180.14" y="93.75" width="29.18" height="54" fill="#38b34a"/><rect y="90.07" width="54" height="17.92" fill="#38b34a"/><rect x="261.71" y="6.2" width="28.72" height="9.42" fill="#046938"/><rect x="298.94" y="25.28" width="9.42" height="28.72" fill="#046938"/><rect x="75.6" y="11.72" width="12.64" height="12.64" fill="#046938"/><rect x="107.99" y="11.72" width="12.64" height="12.64" fill="#046938"/><rect x="140.16" y="11.72" width="12.64" height="12.64" fill="#046938"/><rect x="172.56" y="11.72" width="12.64" height="12.64" fill="#046938"/><rect x="91.68" y="34.93" width="12.64" height="12.64" fill="#046938"/><rect x="124.08" y="34.93" width="12.64" height="12.64" fill="#046938"/><rect x="156.48" y="34.93" width="12.64" height="12.64" fill="#046938"/><rect x="188.65" y="34.93" width="12.64" height="12.64" fill="#046938"/><rect x="73.3" y="56.75" width="12.64" height="12.64" fill="#046938"/><rect x="105.47" y="56.75" width="12.64" height="12.64" fill="#046938"/><rect x="137.87" y="56.75" width="12.64" height="12.64" fill="#046938"/><rect x="170.03" y="56.75" width="12.64" height="12.64" fill="#046938"/></svg>