<svg id="de9bd9e6-3592-43b5-8bb7-2433deaaa40d" data-name="Layer 1" xmlns="http://www.w3.org/2000/svg" viewBox="0 0 1723.28 634.16"><title>Hello World</title><rect width="1723.28" height="108.2" fill="#a388bf"/><rect y="105.19" width="1723.28" height="108.2" fill="#d9f1fd"/><rect y="210.38" width="1723.28" height="108.2" fill="#8fcc90"/><rect y="315.57" width="1723.28" height="108.2" fill="#f5f2a8"/><rect y="420.77" width="1723.28" height="108.2" fill="#f5896b"/><rect y="525.96" width="1723.28" height="108.2" fill="#f04b4b"/><rect x="118.56" y="127.7" width="186.02" height="34" fill="#fffef9"/><rect x="653.13" y="87.63" width="186.02" height="34" fill="#fffef9"/><rect x="491.11" y="279.13" width="186.02" height="34" fill="#fffef9"/><rect x="1039.74" y="199.7" width="186.02" height="34" fill="#fffef9"/><rect x="1361.86" y="70.63" width="186.02" height="34" fill="#fffef9"/><rect x="231.13" y="458.64" width="186.02" height="34" fill="#fffef9"/><rect x="1039.74" y="475.64" width="186.02" height="34" fill="#fffef9"/><rect x="1361.86" y="346.56" width="186.02" height="34" fill="#fffef9"/><rect x="666.22" y="342.4" width="208.52" height="101.71" fill="#f8f8f9"/><rect x="822.01" y="259.06" width="52.73" height="142.87" fill="#f8f8f9"/><rect x="822.01" y="259.06" width="121.1" height="58.85" fill="#f8f8f9"/><rect x="796.5" y="259.06" width="25.51" height="15.31" fill="#91b9dc"/><rect x="796.5" y="280.83" width="25.51" height="15.31" fill="#7cccbf"/><rect x="796.5" y="300.9" width="25.51" height="15.31" fill="#f7a8b4"/><rect x="822.01" y="229.47" width="26.53" height="51.37" fill="#f8f8f9"/><rect x="848.54" y="430.84" width="26.53" height="101.71" fill="#f8f8f9"/><rect x="792.42" y="430.84" width="26.53" height="101.71" fill="#f8f8f9"/><rect x="736.29" y="430.84" width="26.53" height="101.71" fill="#f8f8f9"/><rect x="680.16" y="434.25" width="26.53" height="101.71" fill="#f8f8f9"/><rect x="639.68" y="342.4" width="26.53" height="127.9" fill="#908ec0"/><rect x="886.12" y="183.19" width="12.53" height="75.87" fill="#ffd54c"/></svg>