<svg id="b8d68fef-6880-4fb4-956c-1187495b276a" data-name="Layer 1" xmlns="http://www.w3.org/2000/svg" viewBox="0 0 405.78 153.03"><title>Hello World</title><rect x="90.3" y="5.06" width="161.99" height="107.99" fill="#00a092"/><rect x="252.29" y="80.42" width="103.4" height="32.63" fill="#00a092"/><rect x="346.04" y="9.65" width="32.63" height="103.4" fill="#00a092"/><rect x="346.27" width="59.51" height="32.63" fill="#00a092"/><rect x="92.14" y="99.03" width="29.18" height="54" fill="#00a092"/><rect x="133.5" y="99.03" width="29.18" height="54" fill="#00a092"/><rect x="175.09" y="99.03" width="29.18" height="54" fill="#00a092"/><rect x="216.45" y="99.03" width="29.18" height="54" fill="#00a092"/><rect x="36.3" y="95.36" width="54" height="17.92" fill="#00a092"/><rect x="36.07" y="59.05" width="17.92" height="54" fill="#00a092"/><rect y="59.28" width="54" height="17.92" fill="#00a092"/><rect x="111.44" y="19.76" width="12.64" height="12.64" fill="#027469"/><rect x="143.61" y="19.76" width="12.64" height="12.64" fill="#027469"/><rect x="176.01" y="19.76" width="12.64" height="12.64" fill="#027469"/><rect x="208.18" y="19.76" width="12.64" height="12.64" fill="#027469"/><rect x="127.53" y="42.74" width="12.64" height="12.64" fill="#027469"/><rect x="159.69" y="42.74" width="12.64" height="12.64" fill="#027469"/><rect x="192.09" y="42.74" width="12.64" height="12.64" fill="#027469"/><rect x="224.49" y="42.74" width="12.64" height="12.64" fill="#027469"/><rect x="108.91" y="64.57" width="12.64" height="12.64" fill="#027469"/><rect x="141.31" y="64.57" width="12.64" height="12.64" fill="#027469"/><rect x="173.48" y="64.57" width="12.64" height="12.64" fill="#027469"/><rect x="205.88" y="64.57" width="12.64" height="12.64" fill="#027469"/></svg>