<svg id="3fbb3fe7-363b-4a5d-99c2-5f698660de86" data-name="Layer 1" xmlns="http://www.w3.org/2000/svg" viewBox="0 0 295.49 168.89"><title>Hello World</title><rect x="61.35" y="0.23" width="169.8" height="132.81" fill="#1d76bb"/><rect x="231.15" y="53.77" width="64.34" height="37.91" fill="#1d76bb"/><rect x="231.15" width="64.34" height="37.91" fill="#1d76bb"/><rect x="174.86" y="132.81" width="19.53" height="36.07" fill="#1d76bb"/><rect x="202.66" y="132.81" width="19.53" height="36.07" fill="#1d76bb"/><rect x="0.23" y="45.96" width="79.73" height="17.92" fill="#1d76bb"/><rect y="23.9" width="17.92" height="67.32" fill="#1d76bb"/><rect x="17.92" y="42.51" width="17.92" height="30.56" fill="#1d76bb"/><rect x="207.03" y="108.22" width="10.34" height="10.34" fill="#2a3b8f"/><rect x="207.26" y="81.57" width="10.34" height="10.34" fill="#2a3b8f"/><rect x="207.03" y="55.15" width="10.34" height="10.34" fill="#2a3b8f"/><rect x="207.03" y="28.49" width="10.34" height="10.34" fill="#2a3b8f"/><rect x="187.96" y="95.13" width="10.34" height="10.34" fill="#2a3b8f"/><rect x="188.19" y="68.47" width="10.34" height="10.34" fill="#2a3b8f"/><rect x="188.19" y="42.05" width="10.34" height="10.34" fill="#2a3b8f"/><rect x="188.19" y="15.4" width="10.34" height="10.34" fill="#2a3b8f"/><rect x="170.26" y="110.29" width="10.34" height="10.34" fill="#2a3b8f"/><rect x="170.03" y="83.64" width="10.34" height="10.34" fill="#2a3b8f"/><rect x="170.26" y="57.21" width="10.34" height="10.34" fill="#2a3b8f"/><rect x="170.03" y="30.56" width="10.34" height="10.34" fill="#2a3b8f"/></svg>