<svg id="fee43d89-418f-47c0-9a7f-cc53796f0ea9" data-name="Layer 1" xmlns="http://www.w3.org/2000/svg" viewBox="0 0 405.78 162.22"><title>Hello World</title><rect x="90.3" y="14.25" width="161.99" height="107.99" fill="#00a092"/><rect x="252.29" y="89.61" width="103.4" height="32.63" fill="#00a092"/><rect x="346.04" y="18.84" width="32.63" height="103.4" fill="#00a092"/><rect x="346.27" y="9.19" width="59.51" height="32.63" fill="#00a092"/><rect x="92.14" y="108.22" width="29.18" height="54" fill="#00a092"/><rect x="133.5" y="108.22" width="29.18" height="54" fill="#00a092"/><rect x="175.09" y="108.22" width="29.18" height="54" fill="#00a092"/><rect x="216.45" y="108.22" width="29.18" height="54" fill="#00a092"/><rect x="36.3" y="104.32" width="54" height="17.92" fill="#00a092"/><rect x="36.07" y="68.24" width="17.92" height="54" fill="#00a092"/><rect y="68.24" width="54" height="17.92" fill="#00a092"/><rect x="336.85" y="14.71" width="9.19" height="5.06" fill="#d0d2d3"/><rect x="336.85" y="22.98" width="9.19" height="5.06" fill="#d0d2d3"/><rect x="336.85" y="31.02" width="9.19" height="5.06" fill="#d0d2d3"/><rect x="336.85" y="39.29" width="9.19" height="5.06" fill="#d0d2d3"/><rect x="336.85" y="47.56" width="9.19" height="5.06" fill="#d0d2d3"/><rect x="336.85" y="55.61" width="9.19" height="5.06" fill="#d0d2d3"/><rect x="336.85" y="63.88" width="9.19" height="5.06" fill="#d0d2d3"/><rect x="336.85" y="71.92" width="9.19" height="5.06" fill="#d0d2d3"/><rect x="336.85" y="80.19" width="9.19" height="5.06" fill="#d0d2d3"/><rect x="244.25" y="5.28" width="5.05" height="9.19" fill="#d0d2d3"/><rect x="235.98" y="5.28" width="5.05" height="9.19" fill="#d0d2d3"/><rect x="227.71" y="5.28" width="5.05" height="9.19" fill="#d0d2d3"/><rect x="219.67" y="5.28" width="5.05" height="9.19" fill="#d0d2d3"/><rect x="211.39" y="5.28" width="5.05" height="9.19" fill="#d0d2d3"/><rect x="203.35" y="5.28" width="5.05" height="9.19" fill="#d0d2d3"/><rect x="194.85" y="5.28" width="5.05" height="9.19" fill="#d0d2d3"/><rect x="186.81" y="5.28" width="5.05" height="9.19" fill="#d0d2d3"/><rect x="178.77" y="5.28" width="5.05" height="9.19" fill="#d0d2d3"/><rect x="170.49" y="5.28" width="5.05" height="9.19" fill="#d0d2d3"/><rect x="162.45" y="5.28" width="5.05" height="9.19" fill="#d0d2d3"/><rect x="154.18" y="5.28" width="5.05" height="9.19" fill="#d0d2d3"/><rect x="145.91" y="5.28" width="5.05" height="9.19" fill="#d0d2d3"/><rect x="137.87" y="5.28" width="5.05" height="9.19" fill="#d0d2d3"/><rect x="129.59" y="5.28" width="5.05" height="9.19" fill="#d0d2d3"/><rect x="121.55" y="5.28" width="5.05" height="9.19" fill="#d0d2d3"/><rect x="113.28" y="5.28" width="5.05" height="9.19" fill="#d0d2d3"/><rect x="105.24" y="5.28" width="5.05" height="9.19" fill="#d0d2d3"/><rect x="96.97" y="5.28" width="5.05" height="9.19" fill="#d0d2d3"/><rect x="306.29" y="80.42" width="5.05" height="9.19" fill="#d0d2d3"/><rect x="298.02" y="80.42" width="5.05" height="9.19" fill="#d0d2d3"/><rect x="289.98" y="80.42" width="5.05" height="9.19" fill="#d0d2d3"/><rect x="322.61" y="80.42" width="5.05" height="9.19" fill="#d0d2d3"/><rect x="314.33" y="80.42" width="5.05" height="9.19" fill="#d0d2d3"/><rect x="281.48" y="80.42" width="5.05" height="9.19" fill="#d0d2d3"/><rect x="273.43" y="80.42" width="5.05" height="9.19" fill="#d0d2d3"/><rect x="265.39" y="80.42" width="5.05" height="9.19" fill="#d0d2d3"/><rect x="257.12" y="80.42" width="5.05" height="9.19" fill="#d0d2d3"/><rect x="82.03" y="95.13" width="5.05" height="9.19" fill="#d0d2d3"/><rect x="73.76" y="95.13" width="5.05" height="9.19" fill="#d0d2d3"/><rect x="65.72" y="95.13" width="5.05" height="9.19" fill="#d0d2d3"/><rect x="57.44" y="95.13" width="5.05" height="9.19" fill="#d0d2d3"/><rect x="372.01" width="5.05" height="9.19" fill="#d0d2d3"/><rect x="363.96" width="5.05" height="9.19" fill="#d0d2d3"/><rect x="355.69" width="5.05" height="9.19" fill="#d0d2d3"/><rect x="347.65" width="5.05" height="9.19" fill="#d0d2d3"/><rect x="252.29" y="72.84" width="9.19" height="5.06" fill="#d0d2d3"/><rect x="252.29" y="64.8" width="9.19" height="5.06" fill="#d0d2d3"/><rect x="252.29" y="56.52" width="9.19" height="5.06" fill="#d0d2d3"/><rect x="252.29" y="48.25" width="9.19" height="5.06" fill="#d0d2d3"/><rect x="252.29" y="40.21" width="9.19" height="5.06" fill="#d0d2d3"/><rect x="252.29" y="31.94" width="9.19" height="5.06" fill="#d0d2d3"/><rect x="252.06" y="23.9" width="9.19" height="5.06" fill="#d0d2d3"/><rect x="81.11" y="72.84" width="9.19" height="5.06" fill="#d0d2d3"/><rect x="80.88" y="64.57" width="9.19" height="5.06" fill="#d0d2d3"/><rect x="81.11" y="56.52" width="9.19" height="5.06" fill="#d0d2d3"/><rect x="80.88" y="48.25" width="9.19" height="5.06" fill="#d0d2d3"/><rect x="81.11" y="40.21" width="9.19" height="5.06" fill="#d0d2d3"/><rect x="81.11" y="31.94" width="9.19" height="5.06" fill="#d0d2d3"/><rect x="80.88" y="23.67" width="9.19" height="5.06" fill="#d0d2d3"/><rect x="111.44" y="28.72" width="12.64" height="12.64" fill="#027469"/><rect x="143.61" y="28.72" width="12.64" height="12.64" fill="#027469"/><rect x="176.01" y="28.72" width="12.64" height="12.64" fill="#027469"/><rect x="208.18" y="28.72" width="12.64" height="12.64" fill="#027469"/><rect x="127.53" y="51.93" width="12.64" height="12.64" fill="#027469"/><rect x="159.69" y="51.93" width="12.64" height="12.64" fill="#027469"/><rect x="192.09" y="51.93" width="12.64" height="12.64" fill="#027469"/><rect x="224.49" y="51.93" width="12.64" height="12.64" fill="#027469"/><rect x="108.91" y="73.76" width="12.64" height="12.64" fill="#027469"/><rect x="141.31" y="73.76" width="12.64" height="12.64" fill="#027469"/><rect x="173.48" y="73.76" width="12.64" height="12.64" fill="#027469"/><rect x="205.88" y="73.76" width="12.64" height="12.64" fill="#027469"/></svg>