<svg id="28ee7b22-c26f-4703-93e3-fef5d9e81e69" data-name="Layer 1" xmlns="http://www.w3.org/2000/svg" viewBox="0 0 480 360"><title>Hello World</title><rect width="480" height="119.99" fill="#ecd3e6"/><rect y="119.99" width="480" height="119.99" fill="#dac1dd"/><rect y="239.99" width="480" height="119.99" fill="#c1acc5"/><rect x="0.51" y="344.36" width="479.49" height="15.64" fill="#910045"/><rect x="121.78" y="308.89" width="99.2" height="50.76" fill="#910045"/><rect x="134.9" y="292.29" width="73.96" height="41.98" fill="#97134d"/><rect x="146.91" y="275.68" width="51.37" height="41.98" fill="#910045"/><rect x="159.24" y="260.99" width="26.71" height="41.98" fill="#97134d"/><rect x="163.68" y="260.99" width="17.83" height="8.38" fill="#f04e36"/><rect x="18.78" y="325.44" width="66.86" height="34.21" fill="#910045"/><rect x="27.63" y="314.25" width="49.85" height="28.29" fill="#97134d"/><rect x="35.72" y="303.05" width="34.62" height="28.29" fill="#910045"/><rect x="44.03" y="293.15" width="18" height="28.29" fill="#97134d"/><rect x="47.02" y="293.15" width="12.02" height="5.65" fill="#f04e36"/><rect x="357.71" y="209.08" width="2.4" height="2.4" fill="#7b7c7f"/><rect x="338.93" y="214.33" width="2.4" height="2.4" fill="#7b7c7f"/><rect x="395.28" y="219.58" width="2.4" height="2.4" fill="#7b7c7f"/><rect x="301.37" y="224.83" width="2.4" height="2.4" fill="#7b7c7f"/><rect x="432.84" y="230.08" width="2.4" height="2.4" fill="#7b7c7f"/><rect x="414.06" y="235.32" width="2.4" height="2.4" fill="#7b7c7f"/><rect x="451.62" y="240.57" width="2.4" height="2.4" fill="#7b7c7f"/><rect x="376.5" y="245.82" width="2.4" height="2.4" fill="#7b7c7f"/><rect x="282.59" y="251.07" width="2.4" height="2.4" fill="#7b7c7f"/><rect x="263.81" y="256.32" width="2.4" height="2.4" fill="#7b7c7f"/><rect x="320.15" y="261.57" width="2.4" height="2.4" fill="#7b7c7f"/><rect x="226.25" y="266.81" width="2.4" height="2.4" fill="#7b7c7f"/><rect x="207.47" y="272.06" width="2.4" height="2.4" fill="#7b7c7f"/><rect x="188.69" y="277.31" width="2.4" height="2.4" fill="#7b7c7f"/><rect x="245.03" y="282.56" width="2.4" height="2.4" fill="#7b7c7f"/><rect x="151.12" y="287.81" width="2.4" height="2.4" fill="#7b7c7f"/><rect x="132.34" y="293.05" width="2.4" height="2.4" fill="#7b7c7f"/><rect x="113.56" y="298.3" width="2.4" height="2.4" fill="#7b7c7f"/><rect x="169.9" y="303.55" width="2.4" height="2.4" fill="#7b7c7f"/><rect x="94.78" y="308.8" width="2.4" height="2.4" fill="#7b7c7f"/><rect x="57.22" y="314.05" width="2.4" height="2.4" fill="#7b7c7f"/><rect x="38.44" y="314.05" width="2.4" height="2.4" fill="#7b7c7f"/><rect x="76" y="314.05" width="2.4" height="2.4" fill="#7b7c7f"/><rect x="19.66" y="314.05" width="2.4" height="2.4" fill="#7b7c7f"/><rect x="176.85" y="251.73" width="2.4" height="2.4" fill="#f04e36"/><rect x="180.75" y="247.83" width="2.4" height="2.4" fill="#f04e36"/><rect x="185.13" y="243.45" width="2.4" height="2.4" fill="#f04e36"/><rect x="189.11" y="239.47" width="2.4" height="2.4" fill="#f04e36"/><rect x="171.55" y="252.12" width="2.4" height="2.4" transform="translate(-128.41 195.73) rotate(-44.88)" fill="#f04e36"/><rect x="171.57" y="246.6" width="2.4" height="2.4" transform="translate(-124.51 194.13) rotate(-44.88)" fill="#f04e36"/><rect x="171.58" y="240.4" width="2.4" height="2.4" transform="translate(-120.13 192.33) rotate(-44.88)" fill="#f04e36"/><rect x="171.59" y="234.78" width="2.4" height="2.4" transform="translate(-116.16 190.7) rotate(-44.88)" fill="#f04e36"/><rect x="165.69" y="252.88" width="2.4" height="2.4" transform="translate(-81.33 429.56) rotate(-91.96)" fill="#f04e36"/><rect x="161.66" y="249.12" width="2.4" height="2.4" transform="translate(-81.74 421.64) rotate(-91.96)" fill="#f04e36"/><rect x="157.13" y="244.89" width="2.4" height="2.4" transform="translate(-82.2 412.74) rotate(-91.96)" fill="#f04e36"/><rect x="153.02" y="241.04" width="2.4" height="2.4" transform="translate(-82.61 404.65) rotate(-91.96)" fill="#f04e36"/><rect x="56.82" y="284.24" width="2.4" height="2.4" fill="#f04e36"/><rect x="60.71" y="280.34" width="2.4" height="2.4" fill="#f04e36"/><rect x="65.1" y="275.96" width="2.4" height="2.4" fill="#f04e36"/><rect x="69.08" y="271.97" width="2.4" height="2.4" fill="#f04e36"/><rect x="51.52" y="284.63" width="2.4" height="2.4" transform="translate(-186.33 120.5) rotate(-44.88)" fill="#f04e36"/><rect x="51.53" y="279.11" width="2.4" height="2.4" transform="translate(-182.43 118.9) rotate(-44.88)" fill="#f04e36"/><rect x="51.55" y="272.91" width="2.4" height="2.4" transform="translate(-178.05 117.1) rotate(-44.88)" fill="#f04e36"/><rect x="51.56" y="267.28" width="2.4" height="2.4" transform="translate(-174.08 115.47) rotate(-44.88)" fill="#f04e36"/><rect x="45.66" y="285.39" width="2.4" height="2.4" transform="translate(-237.96 343.22) rotate(-91.96)" fill="#f04e36"/><rect x="41.63" y="281.63" width="2.4" height="2.4" transform="translate(-238.37 335.3) rotate(-91.96)" fill="#f04e36"/><rect x="37.1" y="277.39" width="2.4" height="2.4" transform="translate(-238.82 326.4) rotate(-91.96)" fill="#f04e36"/><rect x="32.98" y="273.55" width="2.4" height="2.4" transform="translate(-239.24 318.31) rotate(-91.96)" fill="#f04e36"/></svg>