<svg id="1ab17e03-e0e3-44c2-9932-63a00e2c2387" data-name="Layer 1" xmlns="http://www.w3.org/2000/svg" viewBox="0 0 1723.28 629.89"><title>Hello World</title><rect width="1723.28" height="209.96" fill="#dae3f3"/><rect y="209.96" width="1723.28" height="209.96" fill="#ccd9ef"/><rect y="419.93" width="1723.28" height="209.96" fill="#b2bed1"/><rect y="503.27" width="1723.28" height="126.62" fill="#89cda7"/><rect x="1448.5" y="250.74" width="120.67" height="120.67" fill="#a79d2a"/><rect x="1497.02" y="305.14" width="24.5" height="198.12" fill="#c58979"/><rect x="1504.47" y="503.27" width="9.6" height="80.58" fill="#c58979"/><rect x="1448.93" y="503.27" width="9.6" height="80.58" fill="#c58979"/><rect x="1560" y="503.27" width="9.6" height="80.58" fill="#c58979"/><rect x="1504.47" y="447.73" width="9.6" height="120.67" transform="translate(2017.33 -1001.2) rotate(90)" fill="#c58979"/><rect x="1258.23" y="250.74" width="120.67" height="120.67" fill="#a79d2a"/><rect x="1306.74" y="305.14" width="24.5" height="198.12" fill="#c58979"/><rect x="1314.19" y="503.27" width="9.6" height="80.58" fill="#c58979"/><rect x="1258.66" y="503.27" width="9.6" height="80.58" fill="#c58979"/><rect x="1369.73" y="503.27" width="9.6" height="80.58" fill="#c58979"/><rect x="1314.19" y="447.73" width="9.6" height="120.67" transform="translate(1827.06 -810.93) rotate(90)" fill="#c58979"/><rect x="246.02" y="250.74" width="120.67" height="120.67" fill="#a79d2a"/><rect x="294.54" y="305.14" width="24.5" height="198.12" fill="#c58979"/><rect x="301.99" y="503.27" width="9.6" height="80.58" fill="#c58979"/><rect x="246.45" y="503.27" width="9.6" height="80.58" fill="#c58979"/><rect x="357.52" y="503.27" width="9.6" height="80.58" fill="#c58979"/><rect x="301.99" y="447.73" width="9.6" height="120.67" transform="translate(814.85 201.28) rotate(90)" fill="#c58979"/><rect x="46.63" y="250.74" width="120.67" height="120.67" fill="#a79d2a"/><rect x="95.15" y="305.14" width="24.5" height="198.12" fill="#c58979"/><rect x="102.6" y="503.27" width="9.6" height="80.58" fill="#c58979"/><rect x="47.07" y="503.27" width="9.6" height="80.58" fill="#c58979"/><rect x="158.14" y="503.27" width="9.6" height="80.58" fill="#c58979"/><rect x="102.6" y="447.73" width="9.6" height="120.67" transform="translate(615.46 400.66) rotate(90)" fill="#c58979"/><rect x="436.68" y="500.67" width="752.37" height="65.91" fill="#9d503a"/><rect x="694.62" y="392.82" width="209.27" height="85.57" fill="#9dba3c"/><rect x="852" y="466.53" width="30.92" height="38.76" fill="#9dba3c"/><rect x="741.22" y="466.53" width="30.92" height="38.76" fill="#9dba3c"/><rect x="534.71" y="392.82" width="159.91" height="24.57" fill="#9dba3c"/><rect x="891.18" y="392.61" width="159.7" height="41.94" fill="#9dba3c"/><rect x="892.66" y="439.42" width="159.7" height="37.91" fill="#9dba3c"/><rect x="1015.94" y="378.42" width="34.95" height="14.19" fill="#9dba3c"/><rect x="959.81" y="378.42" width="34.95" height="14.19" fill="#9dba3c"/><rect x="828.06" y="403.2" width="34.95" height="14.19" fill="#466931"/><rect x="774.9" y="406.38" width="34.95" height="14.19" fill="#466931"/><rect x="723.64" y="406.38" width="34.95" height="14.19" fill="#466931"/><rect x="828.06" y="439.42" width="34.95" height="14.19" fill="#466931"/><rect x="774.9" y="442.6" width="34.95" height="14.19" fill="#466931"/><rect x="723.64" y="442.6" width="34.95" height="14.19" fill="#466931"/><rect x="797.14" y="466.53" width="30.92" height="38.76" fill="#9dba3c"/><rect x="694.62" y="467.8" width="30.92" height="38.76" fill="#9dba3c"/></svg>