<svg id="270e3953-9f95-495e-85e6-26f3a84f6cb1" data-name="Layer 1" xmlns="http://www.w3.org/2000/svg" viewBox="0 0 282.39 114.66"><title>Hello World</title><rect x="62.27" y="0.23" width="94.9" height="69.39" fill="#f9e75a"/><rect x="157.17" y="0.23" width="103.4" height="103.4" fill="#f9e75a"/><rect x="137.41" y="29.41" width="22.52" height="18.38" fill="#ffe7b7"/><rect x="169.57" y="10.34" width="78.58" height="61.81" fill="#ffe7b7"/><rect x="260.57" y="29.41" width="21.83" height="18.38" fill="#ffe7b7"/><rect x="184.05" y="26.65" width="6.43" height="7.12" fill="#a1812e"/><rect x="227.25" y="26.65" width="6.43" height="7.12" fill="#a1812e"/><rect x="127.53" y="0.23" width="4.6" height="38.37" fill="#dcae3b"/><rect x="117.19" y="0.23" width="4.6" height="38.37" fill="#dcae3b"/><rect x="106.16" y="0.23" width="4.6" height="38.37" fill="#dcae3b"/><rect x="96.28" y="0.23" width="4.6" height="38.37" fill="#dcae3b"/><rect x="85.94" y="0.23" width="4.6" height="38.37" fill="#dcae3b"/><rect x="75.83" y="0.23" width="4.6" height="38.37" fill="#dcae3b"/><rect x="65.71" y="0.23" width="4.6" height="38.37" fill="#dcae3b"/><rect x="146.37" y="64.57" width="11.03" height="41.36" fill="#f9e75a"/><rect x="146.37" y="105.93" width="11.03" height="8.73" fill="#ffe7b7"/><rect x="119.48" y="105.93" width="11.03" height="8.73" fill="#ffe7b7"/><rect x="91.22" y="105.93" width="11.03" height="8.73" fill="#ffe7b7"/><rect x="62.27" y="105.93" width="11.03" height="8.73" fill="#ffe7b7"/><rect x="119.48" y="64.57" width="11.03" height="41.36" fill="#f9e75a"/><rect x="91.22" y="64.57" width="11.03" height="41.36" fill="#f9e75a"/><rect x="62.27" y="64.57" width="11.03" height="41.36" fill="#f9e75a"/><rect x="26.42" width="37.45" height="12.18" fill="#f9e75a"/><rect y="37.45" width="37.45" height="12.18" fill="#f9e75a"/><rect x="26.65" y="8.27" width="11.03" height="41.36" fill="#f9e75a"/></svg>