<svg id="0e51726e-ee09-4492-a270-ccb606ccb15f" data-name="Layer 1" xmlns="http://www.w3.org/2000/svg" viewBox="0 0 1723.28 629.89"><title>Hello World</title><rect width="1723.28" height="209.96" fill="#622a61"/><rect y="209.96" width="1723.28" height="209.96" fill="#4c0049"/><rect y="419.93" width="1723.28" height="209.96" fill="#3d004a"/><rect x="1327.04" y="139.8" width="8.63" height="8.63" fill="#fff"/><rect x="1259.62" y="158.64" width="8.63" height="8.63" fill="#fff"/><rect x="1461.9" y="177.48" width="8.63" height="8.63" fill="#fff"/><rect x="1124.76" y="196.33" width="8.63" height="8.63" fill="#fff"/><rect x="1596.75" y="215.17" width="8.63" height="8.63" fill="#fff"/><rect x="1529.32" y="234.01" width="8.63" height="8.63" fill="#fff"/><rect x="1664.18" y="252.85" width="8.63" height="8.63" fill="#fff"/><rect x="1394.47" y="271.69" width="8.63" height="8.63" fill="#fff"/><rect x="1057.33" y="290.53" width="8.63" height="8.63" fill="#fff"/><rect x="989.91" y="309.38" width="8.63" height="8.63" fill="#fff"/><rect x="1192.19" y="328.22" width="8.63" height="8.63" fill="#fff"/><rect x="855.05" y="347.06" width="8.63" height="8.63" fill="#fff"/><rect x="787.63" y="365.9" width="8.63" height="8.63" fill="#fff"/><rect x="720.2" y="384.74" width="8.63" height="8.63" fill="#fff"/><rect x="922.48" y="403.58" width="8.63" height="8.63" fill="#fff"/><rect x="585.35" y="422.42" width="8.63" height="8.63" fill="#fff"/><rect x="517.92" y="441.27" width="8.63" height="8.63" fill="#fff"/><rect x="450.49" y="460.11" width="8.63" height="8.63" fill="#fff"/><rect x="652.77" y="478.95" width="8.63" height="8.63" fill="#fff"/><rect x="383.07" y="497.79" width="8.63" height="8.63" fill="#fff"/><rect x="248.21" y="516.63" width="8.63" height="8.63" fill="#fff"/><rect x="180.79" y="516.63" width="8.63" height="8.63" fill="#fff"/><rect x="315.64" y="516.63" width="8.63" height="8.63" fill="#fff"/><rect x="113.36" y="516.63" width="8.63" height="8.63" fill="#fff"/><rect x="116.31" y="104.97" width="129.08" height="129.08" fill="#fff200"/><rect x="998.95" y="262.14" width="32.46" height="96.78" transform="translate(1497.68 1256.15) rotate(-134.04)" fill="#b97362"/><rect x="1024.53" y="282.25" width="32.46" height="70.42" transform="translate(1536.04 1286.3) rotate(-134.04)" fill="#b97362"/><rect x="1048.12" y="302.08" width="32.46" height="49.57" transform="translate(1569.29 1319.21) rotate(-134.04)" fill="#b97362"/><rect x="1084.54" y="471.72" width="13.66" height="40.04" transform="translate(-8.08 18.35) rotate(-0.96)" fill="#593939"/><rect x="1064.98" y="511.92" width="33.63" height="8.72" transform="translate(-8.5 18.19) rotate(-0.96)" fill="#593939"/><rect x="1148.7" y="474.85" width="13.66" height="40.04" transform="translate(-8.13 19.43) rotate(-0.96)" fill="#593939"/><rect x="1129.14" y="515.05" width="33.63" height="8.72" transform="translate(-8.54 19.27) rotate(-0.96)" fill="#593939"/><rect x="1052.22" y="278.73" width="139.08" height="205.15" transform="translate(-6.23 18.84) rotate(-0.96)" fill="#863d11"/><rect x="1022.72" y="250.18" width="51.39" height="22.25" transform="translate(-4.23 17.6) rotate(-0.96)" fill="#ffc809"/><rect x="1060.71" y="182.31" width="111.61" height="111.61" transform="translate(-3.83 18.74) rotate(-0.96)" fill="#863d11"/><rect x="1135.07" y="184.51" width="51.39" height="22.25" transform="translate(1336.93 -968.24) rotate(89.04)" fill="#863d11"/><rect x="1045.07" y="184.51" width="51.39" height="22.25" transform="translate(1248.43 -878.25) rotate(89.04)" fill="#863d11"/><rect x="1098.87" y="214.64" width="29.22" height="29.22" transform="translate(-3.68 18.68) rotate(-0.96)" fill="#4f3231"/><rect x="1105.03" y="220.28" width="17.88" height="17.88" transform="matrix(1, -0.02, 0.02, 1, -3.68, 18.69)" fill="#f1f2f2"/><rect x="1052.58" y="321.37" width="82.93" height="162.98" transform="translate(-6.59 18.38) rotate(-0.96)" fill="#eed1bf"/><rect x="1113.44" y="328.79" width="15.11" height="15.11" fill="#d96931"/><rect x="1113.44" y="367.58" width="15.11" height="15.11" fill="#d96931"/><rect x="1113.44" y="406.38" width="15.11" height="15.11" fill="#d96931"/><rect x="1113.44" y="445.17" width="15.11" height="15.11" fill="#d96931"/><rect x="1085.9" y="348.27" width="15.11" height="15.11" fill="#d96931"/><rect x="1085.9" y="387.07" width="15.11" height="15.11" fill="#d96931"/><rect x="1085.9" y="425.86" width="15.11" height="15.11" fill="#d96931"/><rect x="1085.9" y="464.66" width="15.11" height="15.11" fill="#d96931"/><rect x="1059.53" y="325.93" width="15.11" height="15.11" fill="#d96931"/><rect x="1059.53" y="364.73" width="15.11" height="15.11" fill="#d96931"/><rect x="1059.53" y="403.52" width="15.11" height="15.11" fill="#d96931"/><rect x="1059.53" y="442.32" width="15.11" height="15.11" fill="#d96931"/><rect x="1215.49" y="250.21" width="32.46" height="96.78" transform="translate(160.82 976.44) rotate(-45.96)" fill="#b97362"/><rect x="1189.92" y="270.33" width="32.46" height="70.42" transform="translate(148.04 960.18) rotate(-45.96)" fill="#b97362"/><rect x="1166.32" y="290.16" width="32.46" height="49.57" transform="translate(134.08 946.08) rotate(-45.96)" fill="#b97362"/></svg>