<svg id="75f04245-176a-48de-8081-ffea43795cf9" data-name="Layer 1" xmlns="http://www.w3.org/2000/svg" viewBox="0 0 321.92 150.73"><title>Hello World</title><rect x="0.46" y="0.23" width="187.73" height="90.53" fill="#f15a29"/><rect x="129.59" y="73.76" width="27.34" height="58.36" fill="#f15a29"/><rect x="0.46" y="71.46" width="29.18" height="60.66" fill="#f15a29"/><rect x="129.59" y="132.12" width="27.34" height="18.61" fill="#9b8579"/><rect y="132.12" width="29.64" height="18.61" fill="#9b8579"/><rect x="142.92" y="12.87" width="5.06" height="23.67" fill="#f7941d"/><rect x="131.66" y="12.87" width="5.06" height="23.67" fill="#f7941d"/><rect x="120.86" y="12.87" width="5.06" height="23.67" fill="#f7941d"/><rect x="109.83" y="12.87" width="5.06" height="23.67" fill="#f7941d"/><rect x="97.42" y="12.87" width="5.06" height="23.67" fill="#f7941d"/><rect x="86.4" y="12.87" width="5.06" height="23.67" fill="#f7941d"/><rect x="76.28" y="12.87" width="5.06" height="23.67" fill="#f7941d"/><rect x="65.03" y="12.87" width="5.06" height="23.67" fill="#f7941d"/><rect x="166.36" width="144.99" height="144.99" fill="#f15a29"/><rect x="181.52" y="15.4" width="113.74" height="113.74" fill="#9b8579"/><rect x="255.74" y="43.89" width="32.86" height="9.88" fill="#594a42"/><rect x="193.93" y="43.89" width="32.86" height="9.88" fill="#594a42"/><rect x="269.07" y="66.18" width="5.28" height="5.28" fill="#594a42"/><rect x="205.42" y="63.65" width="5.06" height="5.06" fill="#594a42"/><rect x="231.84" y="64.8" width="15.4" height="15.4" fill="#594a42"/><rect x="153.66" y="58.2" width="27.57" height="22.52" fill="#9b8579"/><rect x="295.26" y="58.2" width="26.65" height="22.52" fill="#9b8579"/></svg>