<svg id="80fac1a3-241b-4d47-acc1-901b125fded1" data-name="Layer 1" xmlns="http://www.w3.org/2000/svg" viewBox="0 0 1723.28 629.89"><title>Hello World</title><rect width="1723.28" height="209.96" fill="#b2e2f4"/><rect y="209.96" width="1723.28" height="209.96" fill="#d0ecf6"/><rect y="419.93" width="1723.28" height="209.96" fill="#e3f4f9"/><rect y="471.19" width="1723.28" height="158.7" fill="#fff"/><rect y="503.27" width="1723.28" height="126.62" fill="#ffebc6"/><rect x="1240.72" y="116.93" width="8.63" height="8.63" fill="#ddbba9"/><rect x="1173.3" y="135.77" width="8.63" height="8.63" fill="#ddbba9"/><rect x="1375.58" y="154.62" width="8.63" height="8.63" fill="#ddbba9"/><rect x="1038.44" y="173.46" width="8.63" height="8.63" fill="#ddbba9"/><rect x="1510.43" y="192.3" width="8.63" height="8.63" fill="#ddbba9"/><rect x="1443" y="211.14" width="8.63" height="8.63" fill="#ddbba9"/><rect x="1577.86" y="229.98" width="8.63" height="8.63" fill="#ddbba9"/><rect x="1308.15" y="248.82" width="8.63" height="8.63" fill="#ddbba9"/><rect x="971.02" y="267.67" width="8.63" height="8.63" fill="#ddbba9"/><rect x="903.59" y="286.51" width="8.63" height="8.63" fill="#ddbba9"/><rect x="1105.87" y="305.35" width="8.63" height="8.63" fill="#ddbba9"/><rect x="768.74" y="324.19" width="8.63" height="8.63" fill="#ddbba9"/><rect x="701.31" y="343.03" width="8.63" height="8.63" fill="#ddbba9"/><rect x="633.88" y="361.87" width="8.63" height="8.63" fill="#ddbba9"/><rect x="836.16" y="380.71" width="8.63" height="8.63" fill="#ddbba9"/><rect x="499.03" y="399.56" width="8.63" height="8.63" fill="#ddbba9"/><rect x="431.6" y="418.4" width="8.63" height="8.63" fill="#ddbba9"/><rect x="364.17" y="437.24" width="8.63" height="8.63" fill="#ddbba9"/><rect x="566.46" y="456.08" width="8.63" height="8.63" fill="#ddbba9"/><rect x="296.75" y="474.92" width="8.63" height="8.63" fill="#ddbba9"/><rect x="161.89" y="493.76" width="8.63" height="8.63" fill="#ddbba9"/><rect x="94.47" y="493.76" width="8.63" height="8.63" fill="#ddbba9"/><rect x="229.32" y="493.76" width="8.63" height="8.63" fill="#ddbba9"/><rect x="27.04" y="493.76" width="8.63" height="8.63" fill="#ddbba9"/><rect x="1141.35" y="429.69" width="24.46" height="83.01" fill="#4c98cb"/><rect x="1170.63" y="433.77" width="24.46" height="83.01" transform="translate(1658.13 -707.58) rotate(90)" fill="#4c98cb"/><rect x="1170.63" y="471.19" width="24.46" height="83.01" transform="translate(1695.55 -670.16) rotate(90)" fill="#4c98cb"/><rect x="1112.08" y="479.78" width="24.46" height="83.01" transform="translate(1645.59 -603.04) rotate(90)" fill="#4c98cb"/><rect x="1112.08" y="421.54" width="24.46" height="83.01" transform="translate(1587.36 -661.27) rotate(90)" fill="#4c98cb"/><rect x="1082.81" y="432.95" width="24.46" height="42.32" transform="translate(2190.09 908.23) rotate(180)" fill="#4c98cb"/><rect x="1199.9" y="445.19" width="24.46" height="42.32" transform="translate(2424.26 932.69) rotate(180)" fill="#4c98cb"/><rect x="1199.9" y="500.46" width="24.46" height="42.32" transform="translate(2424.26 1043.25) rotate(180)" fill="#4c98cb"/><rect x="1082.81" y="509.05" width="24.46" height="42.32" transform="translate(2190.09 1060.42) rotate(180)" fill="#4c98cb"/><rect x="1141.35" y="409.47" width="24.46" height="42.32" transform="translate(2307.17 861.27) rotate(180)" fill="#4c98cb"/><rect x="1156.67" y="422.74" width="5.16" height="5.16" fill="#014976"/><rect x="1156.67" y="432.95" width="5.16" height="5.16" fill="#014976"/><rect x="1156.67" y="444.02" width="5.16" height="5.16" fill="#014976"/><rect x="1214" y="451.79" width="5.16" height="5.16" fill="#014976"/><rect x="1214" y="462.01" width="5.16" height="5.16" fill="#014976"/><rect x="1214" y="473.08" width="5.16" height="5.16" fill="#014976"/><rect x="1096.9" y="438.57" width="5.16" height="5.16" fill="#014976"/><rect x="1096.9" y="448.79" width="5.16" height="5.16" fill="#014976"/><rect x="1096.9" y="459.85" width="5.16" height="5.16" fill="#014976"/><rect x="1214" y="508.06" width="5.16" height="5.16" fill="#014976"/><rect x="1214" y="518.27" width="5.16" height="5.16" fill="#014976"/><rect x="1214" y="529.34" width="5.16" height="5.16" fill="#014976"/><rect x="1096.9" y="516.99" width="5.16" height="5.16" fill="#014976"/><rect x="1096.9" y="527.2" width="5.16" height="5.16" fill="#014976"/><rect x="1096.9" y="538.27" width="5.16" height="5.16" fill="#014976"/><rect x="149.92" y="282.73" width="41.2" height="251.02" fill="#eca88b"/><rect x="152.07" y="269.09" width="36.91" height="16.76" transform="translate(341.04 554.93) rotate(180)" fill="#009e91"/><rect x="152.07" y="300.16" width="36.91" height="16.76" transform="translate(341.04 617.07) rotate(180)" fill="#e99879"/><rect x="152.07" y="332.07" width="36.91" height="16.76" transform="translate(341.04 680.9) rotate(180)" fill="#e99879"/><rect x="152.07" y="363.99" width="36.91" height="16.76" transform="translate(341.04 744.73) rotate(180)" fill="#e99879"/><rect x="152.07" y="395.9" width="36.91" height="16.76" transform="translate(341.04 808.56) rotate(180)" fill="#e99879"/><rect x="152.07" y="427.82" width="36.91" height="16.76" transform="translate(341.04 872.4) rotate(180)" fill="#e99879"/><rect x="152.07" y="459.74" width="36.91" height="16.76" transform="translate(341.04 936.23) rotate(180)" fill="#e99879"/><rect x="113.53" y="252.33" width="113.97" height="16.76" transform="translate(341.04 521.42) rotate(180)" fill="#009e91"/><rect x="-5.1" y="280.49" width="136.32" height="14.01" transform="translate(-224.43 350.55) rotate(-90)" fill="#009e91"/><rect x="209.99" y="280.49" width="136.32" height="14.01" transform="translate(-9.34 565.65) rotate(-90)" fill="#009e91"/><rect x="178.44" y="297.27" width="136.32" height="14.01" transform="translate(-57.67 550.88) rotate(-90)" fill="#009e91"/><rect x="152.34" y="312.05" width="136.32" height="14.01" transform="translate(-98.55 539.56) rotate(-90)" fill="#009e91"/><rect x="52.38" y="314.95" width="136.32" height="14.01" transform="translate(-201.41 442.49) rotate(-90)" fill="#009e91"/><rect x="26.27" y="297.27" width="136.32" height="14.01" transform="translate(-209.84 398.71) rotate(-90)" fill="#009e91"/><rect x="87.43" y="235.58" width="166.18" height="16.76" transform="translate(341.04 487.91) rotate(180)" fill="#009e91"/><rect x="55.88" y="218.82" width="229.28" height="16.76" transform="translate(341.04 454.4) rotate(180)" fill="#009e91"/><rect x="1557.26" y="263.98" width="41.2" height="251.02" fill="#eca88b"/><rect x="1559.41" y="250.33" width="36.91" height="16.76" transform="translate(3155.72 517.42) rotate(180)" fill="#009e91"/><rect x="1559.41" y="281.4" width="36.91" height="16.76" transform="translate(3155.72 579.56) rotate(180)" fill="#e99879"/><rect x="1559.41" y="313.32" width="36.91" height="16.76" transform="translate(3155.72 643.39) rotate(180)" fill="#e99879"/><rect x="1559.41" y="345.23" width="36.91" height="16.76" transform="translate(3155.72 707.22) rotate(180)" fill="#e99879"/><rect x="1559.41" y="377.15" width="36.91" height="16.76" transform="translate(3155.72 771.06) rotate(180)" fill="#e99879"/><rect x="1559.41" y="409.07" width="36.91" height="16.76" transform="translate(3155.72 834.89) rotate(180)" fill="#e99879"/><rect x="1559.41" y="440.98" width="36.91" height="16.76" transform="translate(3155.72 898.72) rotate(180)" fill="#e99879"/><rect x="1520.87" y="233.58" width="113.97" height="16.76" transform="translate(3155.72 483.91) rotate(180)" fill="#009e91"/><rect x="1402.23" y="261.73" width="136.32" height="14.01" transform="translate(1201.66 1739.13) rotate(-90)" fill="#009e91"/><rect x="1617.33" y="261.73" width="136.32" height="14.01" transform="translate(1416.75 1954.23) rotate(-90)" fill="#009e91"/><rect x="1585.78" y="278.52" width="136.32" height="14.01" transform="translate(1368.42 1939.47) rotate(-90)" fill="#009e91"/><rect x="1559.68" y="293.3" width="136.32" height="14.01" transform="translate(1327.54 1928.14) rotate(-90)" fill="#009e91"/><rect x="1459.71" y="296.19" width="136.32" height="14.01" transform="translate(1224.68 1831.07) rotate(-90)" fill="#009e91"/><rect x="1433.61" y="278.52" width="136.32" height="14.01" transform="translate(1216.25 1787.3) rotate(-90)" fill="#009e91"/><rect x="1494.77" y="216.82" width="166.18" height="16.76" transform="translate(3155.72 450.4) rotate(180)" fill="#009e91"/><rect x="1463.22" y="200.07" width="229.28" height="16.76" transform="translate(3155.72 416.89) rotate(180)" fill="#009e91"/></svg>