<svg id="1bd1b1d6-86de-4f85-9f5d-c5d1f9ca1a3a" data-name="Layer 1" xmlns="http://www.w3.org/2000/svg" viewBox="0 0 252.75 162.45"><title>Hello World</title><rect x="144.76" width="19.3" height="37.45" fill="#f5eb0e"/><rect x="213.46" y="2.76" width="19.3" height="37.45" fill="#f5eb0e"/><rect x="215.3" y="21.83" width="37.45" height="19.3" fill="#f3f3f3"/><rect x="21.6" y="21.83" width="127.3" height="73.99" fill="#e5e5e4"/><rect x="144.76" y="21.6" width="88" height="70.31" fill="#f3f3f3"/><rect x="49.63" y="39.98" width="19.3" height="37.45" fill="#010101"/><rect x="115.58" y="46.87" width="19.3" height="37.45" fill="#010101"/><rect x="174.17" y="27.11" width="19.3" height="22.98" fill="#010101"/><rect x="208.18" y="73.53" width="9.65" height="11.49" fill="#979797"/><rect x="174.17" y="73.53" width="9.65" height="11.49" fill="#979797"/><rect x="129.59" y="86.17" width="19.3" height="73.99" fill="#e5e5e4"/><rect x="95.59" y="86.17" width="19.3" height="73.99" fill="#e5e5e4"/><rect x="60.89" y="86.17" width="19.3" height="73.99" fill="#e5e5e4"/><rect x="31.94" y="88.46" width="19.3" height="73.99" fill="#e5e5e4"/><rect x="1.38" y="21.83" width="9.65" height="73.99" fill="#e5e5e4"/><rect x="1.38" y="22.29" width="43.66" height="9.65" fill="#e5e5e4"/><rect x="116.96" y="21.83" width="37.45" height="19.3" fill="#f3f3f3"/><rect x="81.11" y="31.48" width="19.3" height="18.61" fill="#010101"/><rect y="87.09" width="12.18" height="23.67" fill="#979797"/></svg>