<svg id="f0d33281-1e08-40b8-b80b-235e80987a6d" data-name="Layer 1" xmlns="http://www.w3.org/2000/svg" viewBox="0 0 349.95 103.4"><title>Hello World</title><rect x="223.8" y="0.23" width="126.15" height="83.18" fill="#7bc044"/><rect x="243.33" y="17.92" width="7.81" height="7.12" fill="#467b3a"/><rect x="173.25" y="0.23" width="20.22" height="103.17" fill="#7bc044"/><rect x="152.8" y="0.23" width="20.22" height="103.17" fill="#6baa43"/><rect x="132.81" y="0.23" width="20.22" height="103.17" fill="#7bc044"/><rect x="112.36" y="0.23" width="20.22" height="103.17" fill="#6baa43"/><rect x="91.91" y="0.23" width="20.22" height="103.17" fill="#7bc044"/><rect x="51.7" width="20.22" height="65.03" fill="#7bc044"/><rect y="46.87" width="71.92" height="18.38" fill="#7bc044"/><rect x="72.15" y="0.23" width="20.22" height="103.17" fill="#6baa43"/><rect x="173.02" width="71.92" height="18.38" fill="#7bc044"/><rect x="137.18" y="6.43" width="3.45" height="3.22" fill="#467b3a"/><rect x="137.18" y="11.72" width="3.45" height="3.22" fill="#467b3a"/><rect x="137.18" y="17.23" width="3.45" height="3.22" fill="#467b3a"/><rect x="137.18" y="22.52" width="3.45" height="3.22" fill="#467b3a"/><rect x="155.33" y="26.42" width="3.45" height="3.22" fill="#467b3a"/><rect x="155.33" y="31.71" width="3.45" height="3.22" fill="#467b3a"/><rect x="155.33" y="37.22" width="3.45" height="3.22" fill="#467b3a"/><rect x="155.33" y="42.51" width="3.45" height="3.22" fill="#467b3a"/><rect x="176.47" y="53.08" width="3.45" height="3.22" fill="#467b3a"/><rect x="176.47" y="58.36" width="3.45" height="3.22" fill="#467b3a"/><rect x="176.47" y="63.88" width="3.45" height="3.22" fill="#467b3a"/><rect x="176.47" y="69.16" width="3.45" height="3.22" fill="#467b3a"/><rect x="104.55" y="54.23" width="3.45" height="3.22" fill="#467b3a"/><rect x="104.55" y="59.51" width="3.45" height="3.22" fill="#467b3a"/><rect x="104.55" y="65.03" width="3.45" height="3.22" fill="#467b3a"/><rect x="104.55" y="70.31" width="3.45" height="3.22" fill="#467b3a"/><rect x="83.41" y="30.79" width="3.45" height="3.22" fill="#467b3a"/><rect x="83.41" y="36.07" width="3.45" height="3.22" fill="#467b3a"/><rect x="83.41" y="41.59" width="3.45" height="3.22" fill="#467b3a"/><rect x="83.41" y="46.87" width="3.45" height="3.22" fill="#467b3a"/><rect x="63.65" y="5.28" width="3.45" height="3.22" fill="#467b3a"/><rect x="63.65" y="10.57" width="3.45" height="3.22" fill="#467b3a"/><rect x="63.65" y="16.08" width="3.45" height="3.22" fill="#467b3a"/><rect x="63.65" y="21.37" width="3.45" height="3.22" fill="#467b3a"/></svg>