<svg id="5d2d8637-6059-4b73-ada5-a9f5c3fa5c45" data-name="Layer 1" xmlns="http://www.w3.org/2000/svg" viewBox="0 0 480 360"><title>Hello World</title><rect x="0.86" width="479.14" height="119.97" fill="#e9b274"/><rect x="0.86" y="119.97" width="479.14" height="119.97" fill="#e09641"/><rect x="0.86" y="239.95" width="479.14" height="119.97" fill="#bf8136"/><rect x="0.86" y="319.17" width="479.14" height="40.75" fill="#dc4c3f"/><rect x="38.57" y="71.61" width="34.62" height="34.62" fill="#f7941d"/><rect x="343.45" y="273.26" width="19.63" height="45.9" fill="#46bc96"/><rect x="336.44" y="289.94" width="7.11" height="17.17" transform="translate(41.46 638.52) rotate(-90)" fill="#46bc96"/><rect x="331.41" y="284.91" width="7.11" height="17.17" fill="#46bc96"/><rect x="367.94" y="284.91" width="7.11" height="17.17" fill="#46bc96"/><rect x="348.74" y="282.31" width="0.9" height="17.17" fill="#005942"/><rect x="353.31" y="282.31" width="0.9" height="17.17" fill="#005942"/><rect x="362.91" y="289.94" width="7.11" height="17.17" transform="translate(664.99 -67.93) rotate(90)" fill="#46bc96"/><rect x="357.88" y="282.31" width="0.9" height="17.17" fill="#005942"/><rect x="390.55" y="296.27" width="9.67" height="22.61" fill="#46bc96"/><rect x="387.09" y="304.48" width="3.5" height="8.46" transform="translate(80.13 697.56) rotate(-90)" fill="#46bc96"/><rect x="384.62" y="302" width="3.5" height="8.46" fill="#46bc96"/><rect x="402.61" y="302" width="3.5" height="8.46" fill="#46bc96"/><rect x="393.15" y="300.72" width="0.44" height="8.46" fill="#005942"/><rect x="395.4" y="300.72" width="0.44" height="8.46" fill="#005942"/><rect x="400.13" y="304.48" width="3.5" height="8.46" transform="translate(710.59 -93.17) rotate(90)" fill="#46bc96"/><rect x="397.65" y="300.72" width="0.44" height="8.46" fill="#005942"/><rect x="369.94" y="155.83" width="2.52" height="2.52" fill="#e57e68"/><rect x="350.24" y="161.34" width="2.52" height="2.52" fill="#e57e68"/><rect x="409.35" y="166.85" width="2.52" height="2.52" fill="#e57e68"/><rect x="310.83" y="172.35" width="2.52" height="2.52" fill="#e57e68"/><rect x="448.76" y="177.86" width="2.52" height="2.52" fill="#e57e68"/><rect x="429.05" y="183.37" width="2.52" height="2.52" fill="#e57e68"/><rect x="468.46" y="188.87" width="2.52" height="2.52" fill="#e57e68"/><rect x="389.64" y="194.38" width="2.52" height="2.52" fill="#e57e68"/><rect x="291.12" y="199.88" width="2.52" height="2.52" fill="#e57e68"/><rect x="271.42" y="205.39" width="2.52" height="2.52" fill="#e57e68"/><rect x="330.53" y="210.9" width="2.52" height="2.52" fill="#e57e68"/><rect x="232.01" y="216.4" width="2.52" height="2.52" fill="#e57e68"/><rect x="212.3" y="221.91" width="2.52" height="2.52" fill="#e57e68"/><rect x="192.6" y="227.42" width="2.52" height="2.52" fill="#e57e68"/><rect x="251.71" y="232.92" width="2.52" height="2.52" fill="#e57e68"/><rect x="153.19" y="238.43" width="2.52" height="2.52" fill="#e57e68"/><rect x="133.48" y="243.93" width="2.52" height="2.52" fill="#e57e68"/><rect x="113.78" y="249.44" width="2.52" height="2.52" fill="#e57e68"/><rect x="172.89" y="254.95" width="2.52" height="2.52" fill="#e57e68"/><rect x="94.07" y="260.45" width="2.52" height="2.52" fill="#e57e68"/><rect x="54.67" y="265.96" width="2.52" height="2.52" fill="#e57e68"/><rect x="34.96" y="265.96" width="2.52" height="2.52" fill="#e57e68"/><rect x="74.37" y="265.96" width="2.52" height="2.52" fill="#e57e68"/><rect x="15.26" y="265.96" width="2.52" height="2.52" fill="#e57e68"/></svg>