<svg id="39d0ba83-78d1-4ba4-942d-1e426b61084e" data-name="Layer 1" xmlns="http://www.w3.org/2000/svg" viewBox="0 0 318.47 386.86"><title>Hello World</title><rect x="166.96" y="330.25" width="14.6" height="42.8" transform="translate(348.53 703.29) rotate(-180)" fill="#8b5e3c"/><rect x="166.96" y="373.05" width="35.94" height="9.32" transform="translate(369.87 755.41) rotate(-180)" fill="#8b5e3c"/><rect x="98.45" y="334.74" width="14.6" height="42.8" transform="translate(211.5 712.28) rotate(-180)" fill="#8b5e3c"/><rect x="98.45" y="377.54" width="35.94" height="9.32" transform="translate(232.84 764.4) rotate(-180)" fill="#8b5e3c"/><rect x="64.09" y="315.91" width="14.6" height="42.8" fill="#8b5e3c"/><rect y="358.71" width="78.7" height="9.32" fill="#8b5e3c"/><rect x="196.72" y="196.99" width="37.99" height="14.63" transform="translate(431.44 408.62) rotate(-180)" fill="#8b5e3c"/><rect x="203.15" y="222.81" width="50.52" height="14.63" transform="translate(456.82 460.25) rotate(-180)" fill="#8b5e3c"/><rect x="263.54" y="113.65" width="54.93" height="23.78" transform="translate(582.01 251.08) rotate(-180)" fill="#603913"/><rect x="179.44" y="58.02" width="119.3" height="119.3" transform="translate(478.18 235.34) rotate(-180)" fill="#8b5e3c"/><rect x="64.07" y="165.41" width="150.07" height="169.74" transform="translate(278.21 500.57) rotate(-180)" fill="#8b5e3c"/><rect x="141.68" y="272.09" width="65.17" height="27.71" transform="translate(348.53 571.9) rotate(-180)" fill="#754c29"/><rect x="232.1" y="98.56" width="19.11" height="19.11" transform="translate(483.3 216.24) rotate(-180)" fill="#39b54a"/><rect x="196.79" width="35.31" height="85.09" transform="translate(428.88 85.09) rotate(-180)" fill="#8b5e3c"/><rect x="241.65" width="35.31" height="85.09" transform="translate(518.6 85.09) rotate(-180)" fill="#8b5e3c"/><rect x="263.54" y="28.9" width="8.1" height="23.55" transform="translate(535.18 81.35) rotate(-180)" fill="#da1c5c"/><rect x="217.07" y="28.9" width="8.1" height="23.55" transform="translate(442.24 81.35) rotate(-180)" fill="#da1c5c"/></svg>