<svg id="7ccc65e4-3283-43e8-850a-73815b505d8d" data-name="Layer 1" xmlns="http://www.w3.org/2000/svg" viewBox="0 0 201.97 241.26"><title>Hello World</title><rect x="62.96" y="75.14" width="86.17" height="132.81" fill="#f69320"/><rect x="45.04" y="147.75" width="45.96" height="60.2" fill="#f69320"/><rect x="94.9" y="15.85" width="54" height="59.97" fill="#f69320"/><rect x="109.14" y="15.62" width="92.83" height="54" fill="#f69320"/><rect x="142.46" y="103.17" width="36.07" height="19.53" fill="#f69320"/><rect x="142.46" y="75.6" width="36.07" height="19.53" fill="#f69320"/><rect x="167.97" width="15.62" height="15.62" fill="#f69320"/><rect y="190.02" width="79.73" height="17.92" fill="#f69320"/><rect y="167.97" width="17.92" height="39.75" fill="#f69320"/><rect x="62.96" y="221.73" width="36.07" height="19.53" fill="#f69320"/><rect x="62.96" y="189.34" width="17.92" height="39.75" fill="#f69320"/><rect x="114.2" y="221.73" width="36.07" height="19.53" fill="#f69320"/><rect x="114.2" y="189.34" width="17.92" height="39.75" fill="#f69320"/><rect x="121.55" y="187.96" width="10.34" height="10.34" fill="#ef4137"/><rect x="121.55" y="161.3" width="10.34" height="10.34" fill="#ef4137"/><rect x="121.78" y="134.88" width="10.34" height="10.34" fill="#ef4137"/><rect x="121.55" y="108.22" width="10.34" height="10.34" fill="#ef4137"/><rect x="102.71" y="174.86" width="10.34" height="10.34" fill="#ef4137"/><rect x="102.71" y="148.21" width="10.34" height="10.34" fill="#ef4137"/><rect x="102.71" y="121.55" width="10.34" height="10.34" fill="#ef4137"/><rect x="102.71" y="95.13" width="10.34" height="10.34" fill="#ef4137"/><rect x="84.79" y="190.02" width="10.34" height="10.34" fill="#ef4137"/><rect x="84.79" y="163.37" width="10.34" height="10.34" fill="#ef4137"/><rect x="84.56" y="136.95" width="10.34" height="10.34" fill="#ef4137"/><rect x="84.79" y="110.29" width="10.34" height="10.34" fill="#ef4137"/></svg>