<svg id="31e58235-007c-4bea-8d74-5749f90bc32c" data-name="Layer 1" xmlns="http://www.w3.org/2000/svg" viewBox="0 0 289.75 147.98"><title>Hello World</title><rect x="73.76" width="161.99" height="107.99" fill="#38b34a"/><rect x="235.75" y="54" width="54" height="54" fill="#38b34a"/><rect x="75.6" y="93.98" width="29.18" height="54" fill="#38b34a"/><rect x="116.96" y="93.98" width="29.18" height="54" fill="#38b34a"/><rect x="158.55" y="93.98" width="29.18" height="54" fill="#38b34a"/><rect x="199.9" y="93.98" width="29.18" height="54" fill="#38b34a"/><rect x="73.76" width="28.72" height="28.72" fill="#046938"/><rect x="118.11" width="28.72" height="28.72" fill="#046938"/><rect x="162.68" width="28.72" height="28.72" fill="#046938"/><rect x="207.03" width="28.72" height="28.72" fill="#046938"/><rect x="73.76" y="55.61" width="28.72" height="28.72" fill="#046938"/><rect x="118.11" y="55.61" width="28.72" height="28.72" fill="#046938"/><rect x="162.68" y="55.61" width="28.72" height="28.72" fill="#046938"/><rect x="207.03" y="55.61" width="28.72" height="28.72" fill="#046938"/><rect x="19.76" y="90.07" width="54" height="17.92" fill="#38b34a"/><rect y="84.79" width="28.72" height="28.72" fill="#046938"/><rect x="247.24" y="54" width="42.51" height="17.23" fill="#046938"/><rect x="124.31" y="90.3" width="5.05" height="9.19" fill="#d0d2d3"/><rect x="116.04" y="90.3" width="5.05" height="9.19" fill="#d0d2d3"/><rect x="107.99" y="90.3" width="5.05" height="9.19" fill="#d0d2d3"/><rect x="140.62" y="90.3" width="5.05" height="9.19" fill="#d0d2d3"/><rect x="132.35" y="90.3" width="5.05" height="9.19" fill="#d0d2d3"/><rect x="99.72" y="90.3" width="5.05" height="9.19" fill="#d0d2d3"/><rect x="91.68" y="90.3" width="5.05" height="9.19" fill="#d0d2d3"/><rect x="83.41" y="90.3" width="5.05" height="9.19" fill="#d0d2d3"/><rect x="75.14" y="90.3" width="5.05" height="9.19" fill="#d0d2d3"/><rect x="189.8" y="90.3" width="5.05" height="9.19" fill="#d0d2d3"/><rect x="181.29" y="90.3" width="5.05" height="9.19" fill="#d0d2d3"/><rect x="173.25" y="90.3" width="5.05" height="9.19" fill="#d0d2d3"/><rect x="206.11" y="90.3" width="5.05" height="9.19" fill="#d0d2d3"/><rect x="197.84" y="90.3" width="5.05" height="9.19" fill="#d0d2d3"/><rect x="165.21" y="90.3" width="5.05" height="9.19" fill="#d0d2d3"/><rect x="156.94" y="90.3" width="5.05" height="9.19" fill="#d0d2d3"/><rect x="148.89" y="90.3" width="5.05" height="9.19" fill="#d0d2d3"/><rect x="230.47" y="90.3" width="5.05" height="9.19" fill="#d0d2d3"/><rect x="222.42" y="90.3" width="5.05" height="9.19" fill="#d0d2d3"/><rect x="214.38" y="90.3" width="5.05" height="9.19" fill="#d0d2d3"/><rect x="124.31" y="37.45" width="5.05" height="9.19" fill="#d0d2d3"/><rect x="116.04" y="37.45" width="5.05" height="9.19" fill="#d0d2d3"/><rect x="107.99" y="37.45" width="5.05" height="9.19" fill="#d0d2d3"/><rect x="140.62" y="37.45" width="5.05" height="9.19" fill="#d0d2d3"/><rect x="132.35" y="37.45" width="5.05" height="9.19" fill="#d0d2d3"/><rect x="99.72" y="37.45" width="5.05" height="9.19" fill="#d0d2d3"/><rect x="91.68" y="37.45" width="5.05" height="9.19" fill="#d0d2d3"/><rect x="83.41" y="37.45" width="5.05" height="9.19" fill="#d0d2d3"/><rect x="75.14" y="37.45" width="5.05" height="9.19" fill="#d0d2d3"/><rect x="189.8" y="37.45" width="5.05" height="9.19" fill="#d0d2d3"/><rect x="181.29" y="37.45" width="5.05" height="9.19" fill="#d0d2d3"/><rect x="173.25" y="37.45" width="5.05" height="9.19" fill="#d0d2d3"/><rect x="206.11" y="37.45" width="5.05" height="9.19" fill="#d0d2d3"/><rect x="197.84" y="37.45" width="5.05" height="9.19" fill="#d0d2d3"/><rect x="165.21" y="37.45" width="5.05" height="9.19" fill="#d0d2d3"/><rect x="156.94" y="37.45" width="5.05" height="9.19" fill="#d0d2d3"/><rect x="148.89" y="37.45" width="5.05" height="9.19" fill="#d0d2d3"/><rect x="230.47" y="37.45" width="5.05" height="9.19" fill="#d0d2d3"/><rect x="222.42" y="37.45" width="5.05" height="9.19" fill="#d0d2d3"/><rect x="214.38" y="37.45" width="5.05" height="9.19" fill="#d0d2d3"/><rect x="239.43" y="54" width="7.81" height="17.23" fill="#d0d2d3"/></svg>