<svg id="6ef24655-4204-4d31-9f8e-02c640e00dfd" data-name="Layer 1" xmlns="http://www.w3.org/2000/svg" viewBox="0 0 371.32 151.88"><title>Hello World</title><rect x="54.23" y="24.13" width="317.09" height="103.63" fill="#425ba9"/><rect x="314.1" y="61.12" width="7.81" height="7.12" fill="#223267"/><rect y="57.67" width="82.95" height="18.38" fill="#425ba9"/><rect y="24.36" width="18.38" height="82.95" fill="#425ba9"/><rect x="18.38" y="41.13" width="18.38" height="49.17" fill="#425ba9"/><rect x="165.9" width="21.6" height="24.36" fill="#425ba9"/><rect x="163.83" y="127.53" width="21.6" height="24.36" fill="#425ba9"/><rect x="125.69" y="78.35" width="3.45" height="3.22" fill="#fff"/><rect x="139.7" y="72.84" width="3.45" height="3.22" fill="#fff"/><rect x="145.22" y="89.84" width="3.45" height="3.22" fill="#fff"/><rect x="128.44" y="92.14" width="3.45" height="3.22" fill="#fff"/><rect x="157.86" y="77.2" width="3.45" height="3.22" fill="#fff"/><rect x="112.36" y="45.5" width="3.45" height="3.22" fill="#fff"/><rect x="126.38" y="39.98" width="3.45" height="3.22" fill="#fff"/><rect x="132.12" y="57.21" width="3.45" height="3.22" fill="#fff"/><rect x="115.12" y="59.51" width="3.45" height="3.22" fill="#fff"/><rect x="144.53" y="44.35" width="3.45" height="3.22" fill="#fff"/><rect x="75.37" y="71.46" width="3.45" height="3.22" fill="#fff"/><rect x="89.61" y="65.95" width="3.45" height="3.22" fill="#fff"/><rect x="95.13" y="82.95" width="3.45" height="3.22" fill="#fff"/><rect x="78.12" y="85.25" width="3.45" height="3.22" fill="#fff"/><rect x="107.54" y="70.08" width="3.45" height="3.22" fill="#fff"/><rect x="67.09" y="38.6" width="3.45" height="3.22" fill="#fff"/><rect x="81.11" y="33.09" width="3.45" height="3.22" fill="#fff"/><rect x="86.63" y="50.09" width="3.45" height="3.22" fill="#fff"/><rect x="69.85" y="52.62" width="3.45" height="3.22" fill="#fff"/><rect x="99.26" y="37.45" width="3.45" height="3.22" fill="#fff"/><rect x="199.45" y="46.41" width="3.45" height="3.22" fill="#fff"/><rect x="213.46" y="40.9" width="3.45" height="3.22" fill="#fff"/><rect x="218.98" y="57.9" width="3.45" height="3.22" fill="#fff"/><rect x="201.97" y="60.2" width="3.45" height="3.22" fill="#fff"/><rect x="231.61" y="45.27" width="3.45" height="3.22" fill="#fff"/><rect x="247.24" y="42.97" width="3.45" height="3.22" fill="#fff"/><rect x="261.26" y="37.45" width="3.45" height="3.22" fill="#fff"/><rect x="266.77" y="54.46" width="3.45" height="3.22" fill="#fff"/><rect x="249.77" y="56.75" width="3.45" height="3.22" fill="#fff"/><rect x="279.41" y="41.82" width="3.45" height="3.22" fill="#fff"/><rect x="154.18" y="39.52" width="3.45" height="3.22" fill="#fff"/><rect x="168.2" y="33.78" width="3.45" height="3.22" fill="#fff"/><rect x="173.71" y="51.01" width="3.45" height="3.22" fill="#fff"/><rect x="156.94" y="53.31" width="3.45" height="3.22" fill="#fff"/><rect x="186.35" y="38.14" width="3.45" height="3.22" fill="#fff"/><rect x="217.37" y="79.04" width="3.45" height="3.22" fill="#fff"/><rect x="231.38" y="73.53" width="3.45" height="3.22" fill="#fff"/><rect x="236.9" y="90.76" width="3.45" height="3.22" fill="#fff"/><rect x="220.13" y="93.06" width="3.45" height="3.22" fill="#fff"/><rect x="249.54" y="77.89" width="3.45" height="3.22" fill="#fff"/><rect x="172.1" y="72.15" width="3.45" height="3.22" fill="#fff"/><rect x="186.12" y="66.63" width="3.45" height="3.22" fill="#fff"/><rect x="191.63" y="83.87" width="3.45" height="3.22" fill="#fff"/><rect x="174.86" y="86.17" width="3.45" height="3.22" fill="#fff"/><rect x="204.27" y="71" width="3.45" height="3.22" fill="#fff"/><rect x="54.23" y="105.01" width="317.09" height="22.75" fill="#fff"/></svg>