<svg id="6a586fed-b44d-4247-84af-beff477ca758" data-name="Layer 1" xmlns="http://www.w3.org/2000/svg" viewBox="0 0 180.46 217.93"><title>Hello World</title><rect x="147.8" y="42.41" width="32.66" height="14.14" transform="translate(328.26 98.95) rotate(-180)" fill="#ffc809"/><rect x="85.15" width="70.93" height="70.93" transform="translate(241.23 70.93) rotate(-180)" fill="#231f20"/><rect x="116.46" y="24.1" width="11.36" height="11.36" transform="translate(244.27 59.57) rotate(-180)" fill="#f1f2f2"/><rect x="96.82" y="184.27" width="8.68" height="25.45" transform="translate(202.33 393.99) rotate(-180)" fill="#ef4136"/><rect x="96.82" y="209.72" width="21.37" height="5.54" transform="translate(215.02 424.97) rotate(-180)" fill="#ef4136"/><rect x="56.09" y="186.94" width="8.68" height="25.45" transform="translate(120.86 399.33) rotate(-180)" fill="#ef4136"/><rect x="56.09" y="212.39" width="21.37" height="5.54" transform="translate(133.55 430.32) rotate(-180)" fill="#ef4136"/><rect x="36.49" y="61.95" width="88.38" height="130.37" transform="translate(161.36 254.28) rotate(-180)" fill="#231f20"/><rect x="100.66" y="70.93" width="24.21" height="121.4" transform="translate(225.54 263.26) rotate(-180)" fill="#fff"/><rect x="125.23" y="85.92" width="20.63" height="61.5" transform="translate(313.9 103.33) rotate(135)" fill="#231f20"/><rect x="18.72" y="85.92" width="20.63" height="61.5" transform="translate(-32.93 219.71) rotate(-135)" fill="#231f20"/><rect x="100.66" y="70.93" width="24.21" height="11.36" transform="translate(225.54 153.22) rotate(-180)" fill="#ffc809"/><rect x="105.1" y="24.1" width="11.36" height="11.36" transform="translate(221.55 59.57) rotate(-180)" fill="#ffc809"/></svg>