<svg id="643460b3-2b83-4dc7-8188-c85b1e95001e" data-name="Layer 1" xmlns="http://www.w3.org/2000/svg" viewBox="0 0 341.68 84.56"><title>Hello World</title><rect x="105.7" y="9.42" width="138.1" height="56.52" fill="#9dba3c"/><rect x="209.33" y="58.13" width="20.45" height="25.51" fill="#9dba3c"/><rect x="136.26" y="58.13" width="20.45" height="25.51" fill="#9dba3c"/><rect y="9.65" width="105.7" height="16.31" fill="#9dba3c"/><rect x="235.29" y="9.42" width="105.47" height="27.8" fill="#9dba3c"/><rect x="236.21" y="40.21" width="105.47" height="25.05" fill="#9dba3c"/><rect x="317.55" width="22.98" height="9.42" fill="#9dba3c"/><rect x="280.56" width="22.98" height="9.42" fill="#9dba3c"/><rect x="193.7" y="16.31" width="22.98" height="9.42" fill="#466931"/><rect x="158.55" y="18.61" width="22.98" height="9.42" fill="#466931"/><rect x="124.77" y="18.61" width="22.98" height="9.42" fill="#466931"/><rect x="193.7" y="40.21" width="22.98" height="9.42" fill="#466931"/><rect x="158.55" y="42.51" width="22.98" height="9.42" fill="#466931"/><rect x="124.77" y="42.51" width="22.98" height="9.42" fill="#466931"/><rect x="173.25" y="58.13" width="20.45" height="25.51" fill="#9dba3c"/><rect x="105.7" y="59.05" width="20.45" height="25.51" fill="#9dba3c"/></svg>