<svg id="b887c901-45ca-41a3-abdd-45af8116f393" data-name="Layer 1" xmlns="http://www.w3.org/2000/svg" viewBox="0 0 202.2 226.33"><title>Hello World</title><rect x="62.96" y="59.74" width="86.17" height="132.81" fill="#f69320"/><rect x="34.01" y="59.51" width="50.78" height="114.89" fill="#eb2227"/><rect x="14.48" y="89.84" width="50.78" height="54.46" fill="#eb2227"/><rect x="95.13" y="0.46" width="54" height="59.97" fill="#f69320"/><rect x="109.37" width="92.83" height="54" fill="#f69320"/><rect x="142.69" y="87.77" width="36.07" height="19.53" fill="#f69320"/><rect x="142.69" y="59.97" width="36.07" height="19.53" fill="#f69320"/><rect x="0.23" y="174.63" width="79.73" height="17.92" fill="#f69320"/><rect y="152.57" width="17.92" height="39.75" fill="#f69320"/><rect x="62.96" y="206.8" width="36.07" height="19.53" fill="#f69320"/><rect x="62.96" y="174.63" width="17.92" height="39.75" fill="#f69320"/><rect x="114.43" y="206.8" width="36.07" height="19.53" fill="#f69320"/><rect x="114.43" y="174.4" width="17.92" height="39.75" fill="#f69320"/><rect x="122.01" y="172.33" width="10.34" height="10.34" fill="#ef4137"/><rect x="121.78" y="145.91" width="10.34" height="10.34" fill="#ef4137"/><rect x="121.78" y="119.25" width="10.34" height="10.34" fill="#ef4137"/><rect x="122.01" y="92.83" width="10.34" height="10.34" fill="#ef4137"/><rect x="102.94" y="159.23" width="10.34" height="10.34" fill="#ef4137"/><rect x="102.94" y="132.81" width="10.34" height="10.34" fill="#ef4137"/><rect x="102.94" y="106.16" width="10.34" height="10.34" fill="#ef4137"/><rect x="102.94" y="79.5" width="10.34" height="10.34" fill="#ef4137"/><rect x="85.02" y="174.4" width="10.34" height="10.34" fill="#ef4137"/><rect x="85.02" y="147.98" width="10.34" height="10.34" fill="#ef4137"/><rect x="85.02" y="121.32" width="10.34" height="10.34" fill="#ef4137"/><rect x="84.79" y="94.9" width="10.34" height="10.34" fill="#ef4137"/><rect x="34.24" y="73.53" width="21.37" height="4.14" fill="#be202e"/><rect x="34.24" y="83.87" width="21.37" height="4.14" fill="#be202e"/><rect x="14.71" y="93.98" width="41.13" height="4.14" fill="#be202e"/><rect x="14.71" y="104.32" width="41.13" height="4.14" fill="#be202e"/><rect x="14.71" y="114.66" width="41.13" height="4.14" fill="#be202e"/><rect x="14.71" y="125" width="41.13" height="4.14" fill="#be202e"/><rect x="14.71" y="135.11" width="41.13" height="4.14" fill="#be202e"/><rect x="34.24" y="145.45" width="21.37" height="4.14" fill="#be202e"/></svg>