<svg id="1f1e07d7-58f3-4f50-99ae-94a5bb6551e8" data-name="Layer 1" xmlns="http://www.w3.org/2000/svg" viewBox="0 0 269.99 176.7"><title>Hello World</title><rect x="54" y="28.72" width="161.99" height="107.99" fill="#38b34a"/><rect x="215.99" y="82.72" width="54" height="54" fill="#38b34a"/><rect x="55.84" y="122.7" width="29.18" height="54" fill="#38b34a"/><rect x="97.2" y="122.7" width="29.18" height="54" fill="#38b34a"/><rect x="138.78" y="122.7" width="29.18" height="54" fill="#38b34a"/><rect x="180.14" y="122.7" width="29.18" height="54" fill="#38b34a"/><rect x="15.16" y="94.9" width="5.05" height="23.9" fill="#d0d2d3"/><rect x="6.43" y="94.9" width="5.05" height="23.9" fill="#d0d2d3"/><rect x="54" width="28.72" height="28.72" fill="#e90e8b"/><rect x="25.28" y="40.21" width="28.72" height="28.72" fill="#e90e8b"/><rect x="25.28" y="79.96" width="28.72" height="28.72" fill="#e90e8b"/><rect x="98.34" width="28.72" height="28.72" fill="#e90e8b"/><rect x="142.92" width="28.72" height="28.72" fill="#e90e8b"/><rect x="187.27" width="28.72" height="28.72" fill="#e90e8b"/><rect x="215.99" y="42.51" width="28.72" height="28.72" fill="#e90e8b"/><rect y="118.79" width="54" height="17.92" fill="#38b34a"/><rect x="73.3" y="50.09" width="12.64" height="12.64" fill="#046938"/><rect x="105.7" y="50.09" width="12.64" height="12.64" fill="#046938"/><rect x="137.87" y="50.09" width="12.64" height="12.64" fill="#046938"/><rect x="170.26" y="50.09" width="12.64" height="12.64" fill="#046938"/><rect x="89.38" y="73.3" width="12.64" height="12.64" fill="#046938"/><rect x="121.78" y="73.3" width="12.64" height="12.64" fill="#046938"/><rect x="154.18" y="73.3" width="12.64" height="12.64" fill="#046938"/><rect x="186.35" y="73.3" width="12.64" height="12.64" fill="#046938"/><rect x="71" y="95.13" width="12.64" height="12.64" fill="#046938"/><rect x="103.17" y="95.13" width="12.64" height="12.64" fill="#046938"/><rect x="135.57" y="95.13" width="12.64" height="12.64" fill="#046938"/><rect x="167.74" y="95.13" width="12.64" height="12.64" fill="#046938"/></svg>