<svg id="4ba12a4a-0468-45a7-8a17-13bfba2a2a95" data-name="Layer 1" xmlns="http://www.w3.org/2000/svg" viewBox="0 0 480 360"><title>Hello World</title><rect width="478.99" height="120" fill="#f6eeb3"/><rect y="120" width="478.99" height="120" fill="#f2e790"/><rect y="240" width="478.99" height="120" fill="#dad183"/><rect y="317.22" width="478.99" height="42.78" fill="#e09641"/><rect x="300.63" y="212.98" width="14.91" height="5.66" fill="#a79d2a"/><rect x="285.06" y="218.64" width="46.05" height="5.66" fill="#a79d2a"/><rect x="274.51" y="224.3" width="67.15" height="5.66" fill="#a79d2a"/><rect x="261.77" y="229.96" width="92.64" height="5.66" fill="#a79d2a"/><rect x="299.76" y="235.62" width="16.65" height="84.8" fill="#c58979"/><rect x="402.84" y="235.62" width="7.41" height="4.47" fill="#a79d2a"/><rect x="395.1" y="240.09" width="22.89" height="4.47" fill="#a79d2a"/><rect x="389.86" y="244.55" width="33.38" height="4.47" fill="#a79d2a"/><rect x="383.52" y="249.02" width="46.05" height="4.47" fill="#a79d2a"/><rect x="402.41" y="253.49" width="8.28" height="66.93" fill="#c58979"/><rect x="219.93" y="235.7" width="7.41" height="4.47" fill="#a79d2a"/><rect x="212.19" y="240.17" width="22.89" height="4.47" fill="#a79d2a"/><rect x="206.95" y="244.64" width="33.38" height="4.47" fill="#a79d2a"/><rect x="200.61" y="249.1" width="46.05" height="4.47" fill="#a79d2a"/><rect x="219.5" y="253.57" width="8.28" height="66.93" fill="#c58979"/></svg>