<svg id="2a43de51-24bc-47ee-8770-fd2236db96c2" data-name="Layer 1" xmlns="http://www.w3.org/2000/svg" viewBox="0 0 1723.28 629.89"><title>Hello World</title><rect width="1723.28" height="209.96" fill="#5cc0e6"/><rect y="209.96" width="1723.28" height="209.96" fill="#00b0df"/><rect y="419.93" width="1723.28" height="209.96" fill="#0096c8"/><rect y="503.27" width="1723.28" height="126.62" fill="#c89881"/><rect x="1292.33" y="477.88" width="6.67" height="26" transform="translate(2591.33 981.76) rotate(180)" fill="#6cbe45"/><rect x="1282.67" y="468.21" width="6.67" height="26" transform="translate(804.79 1767.21) rotate(-90)" fill="#6cbe45"/><rect x="1282.67" y="448.88" width="6.67" height="26" transform="translate(1747.88 -824.12) rotate(90)" fill="#6cbe45"/><rect x="1273" y="458.55" width="6.67" height="26" transform="translate(2552.67 943.09) rotate(180)" fill="#6cbe45"/><rect x="1292.33" y="439.21" width="6.67" height="26" transform="translate(2591.33 904.42) rotate(180)" fill="#6cbe45"/><rect x="1282.67" y="429.55" width="6.67" height="26" transform="translate(843.45 1728.55) rotate(-90)" fill="#6cbe45"/><rect x="1282.67" y="410.21" width="6.67" height="26" transform="translate(1709.21 -862.79) rotate(90)" fill="#6cbe45"/><rect x="1273" y="419.88" width="6.67" height="26" transform="translate(2552.67 865.76) rotate(180)" fill="#6cbe45"/><rect x="1292.33" y="400.55" width="6.67" height="26" transform="translate(2591.33 827.09) rotate(180)" fill="#6cbe45"/><rect x="1282.67" y="390.88" width="6.67" height="26" transform="translate(882.12 1689.88) rotate(-90)" fill="#6cbe45"/><rect x="1282.67" y="371.55" width="6.67" height="26" transform="translate(1670.55 -901.45) rotate(90)" fill="#6cbe45"/><rect x="1273" y="381.21" width="6.67" height="26" transform="translate(2552.67 788.42) rotate(180)" fill="#6cbe45"/><rect x="1329" y="477.88" width="6.67" height="26" transform="translate(2664.67 981.76) rotate(180)" fill="#6cbe45"/><rect x="1319.33" y="468.21" width="6.67" height="26" transform="translate(841.45 1803.88) rotate(-90)" fill="#6cbe45"/><rect x="1319.33" y="448.88" width="6.67" height="26" transform="translate(1784.55 -860.79) rotate(90)" fill="#6cbe45"/><rect x="1309.67" y="458.55" width="6.67" height="26" transform="translate(2626 943.09) rotate(180)" fill="#6cbe45"/><rect x="1329" y="439.21" width="6.67" height="26" transform="translate(2664.67 904.42) rotate(180)" fill="#6cbe45"/><rect x="1319.33" y="429.55" width="6.67" height="26" transform="translate(880.12 1765.21) rotate(-90)" fill="#6cbe45"/><rect x="1319.33" y="410.21" width="6.67" height="26" transform="translate(1745.88 -899.45) rotate(90)" fill="#6cbe45"/><rect x="1309.67" y="419.88" width="6.67" height="26" transform="translate(2626 865.76) rotate(180)" fill="#6cbe45"/><rect x="1329" y="400.55" width="6.67" height="26" transform="translate(2664.67 827.09) rotate(180)" fill="#6cbe45"/><rect x="1319.33" y="390.88" width="6.67" height="26" transform="translate(918.79 1726.55) rotate(-90)" fill="#6cbe45"/><rect x="1319.33" y="371.55" width="6.67" height="26" transform="translate(1707.21 -938.12) rotate(90)" fill="#6cbe45"/><rect x="1309.67" y="381.21" width="6.67" height="26" transform="translate(2626 788.42) rotate(180)" fill="#6cbe45"/><rect x="1366.33" y="477.88" width="6.67" height="26" transform="translate(2739.33 981.76) rotate(180)" fill="#6cbe45"/><rect x="1356.67" y="468.21" width="6.67" height="26" transform="translate(878.79 1841.21) rotate(-90)" fill="#6cbe45"/><rect x="1356.67" y="448.88" width="6.67" height="26" transform="translate(1821.88 -898.12) rotate(90)" fill="#6cbe45"/><rect x="1347" y="458.55" width="6.67" height="26" transform="translate(2700.67 943.09) rotate(180)" fill="#6cbe45"/><rect x="1366.33" y="439.21" width="6.67" height="26" transform="translate(2739.33 904.42) rotate(180)" fill="#6cbe45"/><rect x="1356.67" y="429.55" width="6.67" height="26" transform="translate(917.45 1802.55) rotate(-90)" fill="#6cbe45"/><rect x="1356.67" y="410.21" width="6.67" height="26" transform="translate(1783.21 -936.79) rotate(90)" fill="#6cbe45"/><rect x="1347" y="419.88" width="6.67" height="26" transform="translate(2700.67 865.76) rotate(180)" fill="#6cbe45"/><rect x="1366.33" y="400.55" width="6.67" height="26" transform="translate(2739.33 827.09) rotate(180)" fill="#6cbe45"/><rect x="1356.67" y="390.88" width="6.67" height="26" transform="translate(956.12 1763.88) rotate(-90)" fill="#6cbe45"/><rect x="1356.67" y="371.55" width="6.67" height="26" transform="translate(1744.55 -975.45) rotate(90)" fill="#6cbe45"/><rect x="1347" y="381.21" width="6.67" height="26" transform="translate(2700.67 788.42) rotate(180)" fill="#6cbe45"/><rect x="1252.25" y="61.69" width="8.63" height="8.63" fill="#86d4ee"/><rect x="1184.82" y="80.53" width="8.63" height="8.63" fill="#86d4ee"/><rect x="1387.1" y="99.37" width="8.63" height="8.63" fill="#86d4ee"/><rect x="1049.97" y="118.21" width="8.63" height="8.63" fill="#86d4ee"/><rect x="1521.96" y="137.05" width="8.63" height="8.63" fill="#86d4ee"/><rect x="1454.53" y="155.89" width="8.63" height="8.63" fill="#86d4ee"/><rect x="1589.38" y="174.73" width="8.63" height="8.63" fill="#86d4ee"/><rect x="1319.68" y="193.58" width="8.63" height="8.63" fill="#86d4ee"/><rect x="982.54" y="212.42" width="8.63" height="8.63" fill="#86d4ee"/><rect x="915.11" y="231.26" width="8.63" height="8.63" fill="#86d4ee"/><rect x="1117.4" y="250.1" width="8.63" height="8.63" fill="#86d4ee"/><rect x="780.26" y="268.94" width="8.63" height="8.63" fill="#86d4ee"/><rect x="712.83" y="287.78" width="8.63" height="8.63" fill="#86d4ee"/><rect x="645.41" y="306.63" width="8.63" height="8.63" fill="#86d4ee"/><rect x="847.69" y="325.47" width="8.63" height="8.63" fill="#86d4ee"/><rect x="510.55" y="344.31" width="8.63" height="8.63" fill="#86d4ee"/><rect x="443.13" y="363.15" width="8.63" height="8.63" fill="#86d4ee"/><rect x="375.7" y="381.99" width="8.63" height="8.63" fill="#86d4ee"/><rect x="577.98" y="400.83" width="8.63" height="8.63" fill="#86d4ee"/><rect x="308.27" y="419.67" width="8.63" height="8.63" fill="#86d4ee"/><rect x="173.42" y="438.52" width="8.63" height="8.63" fill="#86d4ee"/><rect x="105.99" y="438.52" width="8.63" height="8.63" fill="#86d4ee"/><rect x="240.85" y="438.52" width="8.63" height="8.63" fill="#86d4ee"/><rect x="38.57" y="438.52" width="8.63" height="8.63" fill="#86d4ee"/><rect x="475.82" y="172.62" width="609.76" height="199.28" fill="#425ba9"/><rect x="975.56" y="243.76" width="15.02" height="13.7" fill="#223267"/><rect x="371.55" y="237.13" width="159.51" height="35.35" fill="#425ba9"/><rect x="371.55" y="155.54" width="35.35" height="159.51" fill="#425ba9"/><rect x="406.89" y="187.8" width="35.35" height="94.56" fill="#425ba9"/><rect x="690.56" y="126.22" width="41.53" height="46.84" fill="#425ba9"/><rect x="686.59" y="371.45" width="41.53" height="46.84" fill="#425ba9"/><rect x="613.24" y="276.9" width="6.63" height="6.19" fill="#fff"/><rect x="640.19" y="266.29" width="6.63" height="6.19" fill="#fff"/><rect x="650.8" y="298.99" width="6.63" height="6.19" fill="#fff"/><rect x="618.54" y="303.41" width="6.63" height="6.19" fill="#fff"/><rect x="675.1" y="274.69" width="6.63" height="6.19" fill="#fff"/><rect x="587.61" y="213.71" width="6.63" height="6.19" fill="#fff"/><rect x="614.57" y="203.11" width="6.63" height="6.19" fill="#fff"/><rect x="625.61" y="236.25" width="6.63" height="6.19" fill="#fff"/><rect x="592.92" y="240.66" width="6.63" height="6.19" fill="#fff"/><rect x="649.47" y="211.5" width="6.63" height="6.19" fill="#fff"/><rect x="516.48" y="263.64" width="6.63" height="6.19" fill="#fff"/><rect x="543.87" y="253.04" width="6.63" height="6.19" fill="#fff"/><rect x="554.47" y="285.73" width="6.63" height="6.19" fill="#fff"/><rect x="521.78" y="290.15" width="6.63" height="6.19" fill="#fff"/><rect x="578.33" y="260.99" width="6.63" height="6.19" fill="#fff"/><rect x="500.57" y="200.46" width="6.63" height="6.19" fill="#fff"/><rect x="527.52" y="189.85" width="6.63" height="6.19" fill="#fff"/><rect x="538.13" y="222.55" width="6.63" height="6.19" fill="#fff"/><rect x="505.87" y="227.41" width="6.63" height="6.19" fill="#fff"/><rect x="562.43" y="198.25" width="6.63" height="6.19" fill="#fff"/><rect x="755.08" y="215.48" width="6.63" height="6.19" fill="#fff"/><rect x="782.03" y="204.87" width="6.63" height="6.19" fill="#fff"/><rect x="792.63" y="237.57" width="6.63" height="6.19" fill="#fff"/><rect x="759.93" y="241.99" width="6.63" height="6.19" fill="#fff"/><rect x="816.94" y="213.27" width="6.63" height="6.19" fill="#fff"/><rect x="846.98" y="208.85" width="6.63" height="6.19" fill="#fff"/><rect x="873.93" y="198.25" width="6.63" height="6.19" fill="#fff"/><rect x="884.54" y="230.94" width="6.63" height="6.19" fill="#fff"/><rect x="851.84" y="235.36" width="6.63" height="6.19" fill="#fff"/><rect x="908.84" y="206.64" width="6.63" height="6.19" fill="#fff"/><rect x="668.03" y="202.22" width="6.63" height="6.19" fill="#fff"/><rect x="694.98" y="191.18" width="6.63" height="6.19" fill="#fff"/><rect x="705.59" y="224.32" width="6.63" height="6.19" fill="#fff"/><rect x="673.33" y="228.73" width="6.63" height="6.19" fill="#fff"/><rect x="729.89" y="199.57" width="6.63" height="6.19" fill="#fff"/><rect x="789.54" y="278.22" width="6.63" height="6.19" fill="#fff"/><rect x="816.49" y="267.62" width="6.63" height="6.19" fill="#fff"/><rect x="827.1" y="300.76" width="6.63" height="6.19" fill="#fff"/><rect x="794.84" y="305.17" width="6.63" height="6.19" fill="#fff"/><rect x="851.4" y="276.01" width="6.63" height="6.19" fill="#fff"/><rect x="702.49" y="264.97" width="6.63" height="6.19" fill="#fff"/><rect x="729.45" y="254.36" width="6.63" height="6.19" fill="#fff"/><rect x="740.05" y="287.5" width="6.63" height="6.19" fill="#fff"/><rect x="707.8" y="291.92" width="6.63" height="6.19" fill="#fff"/><rect x="764.35" y="262.76" width="6.63" height="6.19" fill="#fff"/><rect x="475.82" y="328.15" width="609.76" height="43.74" fill="#fff"/></svg>