<svg id="c263fc04-7343-492a-ba68-0cd7ebe41e81" data-name="Layer 1" xmlns="http://www.w3.org/2000/svg" viewBox="0 0 1723.28 629.89"><title>Hello World</title><rect width="1723.28" height="209.96" fill="#909139"/><rect y="209.96" width="1723.28" height="209.96" fill="#747500"/><rect y="419.93" width="1723.28" height="209.96" fill="#616300"/><rect y="503.27" width="1723.28" height="126.62" fill="#c89881"/><rect x="1579" y="547.88" width="28" height="28" fill="#ffcf62"/><rect x="1494.83" y="547.88" width="28" height="28" fill="#ffcf62"/><rect x="1410.66" y="547.88" width="28" height="28" fill="#ffcf62"/><rect x="1326.49" y="547.88" width="28" height="28" fill="#ffcf62"/><rect x="857.34" y="266.41" width="131.96" height="203.39" fill="#f69320"/><rect x="829.54" y="377.25" width="70.38" height="92.19" fill="#f69320"/><rect x="906.6" y="175.27" width="82.69" height="91.84" fill="#f69320"/><rect x="928.07" y="175.27" width="142.16" height="82.69" fill="#f69320"/><rect x="979.09" y="309.34" width="55.25" height="29.91" fill="#f69320"/><rect x="979.09" y="266.76" width="55.25" height="29.91" fill="#f69320"/><rect x="760.92" y="442" width="122.11" height="27.45" fill="#f69320"/><rect x="760.57" y="408.22" width="27.45" height="60.88" fill="#f69320"/><rect x="856.99" y="490.56" width="55.25" height="29.91" fill="#f69320"/><rect x="856.99" y="441.29" width="27.45" height="60.88" fill="#f69320"/><rect x="935.46" y="490.56" width="55.25" height="29.91" fill="#f69320"/><rect x="935.46" y="441.29" width="27.45" height="60.88" fill="#f69320"/><rect x="947.07" y="438.83" width="15.84" height="15.84" fill="#ef4137"/><rect x="947.42" y="398.36" width="15.84" height="15.84" fill="#ef4137"/><rect x="947.07" y="357.55" width="15.84" height="15.84" fill="#ef4137"/><rect x="947.42" y="316.73" width="15.84" height="15.84" fill="#ef4137"/><rect x="918.21" y="418.77" width="15.84" height="15.84" fill="#ef4137"/><rect x="918.21" y="377.95" width="15.84" height="15.84" fill="#ef4137"/><rect x="918.21" y="337.49" width="15.84" height="15.84" fill="#ef4137"/><rect x="918.21" y="296.67" width="15.84" height="15.84" fill="#ef4137"/><rect x="890.77" y="442" width="15.84" height="15.84" fill="#ef4137"/><rect x="890.41" y="401.53" width="15.84" height="15.84" fill="#ef4137"/><rect x="890.77" y="360.71" width="15.84" height="15.84" fill="#ef4137"/><rect x="890.41" y="319.89" width="15.84" height="15.84" fill="#ef4137"/><rect x="253.35" y="412.11" width="27.71" height="91.01" fill="#eca88b"/><rect x="254.79" y="407.16" width="24.82" height="6.07" transform="translate(534.41 820.4) rotate(180)" fill="#009e91"/><rect x="254.79" y="418.43" width="24.82" height="6.07" transform="translate(534.41 842.93) rotate(180)" fill="#e99879"/><rect x="254.79" y="430" width="24.82" height="6.07" transform="translate(534.41 866.07) rotate(180)" fill="#e99879"/><rect x="254.79" y="441.57" width="24.82" height="6.07" transform="translate(534.41 889.21) rotate(180)" fill="#e99879"/><rect x="254.79" y="453.14" width="24.82" height="6.07" transform="translate(534.41 912.35) rotate(180)" fill="#e99879"/><rect x="254.79" y="464.71" width="24.82" height="6.07" transform="translate(534.41 935.5) rotate(180)" fill="#e99879"/><rect x="254.79" y="476.28" width="24.82" height="6.07" transform="translate(534.41 958.64) rotate(180)" fill="#e99879"/><rect x="228.88" y="401.09" width="76.66" height="6.07" transform="translate(534.41 808.25) rotate(180)" fill="#009e91"/><rect x="170.22" y="365.41" width="49.42" height="9.42" transform="translate(-175.19 565.05) rotate(-90)" fill="#009e91"/><rect x="314.89" y="365.41" width="49.42" height="9.42" transform="translate(-30.52 709.71) rotate(-90)" fill="#009e91"/><rect x="293.67" y="371.49" width="49.42" height="9.42" transform="translate(-57.82 694.58) rotate(-90)" fill="#009e91"/><rect x="276.11" y="376.85" width="49.42" height="9.42" transform="translate(-80.74 682.38) rotate(-90)" fill="#009e91"/><rect x="208.88" y="377.9" width="49.42" height="9.42" transform="translate(-149.02 616.2) rotate(-90)" fill="#009e91"/><rect x="191.32" y="371.49" width="49.42" height="9.42" transform="translate(-160.17 592.24) rotate(-90)" fill="#009e91"/><rect x="211.32" y="395.01" width="111.77" height="6.07" transform="translate(534.41 796.1) rotate(180)" fill="#009e91"/><rect x="190.1" y="388.94" width="154.21" height="6.07" transform="translate(534.41 783.95) rotate(180)" fill="#009e91"/><rect x="258.5" y="367.47" width="16.81" height="21.47" fill="#f36c42"/><rect x="425.87" y="447.31" width="16.89" height="55.46" fill="#eca88b"/><rect x="426.75" y="444.3" width="15.13" height="3.7" transform="translate(868.62 892.3) rotate(180)" fill="#009e91"/><rect x="426.75" y="451.16" width="15.13" height="3.7" transform="translate(868.62 906.03) rotate(180)" fill="#e99879"/><rect x="426.75" y="458.21" width="15.13" height="3.7" transform="translate(868.62 920.13) rotate(180)" fill="#e99879"/><rect x="426.75" y="465.27" width="15.13" height="3.7" transform="translate(868.62 934.23) rotate(180)" fill="#e99879"/><rect x="426.75" y="472.32" width="15.13" height="3.7" transform="translate(868.62 948.34) rotate(180)" fill="#e99879"/><rect x="426.75" y="479.37" width="15.13" height="3.7" transform="translate(868.62 962.44) rotate(180)" fill="#e99879"/><rect x="426.75" y="486.42" width="15.13" height="3.7" transform="translate(868.62 976.55) rotate(180)" fill="#e99879"/><rect x="410.95" y="440.6" width="46.72" height="3.7" transform="translate(868.62 884.89) rotate(180)" fill="#009e91"/><rect x="375.2" y="418.85" width="30.12" height="5.74" transform="translate(-31.46 811.98) rotate(-90)" fill="#009e91"/><rect x="463.37" y="418.85" width="30.12" height="5.74" transform="translate(56.71 900.15) rotate(-90)" fill="#009e91"/><rect x="450.44" y="422.56" width="30.12" height="5.74" transform="translate(40.07 890.93) rotate(-90)" fill="#009e91"/><rect x="439.74" y="425.82" width="30.12" height="5.74" transform="translate(26.1 883.49) rotate(-90)" fill="#009e91"/><rect x="398.76" y="426.46" width="30.12" height="5.74" transform="translate(-15.51 843.16) rotate(-90)" fill="#009e91"/><rect x="388.06" y="422.56" width="30.12" height="5.74" transform="translate(-22.31 828.55) rotate(-90)" fill="#009e91"/><rect x="400.25" y="436.89" width="68.12" height="3.7" transform="translate(868.62 877.49) rotate(180)" fill="#009e91"/><rect x="387.32" y="433.19" width="93.98" height="3.7" transform="translate(868.62 870.08) rotate(180)" fill="#009e91"/><rect x="429" y="420.11" width="10.25" height="13.08" fill="#f36c42"/></svg>