<svg id="4d957674-f656-45bf-a243-b2e2fa104dc7" data-name="Layer 1" xmlns="http://www.w3.org/2000/svg" viewBox="0 0 310.89 150.73"><title>Hello World</title><rect y="0.23" width="187.73" height="90.53" fill="#bb742b"/><rect x="129.13" y="73.76" width="27.34" height="58.36" fill="#bb742b"/><rect y="71.46" width="29.18" height="60.66" fill="#bb742b"/><rect x="147.75" y="132.12" width="8.73" height="18.61" fill="#fbf5e6"/><rect x="134.19" y="132.12" width="8.73" height="18.61" fill="#fbf5e6"/><rect x="19.99" y="132.12" width="8.73" height="18.61" fill="#fbf5e6"/><rect x="3.91" y="132.12" width="8.73" height="18.61" fill="#fbf5e6"/><rect x="142.46" y="12.87" width="5.06" height="23.67" fill="#855422"/><rect x="131.2" y="12.87" width="5.06" height="23.67" fill="#855422"/><rect x="120.4" y="12.87" width="5.06" height="23.67" fill="#855422"/><rect x="109.37" y="12.87" width="5.06" height="23.67" fill="#855422"/><rect x="96.97" y="12.87" width="5.06" height="23.67" fill="#855422"/><rect x="85.94" y="12.87" width="5.06" height="23.67" fill="#855422"/><rect x="75.83" y="12.87" width="5.06" height="23.67" fill="#855422"/><rect x="64.57" y="12.87" width="5.06" height="23.67" fill="#855422"/><rect x="165.9" width="144.99" height="144.99" fill="#bb742b"/><rect x="181.06" y="15.4" width="113.74" height="113.74" fill="#ffe1bd"/><rect x="255.28" y="43.89" width="32.86" height="9.88" fill="#bb742b"/><rect x="193.47" y="43.89" width="32.86" height="9.88" fill="#bb742b"/><rect x="268.61" y="66.18" width="5.28" height="5.28" fill="#bb742b"/><rect x="204.96" y="63.65" width="5.06" height="5.06" fill="#bb742b"/><rect x="231.38" y="64.8" width="15.4" height="15.4" fill="#bb742b"/></svg>