<svg id="c7cf371b-846a-4e3e-846d-01cd7026f9e1" data-name="Layer 1" xmlns="http://www.w3.org/2000/svg" viewBox="0 0 202.2 225.41"><title>Hello World</title><rect x="63.19" y="59.51" width="86.17" height="132.81" fill="#f69320"/><rect x="45.04" y="131.89" width="45.96" height="60.2" fill="#f69320"/><rect x="95.36" width="54" height="59.97" fill="#f69320"/><rect x="109.37" width="92.83" height="54" fill="#f69320"/><rect x="142.69" y="87.54" width="36.07" height="19.53" fill="#f69320"/><rect x="142.69" y="59.74" width="36.07" height="19.53" fill="#f69320"/><rect x="0.23" y="174.17" width="79.73" height="17.92" fill="#f69320"/><rect y="152.11" width="17.92" height="39.75" fill="#f69320"/><rect x="62.96" y="205.88" width="36.07" height="19.53" fill="#f69320"/><rect x="62.96" y="173.71" width="17.92" height="39.75" fill="#f69320"/><rect x="114.2" y="205.88" width="36.07" height="19.53" fill="#f69320"/><rect x="114.2" y="173.71" width="17.92" height="39.75" fill="#f69320"/><rect x="121.78" y="172.1" width="10.34" height="10.34" fill="#ef4137"/><rect x="122.01" y="145.68" width="10.34" height="10.34" fill="#ef4137"/><rect x="121.78" y="119.02" width="10.34" height="10.34" fill="#ef4137"/><rect x="122.01" y="92.37" width="10.34" height="10.34" fill="#ef4137"/><rect x="102.94" y="159" width="10.34" height="10.34" fill="#ef4137"/><rect x="102.94" y="132.35" width="10.34" height="10.34" fill="#ef4137"/><rect x="102.94" y="105.93" width="10.34" height="10.34" fill="#ef4137"/><rect x="102.94" y="79.27" width="10.34" height="10.34" fill="#ef4137"/><rect x="85.02" y="174.17" width="10.34" height="10.34" fill="#ef4137"/><rect x="84.79" y="147.75" width="10.34" height="10.34" fill="#ef4137"/><rect x="85.02" y="121.09" width="10.34" height="10.34" fill="#ef4137"/><rect x="84.79" y="94.44" width="10.34" height="10.34" fill="#ef4137"/></svg>