<svg id="7c26aecb-36d4-4e42-ba0e-e0d29cadb98c" data-name="Layer 1" xmlns="http://www.w3.org/2000/svg" viewBox="0 0 308.59 139.7"><title>Hello World</title><rect x="78.58" y="9.88" width="125.46" height="94.44" fill="#fcee1f"/><rect x="162.22" y="91.22" width="16.54" height="47.1" fill="#fcee1f"/><rect x="133.04" y="91.22" width="16.54" height="47.1" fill="#fcee1f"/><rect x="103.17" y="91.22" width="16.54" height="47.1" fill="#fcee1f"/><rect x="78.58" y="92.6" width="16.54" height="47.1" fill="#fcee1f"/><rect x="54" y="9.88" width="24.59" height="14.71" fill="#fcee1f"/><rect x="47.56" y="9.88" width="12.18" height="82.26" fill="#fcee1f"/><rect y="79.73" width="59.97" height="12.18" fill="#fcee1f"/><rect x="196.23" y="9.88" width="112.36" height="89.84" fill="#fcee1f"/><rect x="284" width="24.59" height="10.11" fill="#fcee1f"/><rect x="196.23" width="24.59" height="10.11" fill="#fcee1f"/><rect x="281.94" y="88.23" width="4.6" height="5.06" fill="#603a17"/><rect x="231.15" y="80.88" width="4.6" height="5.06" fill="#603a17"/><rect x="231.15" y="88.23" width="4.6" height="5.06" fill="#603a17"/><rect x="281.94" y="80.88" width="4.6" height="5.06" fill="#603a17"/><rect x="88.46" y="21.6" width="13.1" height="11.03" fill="#603a17"/><rect x="126.38" y="19.07" width="13.1" height="11.03" fill="#603a17"/><rect x="99.95" y="43.89" width="13.1" height="11.03" fill="#603a17"/><rect x="142.92" y="47.33" width="13.1" height="11.03" fill="#603a17"/><rect x="114.2" y="67.78" width="13.1" height="11.03" fill="#603a17"/><rect x="167.28" y="25.28" width="13.1" height="11.03" fill="#603a17"/><rect x="175.09" y="54.69" width="13.1" height="11.03" fill="#603a17"/><rect x="154.18" y="73.3" width="13.1" height="11.03" fill="#603a17"/><rect x="181.52" y="85.71" width="13.1" height="11.03" fill="#603a17"/><rect x="142.92" y="107.31" width="6.43" height="7.58" fill="#402414"/><rect x="142.92" y="120.17" width="6.43" height="7.58" fill="#402414"/><rect x="113.05" y="107.31" width="6.43" height="7.58" fill="#402414"/><rect x="113.05" y="120.17" width="6.43" height="7.58" fill="#402414"/><rect x="53.77" y="28.03" width="6.43" height="7.58" fill="#402414"/><rect x="53.77" y="41.13" width="6.43" height="7.58" fill="#402414"/><rect x="53.31" y="53.77" width="6.43" height="7.58" fill="#402414"/><rect x="53.31" y="66.86" width="6.43" height="7.58" fill="#402414"/><rect x="47.79" y="85.02" width="7.58" height="6.43" fill="#402414"/><rect x="34.7" y="85.02" width="7.58" height="6.43" fill="#402414"/><rect x="22.52" y="85.02" width="7.58" height="6.43" fill="#402414"/><rect x="9.42" y="85.02" width="7.58" height="6.43" fill="#402414"/><rect x="88.46" y="107.31" width="6.43" height="7.58" fill="#402414"/><rect x="88.46" y="120.17" width="6.43" height="7.58" fill="#402414"/><rect x="171.87" y="107.31" width="6.43" height="7.58" fill="#402414"/><rect x="171.87" y="120.17" width="6.43" height="7.58" fill="#402414"/><rect x="259.19" y="22.52" width="15.17" height="7.58" fill="#603a17"/><rect x="247.47" y="33.78" width="15.17" height="7.58" fill="#603a17"/><rect x="234.37" y="22.52" width="15.17" height="7.58" fill="#603a17"/><rect x="228.86" y="49.4" width="7.81" height="7.81" fill="#3b2416"/><rect x="280.1" y="49.4" width="7.81" height="7.81" fill="#3b2416"/><rect x="254.36" y="60.2" width="7.81" height="7.81" fill="#3b2416"/><rect x="231.15" y="55.84" width="1.61" height="19.07" fill="#3b2416"/><rect x="283.31" y="55.84" width="1.61" height="19.07" fill="#3b2416"/></svg>