<svg id="ffb7f79f-7ad6-4dce-8214-d0fe8ce2ad03" data-name="Layer 1" xmlns="http://www.w3.org/2000/svg" viewBox="0 0 1723.28 629.89"><title>Hello World</title><rect width="1723.28" height="209.96" fill="#ebf7fe"/><rect y="209.96" width="1723.28" height="209.96" fill="#d9f1fd"/><rect y="419.93" width="1723.28" height="209.96" fill="#bfe7fb"/><rect y="503.27" width="1723.28" height="126.62" fill="#f8f8f9"/><rect x="127" y="95.88" width="107.56" height="107.56" fill="#f6f9e4"/><rect x="1225.95" y="214.97" width="17.3" height="16.76" fill="#009e91"/><rect x="1207.89" y="231.73" width="53.42" height="16.76" fill="#009e91"/><rect x="1195.65" y="248.49" width="77.89" height="16.76" fill="#009e91"/><rect x="1180.86" y="265.24" width="107.47" height="16.76" fill="#009e91"/><rect x="1222.66" y="339.71" width="23.87" height="23.87" fill="#009e91"/><rect x="1197.74" y="363.58" width="73.71" height="23.87" fill="#009e91"/><rect x="1180.86" y="387.45" width="107.47" height="23.87" fill="#009e91"/><rect x="1160.46" y="411.31" width="148.27" height="23.87" fill="#009e91"/><rect x="1224.08" y="269.53" width="21.04" height="21.04" fill="#009e91"/><rect x="1202.11" y="290.57" width="64.98" height="21.04" fill="#009e91"/><rect x="1187.22" y="311.61" width="94.74" height="21.04" fill="#009e91"/><rect x="1169.24" y="332.65" width="130.72" height="21.04" fill="#009e91"/><rect x="1209.96" y="435.18" width="49.28" height="97.83" fill="#c58979"/><rect x="1402.01" y="214.97" width="17.3" height="16.76" fill="#009e91"/><rect x="1383.95" y="231.73" width="53.42" height="16.76" fill="#009e91"/><rect x="1371.71" y="248.49" width="77.89" height="16.76" fill="#009e91"/><rect x="1356.93" y="265.24" width="107.47" height="16.76" fill="#009e91"/><rect x="1398.73" y="339.71" width="23.87" height="23.87" fill="#009e91"/><rect x="1373.81" y="363.58" width="73.71" height="23.87" fill="#009e91"/><rect x="1356.93" y="387.45" width="107.47" height="23.87" fill="#009e91"/><rect x="1336.52" y="411.31" width="148.27" height="23.87" fill="#009e91"/><rect x="1400.14" y="269.53" width="21.04" height="21.04" fill="#009e91"/><rect x="1378.17" y="290.57" width="64.98" height="21.04" fill="#009e91"/><rect x="1363.29" y="311.61" width="94.74" height="21.04" fill="#009e91"/><rect x="1345.3" y="332.65" width="130.72" height="21.04" fill="#009e91"/><rect x="1386.02" y="435.18" width="49.28" height="97.83" fill="#c58979"/><rect x="872.61" y="214.97" width="17.3" height="16.76" fill="#009e91"/><rect x="854.54" y="231.73" width="53.42" height="16.76" fill="#009e91"/><rect x="842.31" y="248.49" width="77.89" height="16.76" fill="#009e91"/><rect x="827.52" y="265.24" width="107.47" height="16.76" fill="#009e91"/><rect x="869.32" y="339.71" width="23.87" height="23.87" fill="#009e91"/><rect x="844.4" y="363.58" width="73.71" height="23.87" fill="#009e91"/><rect x="827.52" y="387.45" width="107.47" height="23.87" fill="#009e91"/><rect x="807.12" y="411.31" width="148.27" height="23.87" fill="#009e91"/><rect x="870.74" y="269.53" width="21.04" height="21.04" fill="#009e91"/><rect x="848.77" y="290.57" width="64.98" height="21.04" fill="#009e91"/><rect x="833.88" y="311.61" width="94.74" height="21.04" fill="#009e91"/><rect x="815.9" y="332.65" width="130.72" height="21.04" fill="#009e91"/><rect x="856.62" y="435.18" width="49.28" height="97.83" fill="#c58979"/><rect x="1048.67" y="214.97" width="17.3" height="16.76" fill="#009e91"/><rect x="1030.61" y="231.73" width="53.42" height="16.76" fill="#009e91"/><rect x="1018.37" y="248.49" width="77.89" height="16.76" fill="#009e91"/><rect x="1003.59" y="265.24" width="107.47" height="16.76" fill="#009e91"/><rect x="1045.39" y="339.71" width="23.87" height="23.87" fill="#009e91"/><rect x="1020.47" y="363.58" width="73.71" height="23.87" fill="#009e91"/><rect x="1003.59" y="387.45" width="107.47" height="23.87" fill="#009e91"/><rect x="983.18" y="411.31" width="148.27" height="23.87" fill="#009e91"/><rect x="1046.8" y="269.53" width="21.04" height="21.04" fill="#009e91"/><rect x="1024.83" y="290.57" width="64.98" height="21.04" fill="#009e91"/><rect x="1009.95" y="311.61" width="94.74" height="21.04" fill="#009e91"/><rect x="991.96" y="332.65" width="130.72" height="21.04" fill="#009e91"/><rect x="1032.68" y="435.18" width="49.28" height="97.83" fill="#c58979"/><rect x="1241.68" y="52.01" width="8.63" height="8.63" fill="#fff"/><rect x="1174.26" y="70.85" width="8.63" height="8.63" fill="#fff"/><rect x="1376.54" y="89.69" width="8.63" height="8.63" fill="#fff"/><rect x="1039.4" y="108.53" width="8.63" height="8.63" fill="#fff"/><rect x="1511.39" y="127.37" width="8.63" height="8.63" fill="#fff"/><rect x="1443.97" y="146.21" width="8.63" height="8.63" fill="#fff"/><rect x="1578.82" y="165.06" width="8.63" height="8.63" fill="#fff"/><rect x="1309.11" y="183.9" width="8.63" height="8.63" fill="#fff"/><rect x="971.98" y="202.74" width="8.63" height="8.63" fill="#fff"/><rect x="904.55" y="221.58" width="8.63" height="8.63" fill="#fff"/><rect x="1106.83" y="240.42" width="8.63" height="8.63" fill="#fff"/><rect x="769.7" y="259.26" width="8.63" height="8.63" fill="#fff"/><rect x="702.27" y="278.1" width="8.63" height="8.63" fill="#fff"/><rect x="634.84" y="296.95" width="8.63" height="8.63" fill="#fff"/><rect x="837.12" y="315.79" width="8.63" height="8.63" fill="#fff"/><rect x="499.99" y="334.63" width="8.63" height="8.63" fill="#fff"/><rect x="432.56" y="353.47" width="8.63" height="8.63" fill="#fff"/><rect x="365.13" y="372.31" width="8.63" height="8.63" fill="#fff"/><rect x="567.42" y="391.15" width="8.63" height="8.63" fill="#fff"/><rect x="297.71" y="409.99" width="8.63" height="8.63" fill="#fff"/><rect x="162.85" y="428.84" width="8.63" height="8.63" fill="#fff"/><rect x="95.43" y="428.84" width="8.63" height="8.63" fill="#fff"/><rect x="230.28" y="428.84" width="8.63" height="8.63" fill="#fff"/><rect x="28" y="428.84" width="8.63" height="8.63" fill="#fff"/><rect x="239.82" y="316.1" width="205.72" height="154.85" fill="#f2f3f3"/><rect x="376.97" y="449.47" width="27.13" height="77.24" fill="#f2f3f3"/><rect x="329.12" y="449.47" width="27.13" height="77.24" fill="#f2f3f3"/><rect x="280.14" y="449.47" width="27.13" height="77.24" fill="#f2f3f3"/><rect x="239.82" y="451.73" width="27.13" height="77.24" fill="#f2f3f3"/><rect x="199.51" y="316.1" width="40.32" height="24.11" fill="#f2f3f3"/><rect x="188.96" y="316.1" width="19.97" height="134.88" fill="#f2f3f3"/><rect x="110.96" y="430.63" width="98.34" height="19.97" fill="#f2f3f3"/><rect x="432.73" y="316.1" width="184.24" height="147.32" fill="#f2f3f3"/><rect x="576.66" y="299.89" width="40.32" height="16.58" fill="#f2f3f3"/><rect x="432.73" y="299.89" width="40.32" height="16.58" fill="#f2f3f3"/><rect x="573.26" y="444.57" width="7.54" height="8.29" fill="#cecac5"/><rect x="490" y="432.52" width="7.54" height="8.29" fill="#cecac5"/><rect x="490" y="444.57" width="7.54" height="8.29" fill="#cecac5"/><rect x="573.26" y="432.52" width="7.54" height="8.29" fill="#cecac5"/><rect x="256.02" y="335.31" width="21.48" height="18.09" fill="#cecac5"/><rect x="318.19" y="331.17" width="21.48" height="18.09" fill="#cecac5"/><rect x="274.86" y="371.86" width="21.48" height="18.09" fill="#cecac5"/><rect x="345.32" y="377.51" width="21.48" height="18.09" fill="#cecac5"/><rect x="298.22" y="411.04" width="21.48" height="18.09" fill="#cecac5"/><rect x="385.26" y="341.34" width="21.48" height="18.09" fill="#cecac5"/><rect x="398.07" y="389.57" width="21.48" height="18.09" fill="#cecac5"/><rect x="363.78" y="420.08" width="21.48" height="18.09" fill="#cecac5"/><rect x="408.61" y="440.43" width="21.48" height="18.09" fill="#cecac5"/><rect x="345.32" y="475.85" width="10.55" height="12.43" fill="#cecac5"/><rect x="345.32" y="496.95" width="10.55" height="12.43" fill="#cecac5"/><rect x="296.34" y="475.85" width="10.55" height="12.43" fill="#cecac5"/><rect x="296.34" y="496.95" width="10.55" height="12.43" fill="#cecac5"/><rect x="199.13" y="345.86" width="10.55" height="12.43" fill="#cecac5"/><rect x="199.13" y="367.34" width="10.55" height="12.43" fill="#cecac5"/><rect x="198.38" y="388.06" width="10.55" height="12.43" fill="#cecac5"/><rect x="198.38" y="409.54" width="10.55" height="12.43" fill="#cecac5"/><rect x="189.33" y="439.3" width="12.43" height="10.55" fill="#cecac5"/><rect x="167.86" y="439.3" width="12.43" height="10.55" fill="#cecac5"/><rect x="147.89" y="439.3" width="12.43" height="10.55" fill="#cecac5"/><rect x="126.41" y="439.3" width="12.43" height="10.55" fill="#cecac5"/><rect x="256.02" y="475.85" width="10.55" height="12.43" fill="#cecac5"/><rect x="256.02" y="496.95" width="10.55" height="12.43" fill="#cecac5"/><rect x="392.79" y="475.85" width="10.55" height="12.43" fill="#cecac5"/><rect x="392.79" y="496.95" width="10.55" height="12.43" fill="#cecac5"/><rect x="535.96" y="336.82" width="24.87" height="12.43" fill="#cecac5"/><rect x="516.75" y="355.28" width="24.87" height="12.43" fill="#cecac5"/><rect x="495.27" y="336.82" width="24.87" height="12.43" fill="#cecac5"/><rect x="486.23" y="380.9" width="12.81" height="12.81" fill="#ebbad6"/><rect x="570.25" y="380.9" width="12.81" height="12.81" fill="#ebbad6"/><rect x="528.05" y="398.61" width="12.81" height="12.81" fill="#ebbad6"/></svg>