<svg id="70ea711a-a531-4a7f-b115-ff1f584318e5" data-name="Layer 1" xmlns="http://www.w3.org/2000/svg" viewBox="0 0 280.1 274.58"><title>Hello World</title><rect x="60.66" y="105.47" width="139.47" height="132.81" fill="#28a8e0"/><rect x="173.02" width="27.11" height="105.7" fill="#28a8e0"/><rect x="187.27" width="92.83" height="54" fill="#28a8e0"/><rect x="199.9" y="218.98" width="36.07" height="19.53" fill="#28a8e0"/><rect x="200.13" y="191.17" width="36.07" height="19.53" fill="#28a8e0"/><rect x="144.07" y="238.51" width="19.53" height="36.07" fill="#28a8e0"/><rect x="171.64" y="238.51" width="19.53" height="36.07" fill="#28a8e0"/><rect x="0.23" y="220.58" width="79.73" height="17.92" fill="#28a8e0"/><rect y="198.53" width="17.92" height="39.75" fill="#28a8e0"/><rect x="176.24" y="218.52" width="10.34" height="10.34" fill="#1d76bb"/><rect x="176.24" y="191.86" width="10.34" height="10.34" fill="#1d76bb"/><rect x="176.01" y="165.21" width="10.34" height="10.34" fill="#1d76bb"/><rect x="176.24" y="138.78" width="10.34" height="10.34" fill="#1d76bb"/><rect x="157.17" y="204.96" width="10.34" height="10.34" fill="#1d76bb"/><rect x="157.17" y="178.54" width="10.34" height="10.34" fill="#1d76bb"/><rect x="157.4" y="151.88" width="10.34" height="10.34" fill="#1d76bb"/><rect x="157.17" y="125.46" width="10.34" height="10.34" fill="#1d76bb"/><rect x="139.24" y="220.58" width="10.34" height="10.34" fill="#1d76bb"/><rect x="139.24" y="193.93" width="10.34" height="10.34" fill="#1d76bb"/><rect x="139.24" y="167.28" width="10.34" height="10.34" fill="#1d76bb"/><rect x="139.01" y="140.85" width="10.34" height="10.34" fill="#1d76bb"/></svg>