<svg id="99eb8cac-5b0a-4d01-bb78-291166c56730" data-name="Layer 1" xmlns="http://www.w3.org/2000/svg" viewBox="0 0 480 360"><title>Hello World</title><rect width="480" height="120.55" fill="#5cc0e6"/><rect y="120.55" width="480" height="120.55" fill="#00b0df"/><rect y="241.1" width="480" height="120.55" fill="#0096c8"/><rect y="326.37" width="480" height="35.27" fill="#c89881"/><rect x="359.97" y="319.3" width="1.86" height="7.24" transform="translate(721.79 645.85) rotate(180)" fill="#6cbe45"/><rect x="357.27" y="316.61" width="1.86" height="7.24" transform="translate(37.97 678.43) rotate(-90)" fill="#6cbe45"/><rect x="357.27" y="311.23" width="1.86" height="7.24" transform="translate(673.05 -43.35) rotate(90)" fill="#6cbe45"/><rect x="354.58" y="313.92" width="1.86" height="7.24" transform="translate(711.02 635.08) rotate(180)" fill="#6cbe45"/><rect x="359.97" y="308.53" width="1.86" height="7.24" transform="translate(721.79 624.31) rotate(180)" fill="#6cbe45"/><rect x="357.27" y="305.84" width="1.86" height="7.24" transform="translate(48.74 667.66) rotate(-90)" fill="#6cbe45"/><rect x="357.27" y="300.46" width="1.86" height="7.24" transform="translate(662.28 -54.12) rotate(90)" fill="#6cbe45"/><rect x="354.58" y="303.15" width="1.86" height="7.24" transform="translate(711.02 613.54) rotate(180)" fill="#6cbe45"/><rect x="359.97" y="297.76" width="1.86" height="7.24" transform="translate(721.79 602.77) rotate(180)" fill="#6cbe45"/><rect x="357.27" y="295.07" width="1.86" height="7.24" transform="translate(59.51 656.89) rotate(-90)" fill="#6cbe45"/><rect x="357.27" y="289.69" width="1.86" height="7.24" transform="translate(651.51 -64.9) rotate(90)" fill="#6cbe45"/><rect x="354.58" y="292.38" width="1.86" height="7.24" transform="translate(711.02 592) rotate(180)" fill="#6cbe45"/><rect x="370.18" y="319.3" width="1.86" height="7.24" transform="translate(742.21 645.85) rotate(180)" fill="#6cbe45"/><rect x="367.49" y="316.61" width="1.86" height="7.24" transform="translate(48.18 688.65) rotate(-90)" fill="#6cbe45"/><rect x="367.49" y="311.23" width="1.86" height="7.24" transform="translate(683.26 -53.57) rotate(90)" fill="#6cbe45"/><rect x="364.79" y="313.92" width="1.86" height="7.24" transform="translate(731.44 635.08) rotate(180)" fill="#6cbe45"/><rect x="370.18" y="308.53" width="1.86" height="7.24" transform="translate(742.21 624.31) rotate(180)" fill="#6cbe45"/><rect x="367.49" y="305.84" width="1.86" height="7.24" transform="translate(58.95 677.88) rotate(-90)" fill="#6cbe45"/><rect x="367.49" y="300.46" width="1.86" height="7.24" transform="translate(672.49 -64.34) rotate(90)" fill="#6cbe45"/><rect x="364.79" y="303.15" width="1.86" height="7.24" transform="translate(731.44 613.54) rotate(180)" fill="#6cbe45"/><rect x="370.18" y="297.76" width="1.86" height="7.24" transform="translate(742.21 602.77) rotate(180)" fill="#6cbe45"/><rect x="367.49" y="295.07" width="1.86" height="7.24" transform="translate(69.72 667.11) rotate(-90)" fill="#6cbe45"/><rect x="367.49" y="289.69" width="1.86" height="7.24" transform="translate(661.72 -75.11) rotate(90)" fill="#6cbe45"/><rect x="364.79" y="292.38" width="1.86" height="7.24" transform="translate(731.44 592) rotate(180)" fill="#6cbe45"/><rect x="380.58" y="319.3" width="1.86" height="7.24" transform="translate(763.01 645.85) rotate(180)" fill="#6cbe45"/><rect x="377.88" y="316.61" width="1.86" height="7.24" transform="translate(58.58 699.05) rotate(-90)" fill="#6cbe45"/><rect x="377.88" y="311.23" width="1.86" height="7.24" transform="translate(693.66 -63.97) rotate(90)" fill="#6cbe45"/><rect x="375.19" y="313.92" width="1.86" height="7.24" transform="translate(752.24 635.08) rotate(180)" fill="#6cbe45"/><rect x="380.58" y="308.53" width="1.86" height="7.24" transform="translate(763.01 624.31) rotate(180)" fill="#6cbe45"/><rect x="377.88" y="305.84" width="1.86" height="7.24" transform="translate(69.35 688.27) rotate(-90)" fill="#6cbe45"/><rect x="377.88" y="300.46" width="1.86" height="7.24" transform="translate(682.89 -74.74) rotate(90)" fill="#6cbe45"/><rect x="375.19" y="303.15" width="1.86" height="7.24" transform="translate(752.24 613.54) rotate(180)" fill="#6cbe45"/><rect x="380.58" y="297.76" width="1.86" height="7.24" transform="translate(763.01 602.77) rotate(180)" fill="#6cbe45"/><rect x="377.88" y="295.07" width="1.86" height="7.24" transform="translate(80.12 677.5) rotate(-90)" fill="#6cbe45"/><rect x="377.88" y="289.69" width="1.86" height="7.24" transform="translate(672.12 -85.51) rotate(90)" fill="#6cbe45"/><rect x="375.19" y="292.38" width="1.86" height="7.24" transform="translate(752.24 592) rotate(180)" fill="#6cbe45"/><rect x="348.8" y="203.38" width="2.4" height="2.4" fill="#86d4ee"/><rect x="330.02" y="208.63" width="2.4" height="2.4" fill="#86d4ee"/><rect x="386.36" y="213.87" width="2.4" height="2.4" fill="#86d4ee"/><rect x="292.46" y="219.12" width="2.4" height="2.4" fill="#86d4ee"/><rect x="423.92" y="224.37" width="2.4" height="2.4" fill="#86d4ee"/><rect x="405.14" y="229.62" width="2.4" height="2.4" fill="#86d4ee"/><rect x="442.71" y="234.87" width="2.4" height="2.4" fill="#86d4ee"/><rect x="367.58" y="240.11" width="2.4" height="2.4" fill="#86d4ee"/><rect x="273.68" y="245.36" width="2.4" height="2.4" fill="#86d4ee"/><rect x="254.9" y="250.61" width="2.4" height="2.4" fill="#86d4ee"/><rect x="311.24" y="255.86" width="2.4" height="2.4" fill="#86d4ee"/><rect x="217.33" y="261.11" width="2.4" height="2.4" fill="#86d4ee"/><rect x="198.55" y="266.35" width="2.4" height="2.4" fill="#86d4ee"/><rect x="179.77" y="271.6" width="2.4" height="2.4" fill="#86d4ee"/><rect x="236.11" y="276.85" width="2.4" height="2.4" fill="#86d4ee"/><rect x="142.21" y="282.1" width="2.4" height="2.4" fill="#86d4ee"/><rect x="123.43" y="287.35" width="2.4" height="2.4" fill="#86d4ee"/><rect x="104.65" y="292.59" width="2.4" height="2.4" fill="#86d4ee"/><rect x="160.99" y="297.84" width="2.4" height="2.4" fill="#86d4ee"/><rect x="85.87" y="303.09" width="2.4" height="2.4" fill="#86d4ee"/><rect x="48.3" y="308.34" width="2.4" height="2.4" fill="#86d4ee"/><rect x="29.52" y="308.34" width="2.4" height="2.4" fill="#86d4ee"/><rect x="67.09" y="308.34" width="2.4" height="2.4" fill="#86d4ee"/><rect x="10.74" y="308.34" width="2.4" height="2.4" fill="#86d4ee"/></svg>