<svg id="52e49861-b1ba-4b4a-890d-adecf3245676" data-name="Layer 1" xmlns="http://www.w3.org/2000/svg" viewBox="0 0 311.23 157.86"><title>Hello World</title><rect x="248.96" y="23.33" width="62.27" height="96.96" fill="#a79d2a"/><rect y="96.74" width="59.05" height="24.13" fill="#a79d2a"/><rect x="158.55" y="108.69" width="22.06" height="49.17" fill="#a79d2a"/><rect x="128.21" y="108.69" width="22.06" height="49.17" fill="#a79d2a"/><rect x="99.49" y="108.69" width="22.06" height="49.17" fill="#a79d2a"/><rect x="71.69" y="108.69" width="22.06" height="49.17" fill="#a79d2a"/><rect x="49.4" width="137.41" height="120.41" fill="#4f3231"/><rect x="227.71" y="63.19" width="6.66" height="37.91" fill="#999dc7"/><rect x="213.69" y="63.19" width="6.66" height="37.91" fill="#999dc7"/><rect x="203.35" y="63.19" width="6.66" height="37.91" fill="#999dc7"/><rect x="189.57" y="63.19" width="6.66" height="37.91" fill="#999dc7"/><rect x="186.81" y="58.14" width="124.31" height="62.27" fill="#a79d2a"/><rect x="128.21" y="49.64" width="34.24" height="14.02" fill="#593939"/><rect x="292.39" y="39.82" width="10.8" height="14.02" fill="#863d11"/><rect x="266.19" y="39.82" width="10.8" height="14.02" fill="#863d11"/><rect x="77.89" y="49.64" width="34.24" height="14.02" fill="#593939"/><rect x="128.21" y="19.33" width="34.24" height="14.02" fill="#593939"/><rect x="77.89" y="19.33" width="34.24" height="14.02" fill="#593939"/><rect x="128.21" y="85.25" width="34.24" height="14.02" fill="#593939"/><rect x="77.89" y="85.25" width="34.24" height="14.02" fill="#593939"/></svg>