<svg id="adbd448c-6e71-4985-8cff-8a25704b4084" data-name="Layer 1" xmlns="http://www.w3.org/2000/svg" viewBox="0 0 1723.28 629.89"><title>Hello World</title><rect width="1723.28" height="209.96" fill="#e9b274"/><rect y="209.96" width="1723.28" height="209.96" fill="#e09641"/><rect y="419.93" width="1723.28" height="209.96" fill="#bf8136"/><rect y="503.27" width="1723.28" height="126.62" fill="#dc4c3f"/><rect x="127" y="95.88" width="107.56" height="107.56" fill="#f7941d"/><rect x="1299" y="360.64" width="61" height="142.63" fill="#46bc96"/><rect x="1277.22" y="412.46" width="22.09" height="53.35" transform="translate(849.13 1727.39) rotate(-90)" fill="#46bc96"/><rect x="1261.59" y="396.83" width="22.09" height="53.35" fill="#46bc96"/><rect x="1375.09" y="396.83" width="22.09" height="53.35" fill="#46bc96"/><rect x="1315.45" y="388.75" width="2.8" height="53.35" fill="#005942"/><rect x="1329.64" y="388.75" width="2.8" height="53.35" fill="#005942"/><rect x="1359.46" y="412.46" width="22.09" height="53.35" transform="translate(1809.63 -931.37) rotate(90)" fill="#46bc96"/><rect x="1343.83" y="388.75" width="2.8" height="53.35" fill="#005942"/><rect x="1445.34" y="432.11" width="30.04" height="70.25" fill="#46bc96"/><rect x="1434.61" y="457.63" width="10.88" height="26.27" transform="translate(969.29 1910.82) rotate(-90)" fill="#46bc96"/><rect x="1426.92" y="449.93" width="10.88" height="26.27" fill="#46bc96"/><rect x="1482.82" y="449.93" width="10.88" height="26.27" fill="#46bc96"/><rect x="1453.44" y="445.95" width="1.38" height="26.27" fill="#005942"/><rect x="1460.43" y="445.95" width="1.38" height="26.27" fill="#005942"/><rect x="1475.12" y="457.63" width="10.88" height="26.27" transform="translate(1951.33 -1009.79) rotate(90)" fill="#46bc96"/><rect x="1467.42" y="445.95" width="1.38" height="26.27" fill="#005942"/><rect x="1273.45" y="127.67" width="8.63" height="8.63" fill="#e57e68"/><rect x="1206.02" y="146.51" width="8.63" height="8.63" fill="#e57e68"/><rect x="1408.3" y="165.35" width="8.63" height="8.63" fill="#e57e68"/><rect x="1071.17" y="184.19" width="8.63" height="8.63" fill="#e57e68"/><rect x="1543.15" y="203.03" width="8.63" height="8.63" fill="#e57e68"/><rect x="1475.73" y="221.88" width="8.63" height="8.63" fill="#e57e68"/><rect x="1610.58" y="240.72" width="8.63" height="8.63" fill="#e57e68"/><rect x="1340.87" y="259.56" width="8.63" height="8.63" fill="#e57e68"/><rect x="1003.74" y="278.4" width="8.63" height="8.63" fill="#e57e68"/><rect x="936.31" y="297.24" width="8.63" height="8.63" fill="#e57e68"/><rect x="1138.59" y="316.08" width="8.63" height="8.63" fill="#e57e68"/><rect x="801.46" y="334.92" width="8.63" height="8.63" fill="#e57e68"/><rect x="734.03" y="353.77" width="8.63" height="8.63" fill="#e57e68"/><rect x="666.61" y="372.61" width="8.63" height="8.63" fill="#e57e68"/><rect x="868.89" y="391.45" width="8.63" height="8.63" fill="#e57e68"/><rect x="531.75" y="410.29" width="8.63" height="8.63" fill="#e57e68"/><rect x="464.32" y="429.13" width="8.63" height="8.63" fill="#e57e68"/><rect x="396.9" y="447.97" width="8.63" height="8.63" fill="#e57e68"/><rect x="599.18" y="466.82" width="8.63" height="8.63" fill="#e57e68"/><rect x="329.47" y="485.66" width="8.63" height="8.63" fill="#e57e68"/><rect x="194.62" y="504.5" width="8.63" height="8.63" fill="#e57e68"/><rect x="127.19" y="504.5" width="8.63" height="8.63" fill="#e57e68"/><rect x="262.04" y="504.5" width="8.63" height="8.63" fill="#e57e68"/><rect x="59.76" y="504.5" width="8.63" height="8.63" fill="#e57e68"/><rect x="666.33" y="353.45" width="143.1" height="83.08" fill="#c7522f"/><rect x="685.26" y="326.28" width="106.69" height="68.7" fill="#c7522f"/><rect x="702.58" y="299.09" width="74.1" height="68.7" fill="#c7522f"/><rect x="720.36" y="275.06" width="38.53" height="68.7" fill="#c7522f"/><rect x="849.44" y="285.37" width="43.07" height="151.16" fill="#c7522f"/><rect x="739.96" y="393.46" width="151.16" height="43.07" fill="#c7522f"/><rect x="849.44" y="285.37" width="98.92" height="48.07" fill="#c7522f"/><rect x="849.44" y="261.2" width="21.67" height="41.96" fill="#c7522f"/><rect x="787.75" y="425.69" width="21.67" height="83.08" fill="#c7522f"/><rect x="749.41" y="425.69" width="21.67" height="83.08" fill="#c7522f"/><rect x="710.51" y="425.69" width="21.67" height="83.08" fill="#c7522f"/><rect x="678" y="428.47" width="21.67" height="83.08" fill="#c7522f"/><rect x="644.93" y="381.23" width="21.67" height="75.49" fill="#c7522f"/></svg>