<svg id="bb51c3cf-650a-4b64-9c76-8d5eb09f2ed9" data-name="Layer 1" xmlns="http://www.w3.org/2000/svg" viewBox="0 0 152.11 151.88"><title>Hello World</title><rect x="25.97" y="24.13" width="75.14" height="103.63" fill="#96b0c3"/><rect x="100.87" y="24.13" width="51.01" height="103.63" fill="#b9d7ec"/><rect x="109.83" y="55.84" width="7.81" height="7.12" fill="#5c64ad"/><rect y="70.77" width="25.74" height="18.38" fill="#a13d24"/><rect x="73.07" width="21.6" height="24.36" fill="#a13d24"/><rect x="71.23" y="127.53" width="21.6" height="24.36" fill="#a13d24"/><rect x="59.28" y="41.59" width="3.45" height="3.22" fill="#fff"/><rect x="59.28" y="46.87" width="3.45" height="3.22" fill="#fff"/><rect x="59.28" y="52.39" width="3.45" height="3.22" fill="#fff"/><rect x="59.28" y="57.67" width="3.45" height="3.22" fill="#fff"/><rect x="71.23" y="61.12" width="3.45" height="3.22" fill="#fff"/><rect x="71.23" y="66.41" width="3.45" height="3.22" fill="#fff"/><rect x="71.23" y="71.92" width="3.45" height="3.22" fill="#fff"/><rect x="71.23" y="77.2" width="3.45" height="3.22" fill="#fff"/><rect x="80.65" y="88" width="3.45" height="3.22" fill="#fff"/><rect x="80.65" y="93.29" width="3.45" height="3.22" fill="#fff"/><rect x="80.65" y="98.8" width="3.45" height="3.22" fill="#fff"/><rect x="80.65" y="104.09" width="3.45" height="3.22" fill="#fff"/><rect x="55.61" y="90.76" width="3.45" height="3.22" fill="#fff"/><rect x="55.61" y="96.05" width="3.45" height="3.22" fill="#fff"/><rect x="55.61" y="101.56" width="3.45" height="3.22" fill="#fff"/><rect x="55.61" y="106.85" width="3.45" height="3.22" fill="#fff"/><rect x="41.13" y="78.35" width="3.45" height="3.22" fill="#fff"/><rect x="41.13" y="83.64" width="3.45" height="3.22" fill="#fff"/><rect x="41.13" y="89.38" width="3.45" height="3.22" fill="#fff"/><rect x="41.13" y="94.44" width="3.45" height="3.22" fill="#fff"/><rect x="42.97" y="40.44" width="3.45" height="3.22" fill="#fff"/><rect x="42.97" y="45.73" width="3.45" height="3.22" fill="#fff"/><rect x="42.97" y="51.24" width="3.45" height="3.22" fill="#fff"/><rect x="42.97" y="56.52" width="3.45" height="3.22" fill="#fff"/><rect x="25.74" y="114.66" width="75.14" height="12.87" fill="#a13d24"/><rect x="101.1" y="114.66" width="51.01" height="12.87" fill="#d66b54"/></svg>