<svg id="38091cfe-b4a6-4288-ae8e-23eeef56b2cc" data-name="Layer 1" xmlns="http://www.w3.org/2000/svg" viewBox="0 0 235.42 115.32"><title>Hello World</title><rect x="58.09" y="18.91" width="93.01" height="70.01" fill="#f69322"/><rect x="120.26" y="79.38" width="12.27" height="34.92" fill="#f69322"/><rect x="98.63" y="79.38" width="12.27" height="34.92" fill="#f69322"/><rect x="76.49" y="79.38" width="12.27" height="34.92" fill="#f69322"/><rect x="58.09" y="80.4" width="12.27" height="34.92" fill="#f69322"/><rect x="39.86" y="18.91" width="18.23" height="10.9" fill="#f69322"/><rect x="35.26" y="18.91" width="9.03" height="60.98" fill="#f69322"/><rect y="70.86" width="44.46" height="9.03" fill="#f69322"/><rect x="137.3" width="98.12" height="107.83" fill="#f15b28"/><rect x="145.3" y="19.08" width="83.3" height="66.61" fill="#f69322"/><rect x="182.27" y="59.28" width="18.23" height="7.5" fill="#e9262a"/><rect x="210.55" y="11.75" width="18.23" height="7.5" fill="#f69322"/><rect x="145.3" y="11.75" width="18.23" height="7.5" fill="#f69322"/><rect x="209.01" y="77.17" width="3.41" height="3.75" fill="#e9262a"/><rect x="171.2" y="71.72" width="3.41" height="3.75" fill="#e9262a"/><rect x="171.2" y="77.17" width="3.41" height="3.75" fill="#e9262a"/><rect x="209.01" y="71.72" width="3.41" height="3.75" fill="#e9262a"/></svg>