<svg id="54e1cc17-2173-4e93-9d61-1fc91cef38eb" data-name="Layer 1" xmlns="http://www.w3.org/2000/svg" viewBox="0 0 1723.28 629.89"><title>Hello World</title><rect width="1723.28" height="209.96" fill="#b1e3fa"/><rect y="209.96" width="1723.28" height="209.96" fill="#97daf8"/><rect y="419.93" width="1723.28" height="209.96" fill="#6acff6"/><rect x="0.52" y="503.27" width="1723.28" height="126.62" fill="#8dc63f"/><rect x="136.08" y="284.24" width="9" height="237.02" fill="#8dc63f"/><rect x="127.4" y="313.25" width="23.36" height="96.01" fill="#a97c50"/><rect x="214.65" y="332.12" width="9" height="237.02" fill="#8dc63f"/><rect x="205.97" y="361.13" width="23.36" height="96.01" fill="#a97c50"/><rect x="290.52" y="300.14" width="9" height="237.02" fill="#8dc63f"/><rect x="281.85" y="329.15" width="23.36" height="96.01" fill="#a97c50"/><rect x="360.4" y="322.86" width="9" height="237.02" fill="#8dc63f"/><rect x="351.72" y="351.87" width="23.36" height="96.01" fill="#a97c50"/><rect x="650.4" y="396.49" width="125.67" height="94.54" fill="#eec6ce"/><rect x="768.22" y="396.49" width="112.49" height="89.77" fill="#eec6ce"/><rect x="861.64" y="351.33" width="24.69" height="134.65" fill="#eec6ce"/><rect x="775.24" y="351.33" width="24.69" height="134.65" fill="#eec6ce"/><rect x="759.53" y="478.69" width="16.55" height="47.13" fill="#eec6ce"/><rect x="730.35" y="478.69" width="16.55" height="47.13" fill="#eec6ce"/><rect x="700.62" y="478.69" width="16.55" height="47.13" fill="#eec6ce"/><rect x="675.93" y="480.09" width="16.55" height="47.13" fill="#eec6ce"/><rect x="625.72" y="396.49" width="24.69" height="14.87" fill="#eec6ce"/><rect x="818.16" y="450.63" width="24.69" height="10.1" fill="#ef4478"/><rect x="782.53" y="358.06" width="10.1" height="38.43" fill="#ef4478"/><rect x="868.93" y="358.06" width="10.1" height="38.43" fill="#ef4478"/><rect x="754.2" y="467.46" width="51.34" height="5.05" fill="#ed1b70"/><rect x="754.2" y="475.04" width="51.34" height="5.05" fill="#ed1b70"/><rect x="858.55" y="467.46" width="51.34" height="5.05" fill="#ed1b70"/><rect x="858.55" y="475.04" width="51.34" height="5.05" fill="#ed1b70"/><rect x="42.95" y="525.92" width="12" height="40.97" fill="#72af3a"/><rect x="77.89" y="525.92" width="12" height="40.97" fill="#72af3a"/><rect x="112.83" y="525.92" width="12" height="40.97" fill="#72af3a"/><rect x="147.77" y="525.92" width="12" height="40.97" fill="#72af3a"/><rect x="182.71" y="525.92" width="12" height="40.97" fill="#72af3a"/><rect x="217.65" y="525.92" width="12" height="40.97" fill="#72af3a"/><rect x="252.59" y="525.92" width="12" height="40.97" fill="#72af3a"/><rect x="287.52" y="525.92" width="12" height="40.97" fill="#72af3a"/><rect x="322.46" y="525.92" width="12" height="40.97" fill="#72af3a"/><rect x="357.4" y="525.92" width="12" height="40.97" fill="#72af3a"/><rect x="392.34" y="525.92" width="12" height="40.97" fill="#72af3a"/><rect x="427.28" y="525.92" width="12" height="40.97" fill="#72af3a"/><rect x="462.22" y="525.92" width="12" height="40.97" fill="#72af3a"/><rect x="497.16" y="525.92" width="12" height="40.97" fill="#72af3a"/><rect x="532.1" y="525.92" width="12" height="40.97" fill="#72af3a"/><rect x="567.04" y="525.92" width="12" height="40.97" fill="#72af3a"/><rect x="601.98" y="525.92" width="12" height="40.97" fill="#72af3a"/><rect x="636.92" y="525.92" width="12" height="40.97" fill="#72af3a"/><rect x="671.85" y="525.92" width="12" height="40.97" fill="#72af3a"/><rect x="706.79" y="525.92" width="12" height="40.97" fill="#72af3a"/><rect x="741.73" y="525.92" width="12" height="40.97" fill="#72af3a"/><rect x="776.67" y="525.92" width="12" height="40.97" fill="#72af3a"/><rect x="811.61" y="525.92" width="12" height="40.97" fill="#72af3a"/><rect x="846.55" y="525.92" width="12" height="40.97" fill="#72af3a"/><rect x="881.49" y="525.92" width="12" height="40.97" fill="#72af3a"/><rect x="916.43" y="525.92" width="12" height="40.97" fill="#72af3a"/><rect x="951.37" y="525.92" width="12" height="40.97" fill="#72af3a"/><rect x="986.31" y="525.92" width="12" height="40.97" fill="#72af3a"/><rect x="1021.25" y="525.92" width="12" height="40.97" fill="#72af3a"/><rect x="1056.19" y="525.92" width="12" height="40.97" fill="#72af3a"/><rect x="1091.12" y="525.92" width="12" height="40.97" fill="#72af3a"/><rect x="1126.06" y="525.92" width="12" height="40.97" fill="#72af3a"/><rect x="1161" y="525.92" width="12" height="40.97" fill="#72af3a"/><rect x="1195.94" y="525.92" width="12" height="40.97" fill="#72af3a"/><rect x="1230.88" y="525.92" width="12" height="40.97" fill="#72af3a"/><rect x="1265.82" y="525.92" width="12" height="40.97" fill="#72af3a"/><rect x="1300.76" y="525.92" width="12" height="40.97" fill="#72af3a"/><rect x="1335.7" y="525.92" width="12" height="40.97" fill="#72af3a"/><rect x="1370.64" y="525.92" width="12" height="40.97" fill="#72af3a"/><rect x="1405.58" y="525.92" width="12" height="40.97" fill="#72af3a"/><rect x="1440.52" y="525.92" width="12" height="40.97" fill="#72af3a"/><rect x="1475.45" y="525.92" width="12" height="40.97" fill="#72af3a"/><rect x="1510.39" y="525.92" width="12" height="40.97" fill="#72af3a"/><rect x="1545.33" y="525.92" width="12" height="40.97" fill="#72af3a"/><rect x="1580.27" y="525.92" width="12" height="40.97" fill="#72af3a"/><rect x="1615.21" y="525.92" width="12" height="40.97" fill="#72af3a"/><rect x="1650.15" y="525.92" width="12" height="40.97" fill="#72af3a"/><rect x="1685.09" y="525.92" width="12" height="40.97" fill="#72af3a"/></svg>