<svg id="87e3d1c2-0590-47db-aa5f-9e6cc826469b" data-name="Layer 1" xmlns="http://www.w3.org/2000/svg" viewBox="0 0 383.89 233.22"><title>Hello World</title><rect x="68" y="2.92" width="147.19" height="195.57" transform="translate(39.79 241.52) rotate(-89.55)" fill="#7a1502"/><rect x="149.77" y="177.96" width="73.2" height="25.76" transform="translate(-5.92 375.71) rotate(-89.55)" fill="#7a1502"/><rect x="104.37" y="177.6" width="73.2" height="25.76" transform="translate(-50.6 329.96) rotate(-89.55)" fill="#7a1502"/><rect x="57.88" y="177.24" width="73.2" height="25.76" transform="translate(-96.37 283.11) rotate(-89.55)" fill="#7a1502"/><rect x="19.37" y="179.29" width="73.2" height="25.76" transform="translate(-136.63 246.65) rotate(-89.55)" fill="#7a1502"/><rect x="18.5" y="43.05" width="22.93" height="38.33" transform="translate(-32.47 91.7) rotate(-89.55)" fill="#7a1502"/><rect x="-53.93" y="105.02" width="128.03" height="19.16" transform="translate(-104.6 123.79) rotate(-89.55)" fill="#7a1502"/><rect x="211.2" y="37.69" width="135.41" height="123.31" transform="translate(177.38 377.47) rotate(-89.55)" fill="#8b321d"/><rect x="256.55" y="-22.33" width="45.9" height="91.27" transform="translate(254.01 302.62) rotate(-89.55)" fill="#7a1502"/><rect x="216.4" y="103.66" width="21.84" height="8.95" transform="translate(117.41 334.59) rotate(-89.55)" fill="#8b321d"/><rect x="300.63" y="62.14" width="101.95" height="63.78" transform="translate(254.84 444.88) rotate(-89.55)" fill="#8b321d"/><rect x="156.56" y="64.78" width="101.95" height="63.78" transform="translate(109.24 303.44) rotate(-89.55)" fill="#8b321d"/><rect x="237.93" y="170.52" width="83.73" height="31.89" transform="translate(91.15 464.79) rotate(-89.55)" fill="#8b321d"/><rect x="281.88" y="191.28" width="22.93" height="60.48" transform="matrix(0.01, -1, 1, 0.01, 69.54, 513.13)" fill="#8b321d"/><rect x="270.93" y="160.07" width="17.91" height="31.89" transform="translate(101.68 454.51) rotate(-89.55)" fill="#8b321d"/><rect x="270.7" y="189.13" width="17.91" height="31.89" transform="translate(72.4 483.12) rotate(-89.55)" fill="#8b321d"/><rect x="216.59" y="166.62" width="12.53" height="34.36" transform="translate(1.44 -1.74) rotate(0.45)" fill="#fde3d8"/><rect x="227.42" y="177.62" width="12.53" height="34.36" transform="translate(430.3 -37.36) rotate(90.45)" fill="#fde3d8"/><rect x="327.35" y="167.48" width="12.53" height="34.36" transform="translate(1.45 -2.6) rotate(0.45)" fill="#fde3d8"/><rect x="338.18" y="178.48" width="12.53" height="34.36" transform="translate(542.79 -147.24) rotate(90.45)" fill="#fde3d8"/></svg>