<svg id="79f0755f-6229-4b6a-b042-553fe8f27252" data-name="Layer 1" xmlns="http://www.w3.org/2000/svg" viewBox="0 0 318.01 137.64"><title>Hello World</title><rect x="81.57" y="65.03" width="236.44" height="66.86" fill="#e5e5e4"/><rect x="81.57" y="41.13" width="163.37" height="66.63" fill="#010101"/><rect x="223.11" y="62.27" width="5.28" height="30.1" fill="#010101"/><rect x="211.85" y="62.27" width="5.28" height="30.1" fill="#010101"/><rect x="203.81" y="62.27" width="5.28" height="30.1" fill="#010101"/><rect x="192.78" y="62.27" width="5.28" height="30.1" fill="#010101"/><rect x="205.65" y="40.9" width="112.36" height="66.86" fill="#010101"/><rect x="144.07" y="51.7" width="27.11" height="11.03" fill="#010101"/><rect x="104.09" y="51.7" width="27.11" height="11.03" fill="#010101"/><rect x="144.07" y="79.96" width="27.11" height="11.03" fill="#010101"/><rect x="104.09" y="79.96" width="27.11" height="11.03" fill="#010101"/><rect x="161.53" y="98.57" width="24.13" height="39.06" fill="#010101"/><rect x="161.53" width="24.13" height="41.59" fill="#010101"/><rect x="261.71" y="86.17" width="24.13" height="9.65" fill="#fff"/><rect y="71.92" width="82.95" height="18.38" fill="#010101"/><rect x="0.23" y="38.6" width="18.38" height="82.95" fill="#010101"/><rect x="18.61" y="55.38" width="18.38" height="49.17" fill="#010101"/></svg>