<svg id="638875ba-f357-4a8c-98d7-8cdb8097e758" data-name="Layer 1" xmlns="http://www.w3.org/2000/svg" viewBox="0 0 1723.28 629.89"><title>Hello World</title><rect width="1723.28" height="209.96" fill="#e8f6fd"/><rect y="209.96" width="1723.28" height="209.96" fill="#d9f1fd"/><rect y="419.93" width="1723.28" height="209.96" fill="#c9ebfc"/><rect y="502.4" width="1723.28" height="126.62" fill="#41854c"/><rect x="1478.6" y="52.32" width="107.56" height="107.56" fill="#fffdeb"/><rect x="1279.24" y="58.52" width="8.63" height="8.63" fill="#fff"/><rect x="1211.81" y="77.36" width="8.63" height="8.63" fill="#fff"/><rect x="1414.09" y="96.2" width="8.63" height="8.63" fill="#fff"/><rect x="1076.96" y="115.04" width="8.63" height="8.63" fill="#fff"/><rect x="1548.94" y="133.88" width="8.63" height="8.63" fill="#fff"/><rect x="1481.52" y="152.73" width="8.63" height="8.63" fill="#fff"/><rect x="1616.37" y="171.57" width="8.63" height="8.63" fill="#fff"/><rect x="1346.66" y="190.41" width="8.63" height="8.63" fill="#fff"/><rect x="1009.53" y="209.25" width="8.63" height="8.63" fill="#fff"/><rect x="942.1" y="228.09" width="8.63" height="8.63" fill="#fff"/><rect x="1144.38" y="246.93" width="8.63" height="8.63" fill="#fff"/><rect x="807.25" y="265.78" width="8.63" height="8.63" fill="#fff"/><rect x="739.82" y="284.62" width="8.63" height="8.63" fill="#fff"/><rect x="672.39" y="303.46" width="8.63" height="8.63" fill="#fff"/><rect x="874.68" y="322.3" width="8.63" height="8.63" fill="#fff"/><rect x="537.54" y="341.14" width="8.63" height="8.63" fill="#fff"/><rect x="470.11" y="359.98" width="8.63" height="8.63" fill="#fff"/><rect x="402.69" y="378.82" width="8.63" height="8.63" fill="#fff"/><rect x="604.97" y="397.67" width="8.63" height="8.63" fill="#fff"/><rect x="335.26" y="416.51" width="8.63" height="8.63" fill="#fff"/><rect x="200.41" y="435.35" width="8.63" height="8.63" fill="#fff"/><rect x="132.98" y="435.35" width="8.63" height="8.63" fill="#fff"/><rect x="267.83" y="435.35" width="8.63" height="8.63" fill="#fff"/><rect x="65.55" y="435.35" width="8.63" height="8.63" fill="#fff"/><rect x="1448.21" y="192.21" width="17.3" height="16.76" fill="#009e91"/><rect x="1430.15" y="208.97" width="53.42" height="16.76" fill="#009e91"/><rect x="1417.92" y="225.72" width="77.89" height="16.76" fill="#009e91"/><rect x="1403.13" y="242.48" width="107.47" height="16.76" fill="#009e91"/><rect x="1444.93" y="316.95" width="23.87" height="23.87" fill="#009e91"/><rect x="1420.01" y="340.82" width="73.71" height="23.87" fill="#009e91"/><rect x="1403.13" y="364.68" width="107.47" height="23.87" fill="#009e91"/><rect x="1382.73" y="388.55" width="148.27" height="23.87" fill="#009e91"/><rect x="1446.34" y="246.76" width="21.04" height="21.04" fill="#009e91"/><rect x="1424.37" y="267.8" width="64.98" height="21.04" fill="#009e91"/><rect x="1409.49" y="288.84" width="94.74" height="21.04" fill="#009e91"/><rect x="1391.5" y="309.89" width="130.72" height="21.04" fill="#009e91"/><rect x="1432.22" y="412.42" width="49.28" height="97.83" fill="#c58979"/><rect x="1238.86" y="192.21" width="17.3" height="16.76" fill="#009e91"/><rect x="1220.8" y="208.97" width="53.42" height="16.76" fill="#009e91"/><rect x="1208.56" y="225.72" width="77.89" height="16.76" fill="#009e91"/><rect x="1193.77" y="242.48" width="107.47" height="16.76" fill="#009e91"/><rect x="1235.57" y="316.95" width="23.87" height="23.87" fill="#009e91"/><rect x="1210.65" y="340.82" width="73.71" height="23.87" fill="#009e91"/><rect x="1193.77" y="364.68" width="107.47" height="23.87" fill="#009e91"/><rect x="1173.37" y="388.55" width="148.27" height="23.87" fill="#009e91"/><rect x="1236.99" y="246.76" width="21.04" height="21.04" fill="#009e91"/><rect x="1215.02" y="267.8" width="64.98" height="21.04" fill="#009e91"/><rect x="1200.14" y="288.84" width="94.74" height="21.04" fill="#009e91"/><rect x="1182.15" y="309.89" width="130.72" height="21.04" fill="#009e91"/><rect x="1222.87" y="412.42" width="49.28" height="97.83" fill="#c58979"/><rect x="1047.28" y="192.21" width="17.3" height="16.76" fill="#009e91"/><rect x="1029.22" y="208.97" width="53.42" height="16.76" fill="#009e91"/><rect x="1016.98" y="225.72" width="77.89" height="16.76" fill="#009e91"/><rect x="1002.19" y="242.48" width="107.47" height="16.76" fill="#009e91"/><rect x="1043.99" y="316.95" width="23.87" height="23.87" fill="#009e91"/><rect x="1019.07" y="340.82" width="73.71" height="23.87" fill="#009e91"/><rect x="1002.19" y="364.68" width="107.47" height="23.87" fill="#009e91"/><rect x="981.79" y="388.55" width="148.27" height="23.87" fill="#009e91"/><rect x="1045.41" y="246.76" width="21.04" height="21.04" fill="#009e91"/><rect x="1023.44" y="267.8" width="64.98" height="21.04" fill="#009e91"/><rect x="1008.55" y="288.84" width="94.74" height="21.04" fill="#009e91"/><rect x="990.57" y="309.89" width="130.72" height="21.04" fill="#009e91"/><rect x="1031.29" y="412.42" width="49.28" height="97.83" fill="#c58979"/><rect x="852.99" y="192.21" width="17.3" height="16.76" fill="#009e91"/><rect x="834.93" y="208.97" width="53.42" height="16.76" fill="#009e91"/><rect x="822.69" y="225.72" width="77.89" height="16.76" fill="#009e91"/><rect x="807.9" y="242.48" width="107.47" height="16.76" fill="#009e91"/><rect x="849.7" y="316.95" width="23.87" height="23.87" fill="#009e91"/><rect x="824.78" y="340.82" width="73.71" height="23.87" fill="#009e91"/><rect x="807.9" y="364.68" width="107.47" height="23.87" fill="#009e91"/><rect x="787.5" y="388.55" width="148.27" height="23.87" fill="#009e91"/><rect x="851.12" y="246.76" width="21.04" height="21.04" fill="#009e91"/><rect x="829.15" y="267.8" width="64.98" height="21.04" fill="#009e91"/><rect x="814.27" y="288.84" width="94.74" height="21.04" fill="#009e91"/><rect x="796.28" y="309.89" width="130.72" height="21.04" fill="#009e91"/><rect x="837" y="412.42" width="49.28" height="97.83" fill="#c58979"/><rect x="172.13" y="192.21" width="17.3" height="16.76" fill="#009e91"/><rect x="154.07" y="208.97" width="53.42" height="16.76" fill="#009e91"/><rect x="141.83" y="225.72" width="77.89" height="16.76" fill="#009e91"/><rect x="127.04" y="242.48" width="107.47" height="16.76" fill="#009e91"/><rect x="168.85" y="316.95" width="23.87" height="23.87" fill="#009e91"/><rect x="143.92" y="340.82" width="73.71" height="23.87" fill="#009e91"/><rect x="127.04" y="364.68" width="107.47" height="23.87" fill="#009e91"/><rect x="106.64" y="388.55" width="148.27" height="23.87" fill="#009e91"/><rect x="170.26" y="246.76" width="21.04" height="21.04" fill="#009e91"/><rect x="148.29" y="267.8" width="64.98" height="21.04" fill="#009e91"/><rect x="133.41" y="288.84" width="94.74" height="21.04" fill="#009e91"/><rect x="115.42" y="309.89" width="130.72" height="21.04" fill="#009e91"/><rect x="156.14" y="412.42" width="49.28" height="97.83" fill="#c58979"/><rect x="415.35" y="326.89" width="185.43" height="139.7" fill="#955b26"/><rect x="554.59" y="447.07" width="27.34" height="63.19" fill="#955b26"/><rect x="456.48" y="447.07" width="27.34" height="63.19" fill="#955b26"/><rect x="393.98" y="326.89" width="21.37" height="21.83" fill="#955b26"/><rect x="589.52" y="327.58" width="141.31" height="112.82" fill="#955b26"/><rect x="652.01" y="395.6" width="30.79" height="12.64" fill="#603a1a"/><rect x="700.04" y="314.94" width="30.79" height="12.64" fill="#955b26"/><rect x="589.52" y="314.94" width="30.79" height="12.64" fill="#955b26"/><rect x="697.28" y="425.93" width="5.74" height="6.2" fill="#603a1a"/><rect x="633.4" y="416.74" width="5.74" height="6.2" fill="#603a1a"/><rect x="633.4" y="425.93" width="5.74" height="6.2" fill="#603a1a"/><rect x="697.28" y="416.74" width="5.74" height="6.2" fill="#603a1a"/><rect x="506.11" y="447.07" width="27.34" height="63.19" fill="#955b26"/><rect x="415.35" y="449.13" width="27.34" height="63.19" fill="#955b26"/><rect x="17.6" y="545.23" width="12" height="40.97" fill="#72af3a"/><rect x="52.54" y="545.23" width="12" height="40.97" fill="#72af3a"/><rect x="87.48" y="545.23" width="12" height="40.97" fill="#72af3a"/><rect x="122.42" y="545.23" width="12" height="40.97" fill="#72af3a"/><rect x="157.36" y="545.23" width="12" height="40.97" fill="#72af3a"/><rect x="192.3" y="545.23" width="12" height="40.97" fill="#72af3a"/><rect x="227.24" y="545.23" width="12" height="40.97" fill="#72af3a"/><rect x="262.18" y="545.23" width="12" height="40.97" fill="#72af3a"/><rect x="297.12" y="545.23" width="12" height="40.97" fill="#72af3a"/><rect x="332.05" y="545.23" width="12" height="40.97" fill="#72af3a"/><rect x="366.99" y="545.23" width="12" height="40.97" fill="#72af3a"/><rect x="401.93" y="545.23" width="12" height="40.97" fill="#72af3a"/><rect x="436.87" y="545.23" width="12" height="40.97" fill="#72af3a"/><rect x="471.81" y="545.23" width="12" height="40.97" fill="#72af3a"/><rect x="506.75" y="545.23" width="12" height="40.97" fill="#72af3a"/><rect x="541.69" y="545.23" width="12" height="40.97" fill="#72af3a"/><rect x="576.63" y="545.23" width="12" height="40.97" fill="#72af3a"/><rect x="611.57" y="545.23" width="12" height="40.97" fill="#72af3a"/><rect x="646.51" y="545.23" width="12" height="40.97" fill="#72af3a"/><rect x="681.45" y="545.23" width="12" height="40.97" fill="#72af3a"/><rect x="716.38" y="545.23" width="12" height="40.97" fill="#72af3a"/><rect x="751.32" y="545.23" width="12" height="40.97" fill="#72af3a"/><rect x="786.26" y="545.23" width="12" height="40.97" fill="#72af3a"/><rect x="821.2" y="545.23" width="12" height="40.97" fill="#72af3a"/><rect x="856.14" y="545.23" width="12" height="40.97" fill="#72af3a"/><rect x="891.08" y="545.23" width="12" height="40.97" fill="#72af3a"/><rect x="926.02" y="545.23" width="12" height="40.97" fill="#72af3a"/><rect x="960.96" y="545.23" width="12" height="40.97" fill="#72af3a"/><rect x="995.9" y="545.23" width="12" height="40.97" fill="#72af3a"/><rect x="1030.84" y="545.23" width="12" height="40.97" fill="#72af3a"/><rect x="1065.78" y="545.23" width="12" height="40.97" fill="#72af3a"/><rect x="1100.72" y="545.23" width="12" height="40.97" fill="#72af3a"/><rect x="1135.65" y="545.23" width="12" height="40.97" fill="#72af3a"/><rect x="1170.59" y="545.23" width="12" height="40.97" fill="#72af3a"/><rect x="1205.53" y="545.23" width="12" height="40.97" fill="#72af3a"/><rect x="1240.47" y="545.23" width="12" height="40.97" fill="#72af3a"/><rect x="1275.41" y="545.23" width="12" height="40.97" fill="#72af3a"/><rect x="1310.35" y="545.23" width="12" height="40.97" fill="#72af3a"/><rect x="1345.29" y="545.23" width="12" height="40.97" fill="#72af3a"/><rect x="1380.23" y="545.23" width="12" height="40.97" fill="#72af3a"/><rect x="1415.17" y="545.23" width="12" height="40.97" fill="#72af3a"/><rect x="1450.11" y="545.23" width="12" height="40.97" fill="#72af3a"/><rect x="1485.05" y="545.23" width="12" height="40.97" fill="#72af3a"/><rect x="1519.98" y="545.23" width="12" height="40.97" fill="#72af3a"/><rect x="1554.92" y="545.23" width="12" height="40.97" fill="#72af3a"/><rect x="1589.86" y="545.23" width="12" height="40.97" fill="#72af3a"/><rect x="1624.8" y="545.23" width="12" height="40.97" fill="#72af3a"/><rect x="1659.74" y="545.23" width="12" height="40.97" fill="#72af3a"/></svg>