<svg id="7030caf5-59c6-476c-86c6-2bc769a06278" data-name="Layer 1" xmlns="http://www.w3.org/2000/svg" viewBox="0 0 1723.28 629.89"><title>Hello World</title><rect width="1723.28" height="209.96" fill="#006b8f"/><rect y="209.96" width="1723.28" height="209.96" fill="#005b7f"/><rect y="419.93" width="1723.28" height="209.96" fill="#003d58"/><rect x="0.01" y="503.27" width="1723.28" height="126.62" fill="#005959"/><rect x="677.47" y="166.61" width="38.88" height="36.48" fill="#bfd857"/><rect x="1041.59" y="36.5" width="27.12" height="25.44" fill="#bfd857"/><rect x="1268.25" y="142.74" width="27.12" height="25.44" fill="#bfd857"/><rect x="1395.02" y="296.26" width="40.58" height="38.07" fill="#bfd857"/><rect x="389.1" y="321.7" width="26.93" height="25.27" fill="#bfd857"/><rect x="264.36" y="130.13" width="26.88" height="25.22" fill="#bfd857"/><rect x="818.25" y="234" width="204.06" height="159.55" transform="translate(-0.72 2.13) rotate(-0.13)" fill="#90340d"/><rect x="912.88" y="393.53" width="23.51" height="43.33" transform="translate(-0.96 2.14) rotate(-0.13)" fill="#90340d"/><rect x="912.88" y="194.25" width="23.51" height="43.33" transform="translate(-0.5 2.14) rotate(-0.13)" fill="#90340d"/><rect x="744.67" y="289.68" width="95.73" height="21.5" transform="translate(-0.69 1.83) rotate(-0.13)" fill="#90340d"/><rect x="744.6" y="263.02" width="21.5" height="80.95" transform="translate(-0.7 1.74) rotate(-0.13)" fill="#90340d"/><rect x="766.21" y="285.1" width="21.5" height="36.61" transform="translate(-0.7 1.79) rotate(-0.13)" fill="#90340d"/><rect x="893.65" y="363.84" width="12.43" height="12.43" transform="translate(-0.85 2.08) rotate(-0.13)" fill="#7b2900"/><rect x="893.6" y="332.04" width="12.43" height="12.43" transform="translate(-0.78 2.08) rotate(-0.13)" fill="#7b2900"/><rect x="893.43" y="300.15" width="12.43" height="12.43" transform="translate(-0.71 2.08) rotate(-0.13)" fill="#7b2900"/><rect x="893.38" y="268.34" width="12.43" height="12.43" transform="translate(-0.63 2.08) rotate(-0.13)" fill="#7b2900"/><rect x="870.69" y="347.99" width="12.43" height="12.43" transform="translate(-0.82 2.03) rotate(-0.13)" fill="#7b2900"/><rect x="870.81" y="316.19" width="12.43" height="12.43" transform="translate(-0.74 2.03) rotate(-0.13)" fill="#7b2900"/><rect x="870.82" y="284.2" width="12.43" height="12.43" transform="translate(-0.67 2.03) rotate(-0.13)" fill="#7b2900"/><rect x="870.66" y="252.15" width="12.43" height="12.43" transform="translate(-0.59 2.03) rotate(-0.13)" fill="#7b2900"/><rect x="849.26" y="366.39" width="12.43" height="12.43" transform="translate(-0.86 1.98) rotate(-0.13)" fill="#7b2900"/><rect x="849.2" y="334.52" width="12.43" height="12.43" transform="translate(-0.78 1.98) rotate(-0.13)" fill="#7b2900"/><rect x="849.21" y="302.53" width="12.43" height="12.43" transform="translate(-0.71 1.98) rotate(-0.13)" fill="#7b2900"/><rect x="849.23" y="270.71" width="12.43" height="12.43" transform="translate(-0.64 1.98) rotate(-0.13)" fill="#7b2900"/><rect x="990.64" y="161.88" width="11.36" height="75.72" fill="#90340d"/><rect x="1022.97" y="129.7" width="11.36" height="75.72" transform="translate(1196.22 -861.09) rotate(90)" fill="#90340d"/><rect x="1055.15" y="161.88" width="11.36" height="75.72" transform="translate(2121.67 399.49) rotate(180)" fill="#90340d"/><rect x="1043.08" y="237.6" width="37.5" height="37.5" fill="#fff682"/><rect x="974.89" y="302.52" width="5.33" height="51.69" fill="#fffef9"/><rect x="985.46" y="302.52" width="5.33" height="51.69" fill="#fffef9"/><rect x="996.02" y="302.52" width="5.33" height="51.69" fill="#fffef9"/><rect x="1006.59" y="302.52" width="5.33" height="51.69" fill="#fffef9"/><rect x="1017.16" y="302.52" width="5.33" height="51.69" fill="#fffef9"/><rect x="969.6" y="295.18" width="5.33" height="51.69" fill="#e4e5e6"/><rect x="980.17" y="295.18" width="5.33" height="51.69" fill="#e4e5e6"/><rect x="990.74" y="295.18" width="5.33" height="51.69" fill="#e4e5e6"/><rect x="1001.31" y="295.18" width="5.33" height="51.69" fill="#e4e5e6"/><rect x="1011.88" y="295.18" width="5.33" height="51.69" fill="#e4e5e6"/><rect x="945.14" y="248.61" width="30.25" height="30.25" fill="#51342d"/></svg>