<svg id="74c32058-93fc-4be1-a96a-96c87f7aa9c1" data-name="Layer 1" xmlns="http://www.w3.org/2000/svg" viewBox="0 0 251.86 264.3"><title>Hello World</title><rect x="127.27" y="223.48" width="10.53" height="30.86" transform="translate(265.07 477.83) rotate(180)" fill="#ef4136"/><rect x="127.27" y="254.34" width="25.92" height="6.72" transform="translate(280.46 515.4) rotate(180)" fill="#ef4136"/><rect x="77.87" y="226.72" width="10.53" height="30.86" transform="translate(166.26 484.3) rotate(180)" fill="#ef4136"/><rect x="77.87" y="257.58" width="25.92" height="6.72" transform="translate(181.65 521.88) rotate(180)" fill="#ef4136"/><rect x="212.25" y="51.43" width="39.61" height="17.15" transform="translate(464.11 120.01) rotate(180)" fill="#f9ed32"/><rect x="196.91" y="40.11" width="39.61" height="17.15" transform="translate(433.42 97.37) rotate(180)" fill="#f9ed32"/><rect x="136.27" width="86.02" height="86.02" transform="translate(358.56 86.02) rotate(180)" fill="#231f20"/><rect x="136.27" y="79.39" width="25.02" height="74.59" transform="translate(297.55 233.38) rotate(180)" fill="#231f20"/><rect x="20.37" y="149.3" width="140.92" height="83.95" transform="translate(181.65 382.56) rotate(180)" fill="#e6e7e8"/><rect x="9.82" y="149.3" width="140.92" height="50.92" transform="translate(160.56 349.53) rotate(180)" fill="#e6e7e8"/><rect y="149.3" width="140.92" height="39.08" transform="translate(140.92 337.69) rotate(180)" fill="#e6e7e8"/><rect x="64.1" y="168.4" width="63.17" height="19.98" transform="translate(191.37 356.79) rotate(180)" fill="#fff"/><rect x="70.46" y="176.72" width="56.81" height="19.98" transform="translate(197.73 373.43) rotate(180)" fill="#fff"/><rect x="80.28" y="185.04" width="46.99" height="19.98" transform="translate(207.55 390.06) rotate(180)" fill="#fff"/><rect x="174.23" y="29.23" width="13.78" height="13.78" transform="translate(362.25 72.24) rotate(180)" fill="#f1f2f2"/></svg>