<svg id="eb9f9dab-e648-4284-96d3-c57d8f32d35d" data-name="Layer 1" xmlns="http://www.w3.org/2000/svg" viewBox="0 0 480 360"><title>Hello World</title><rect width="480" height="119.86" fill="#ebf7fe"/><rect y="119.86" width="480" height="119.86" fill="#d9f1fd"/><rect y="239.71" width="480" height="119.86" fill="#bfe7fb"/><rect y="324.73" width="480" height="35.27" fill="#f8f8f9"/><rect x="34.57" y="77.92" width="29.96" height="29.96" fill="#fffdeb"/><rect x="350.28" y="198.37" width="2.4" height="2.4" fill="#fff"/><rect x="331.5" y="203.62" width="2.4" height="2.4" fill="#fff"/><rect x="387.85" y="208.87" width="2.4" height="2.4" fill="#fff"/><rect x="293.94" y="214.11" width="2.4" height="2.4" fill="#fff"/><rect x="425.41" y="219.36" width="2.4" height="2.4" fill="#fff"/><rect x="406.63" y="224.61" width="2.4" height="2.4" fill="#fff"/><rect x="444.19" y="229.86" width="2.4" height="2.4" fill="#fff"/><rect x="369.06" y="235.11" width="2.4" height="2.4" fill="#fff"/><rect x="275.16" y="240.35" width="2.4" height="2.4" fill="#fff"/><rect x="256.38" y="245.6" width="2.4" height="2.4" fill="#fff"/><rect x="312.72" y="250.85" width="2.4" height="2.4" fill="#fff"/><rect x="218.82" y="256.1" width="2.4" height="2.4" fill="#fff"/><rect x="200.03" y="261.35" width="2.4" height="2.4" fill="#fff"/><rect x="181.25" y="266.6" width="2.4" height="2.4" fill="#fff"/><rect x="237.6" y="271.84" width="2.4" height="2.4" fill="#fff"/><rect x="143.69" y="277.09" width="2.4" height="2.4" fill="#fff"/><rect x="124.91" y="282.34" width="2.4" height="2.4" fill="#fff"/><rect x="106.13" y="287.59" width="2.4" height="2.4" fill="#fff"/><rect x="162.47" y="292.84" width="2.4" height="2.4" fill="#fff"/><rect x="87.35" y="298.08" width="2.4" height="2.4" fill="#fff"/><rect x="49.79" y="303.33" width="2.4" height="2.4" fill="#fff"/><rect x="31.01" y="303.33" width="2.4" height="2.4" fill="#fff"/><rect x="68.57" y="303.33" width="2.4" height="2.4" fill="#fff"/><rect x="12.22" y="303.33" width="2.4" height="2.4" fill="#fff"/><rect x="113.05" y="255.96" width="28.53" height="17.19" fill="#f8f8f9"/><rect x="83.26" y="273.15" width="88.1" height="17.19" fill="#f8f8f9"/><rect x="63.09" y="290.35" width="128.45" height="17.19" fill="#f8f8f9"/><rect x="38.7" y="307.54" width="177.23" height="17.19" fill="#f8f8f9"/></svg>