<svg id="7d32769f-8d1d-4f26-a686-d238b5aeab1d" data-name="Layer 1" xmlns="http://www.w3.org/2000/svg" viewBox="0 0 312.04 118.1"><title>Hello World</title><rect x="74.68" y="27.8" width="153.03" height="62.5" fill="#999dc7"/><rect x="207.26" y="47.79" width="5.06" height="28.26" fill="#999dc7"/><rect x="196.69" y="47.79" width="5.06" height="28.26" fill="#999dc7"/><rect x="189.11" y="47.79" width="5.06" height="28.26" fill="#999dc7"/><rect x="178.77" y="47.79" width="5.06" height="28.26" fill="#999dc7"/><rect x="176.7" y="27.57" width="92.37" height="62.73" fill="#999dc7"/><rect x="215.99" y="61.81" width="96.05" height="27.57" fill="#999dc7"/><rect x="133.27" y="37.68" width="25.51" height="10.34" fill="#999dc7"/><rect x="95.82" y="37.68" width="25.51" height="10.34" fill="#999dc7"/><rect x="133.27" y="64.11" width="25.51" height="10.34" fill="#999dc7"/><rect x="95.82" y="64.11" width="25.51" height="10.34" fill="#999dc7"/><rect x="149.58" y="81.57" width="22.52" height="36.53" fill="#999dc7"/><rect x="149.58" width="22.52" height="28.26" fill="#999dc7"/><rect x="216.45" y="28.72" width="22.52" height="8.96" fill="#6571ad"/><rect y="51.7" width="82.95" height="18.38" fill="#999dc7"/><rect x="0.23" y="18.38" width="18.38" height="82.95" fill="#999dc7"/><rect x="18.61" y="35.16" width="18.38" height="49.17" fill="#999dc7"/></svg>