<svg id="4d51976b-3d11-4c49-a1c5-b94138ac4691" data-name="Layer 1" xmlns="http://www.w3.org/2000/svg" viewBox="0 0 329.02 269.23"><title>Hello World</title><rect x="72.19" y="70.61" width="199.77" height="156.2" transform="translate(-0.34 0.4) rotate(-0.13)" fill="#90340d"/><rect x="164.84" y="226.78" width="23.02" height="42.42" transform="translate(-0.57 0.41) rotate(-0.13)" fill="#90340d"/><rect x="164.84" y="31.68" width="23.02" height="42.42" transform="translate(-0.12 0.41) rotate(-0.13)" fill="#90340d"/><rect x="0.16" y="125.12" width="93.72" height="21.05" transform="translate(-0.31 0.11) rotate(-0.13)" fill="#90340d"/><rect x="0.09" y="99.01" width="21.05" height="79.25" transform="translate(-0.32 0.02) rotate(-0.13)" fill="#90340d"/><rect x="21.25" y="120.63" width="21.05" height="35.84" transform="matrix(1, 0, 0, 1, -0.32, 0.07)" fill="#90340d"/><rect x="146.01" y="197.72" width="12.17" height="12.17" transform="translate(-0.47 0.35) rotate(-0.13)" fill="#7b2900"/><rect x="145.96" y="166.58" width="12.17" height="12.17" transform="translate(-0.4 0.35) rotate(-0.13)" fill="#7b2900"/><rect x="145.8" y="135.36" width="12.17" height="12.17" transform="translate(-0.33 0.35) rotate(-0.13)" fill="#7b2900"/><rect x="145.75" y="104.23" width="12.17" height="12.17" transform="translate(-0.25 0.35) rotate(-0.13)" fill="#7b2900"/><rect x="123.53" y="182.2" width="12.17" height="12.17" transform="translate(-0.43 0.3) rotate(-0.13)" fill="#7b2900"/><rect x="123.65" y="151.06" width="12.17" height="12.17" transform="translate(-0.36 0.3) rotate(-0.13)" fill="#7b2900"/><rect x="123.66" y="119.75" width="12.17" height="12.17" transform="translate(-0.29 0.3) rotate(-0.13)" fill="#7b2900"/><rect x="123.5" y="88.37" width="12.17" height="12.17" transform="translate(-0.22 0.3) rotate(-0.13)" fill="#7b2900"/><rect x="102.55" y="200.21" width="12.17" height="12.17" transform="translate(-0.48 0.25) rotate(-0.13)" fill="#7b2900"/><rect x="102.49" y="169.01" width="12.17" height="12.17" transform="translate(-0.4 0.25) rotate(-0.13)" fill="#7b2900"/><rect x="102.5" y="137.69" width="12.17" height="12.17" transform="translate(-0.33 0.25) rotate(-0.13)" fill="#7b2900"/><rect x="102.52" y="106.54" width="12.17" height="12.17" transform="translate(-0.26 0.25) rotate(-0.13)" fill="#7b2900"/><rect x="240.96" width="11.12" height="74.13" fill="#90340d"/><rect x="272.62" y="-31.5" width="11.12" height="74.13" transform="translate(283.74 -272.62) rotate(90)" fill="#90340d"/><rect x="304.12" width="11.12" height="74.13" transform="translate(619.36 74.13) rotate(180)" fill="#90340d"/><rect x="292.3" y="74.13" width="36.71" height="36.71" fill="#fff682"/><rect x="225.54" y="137.68" width="5.22" height="50.61" fill="#fffef9"/><rect x="235.89" y="137.68" width="5.22" height="50.61" fill="#fffef9"/><rect x="246.23" y="137.68" width="5.22" height="50.61" fill="#fffef9"/><rect x="256.58" y="137.68" width="5.22" height="50.61" fill="#fffef9"/><rect x="266.93" y="137.68" width="5.22" height="50.61" fill="#fffef9"/><rect x="220.37" y="130.5" width="5.22" height="50.61" fill="#e4e5e6"/><rect x="230.71" y="130.5" width="5.22" height="50.61" fill="#e4e5e6"/><rect x="241.06" y="130.5" width="5.22" height="50.61" fill="#e4e5e6"/><rect x="251.41" y="130.5" width="5.22" height="50.61" fill="#e4e5e6"/><rect x="261.75" y="130.5" width="5.22" height="50.61" fill="#e4e5e6"/><rect x="196.41" y="84.91" width="29.61" height="29.61" fill="#51342d"/></svg>