<svg id="88dd44a0-df4e-4110-ad74-2a6b4532a352" data-name="Layer 1" xmlns="http://www.w3.org/2000/svg" viewBox="0 0 1723.28 629.89"><title>Hello World</title><rect width="1723.28" height="209.96" fill="#4d5193"/><rect y="209.96" width="1723.28" height="209.96" fill="#1f2b7b"/><rect y="419.93" width="1723.28" height="209.96" fill="#11165d"/><rect x="1317.12" y="192.46" width="8.63" height="8.63" fill="#fff"/><rect x="1249.69" y="211.3" width="8.63" height="8.63" fill="#fff"/><rect x="1451.97" y="230.14" width="8.63" height="8.63" fill="#fff"/><rect x="1114.84" y="248.98" width="8.63" height="8.63" fill="#fff"/><rect x="1586.82" y="267.83" width="8.63" height="8.63" fill="#fff"/><rect x="1519.4" y="286.67" width="8.63" height="8.63" fill="#fff"/><rect x="1654.25" y="305.51" width="8.63" height="8.63" fill="#fff"/><rect x="1384.54" y="324.35" width="8.63" height="8.63" fill="#fff"/><rect x="1047.41" y="343.19" width="8.63" height="8.63" fill="#fff"/><rect x="979.98" y="362.03" width="8.63" height="8.63" fill="#fff"/><rect x="1182.26" y="380.87" width="8.63" height="8.63" fill="#fff"/><rect x="845.13" y="399.72" width="8.63" height="8.63" fill="#fff"/><rect x="777.7" y="418.56" width="8.63" height="8.63" fill="#fff"/><rect x="710.27" y="437.4" width="8.63" height="8.63" fill="#fff"/><rect x="912.55" y="456.24" width="8.63" height="8.63" fill="#fff"/><rect x="575.42" y="475.08" width="8.63" height="8.63" fill="#fff"/><rect x="507.99" y="493.92" width="8.63" height="8.63" fill="#fff"/><rect x="440.57" y="512.77" width="8.63" height="8.63" fill="#fff"/><rect x="642.85" y="531.61" width="8.63" height="8.63" fill="#fff"/><rect x="373.14" y="550.45" width="8.63" height="8.63" fill="#fff"/><rect x="238.29" y="569.29" width="8.63" height="8.63" fill="#fff"/><rect x="170.86" y="569.29" width="8.63" height="8.63" fill="#fff"/><rect x="305.71" y="569.29" width="8.63" height="8.63" fill="#fff"/><rect x="103.43" y="569.29" width="8.63" height="8.63" fill="#fff"/><polygon points="0 58 255.95 313.95 0 569.91 0 58" fill="#fff200"/><rect x="1350.75" y="423.81" width="14.95" height="49.06" transform="translate(9.34 924.04) rotate(-37.69)" fill="#e0cfcb"/><rect x="1377.26" y="463.83" width="4.78" height="7.82" transform="translate(1.95 941.18) rotate(-37.69)" fill="#fbf5e6"/><rect x="1371.39" y="468.36" width="4.78" height="7.82" transform="translate(-2.05 938.54) rotate(-37.69)" fill="#fbf5e6"/><rect x="1324.09" y="444.41" width="14.95" height="49.06" transform="translate(-8.82 912.04) rotate(-37.69)" fill="#e0cfcb"/><rect x="1350.6" y="484.42" width="4.78" height="7.82" transform="translate(-16.21 929.18) rotate(-37.69)" fill="#fbf5e6"/><rect x="1344.73" y="488.96" width="4.78" height="7.82" transform="translate(-20.21 926.54) rotate(-37.69)" fill="#fbf5e6"/><rect x="1337.42" y="434.11" width="14.95" height="49.06" transform="translate(0.26 918.04) rotate(-37.69)" fill="#e0cfcb"/><rect x="1363.93" y="474.12" width="4.78" height="7.82" transform="translate(-7.13 935.18) rotate(-37.69)" fill="#fbf5e6"/><rect x="1358.06" y="478.66" width="4.78" height="7.82" transform="translate(-11.13 932.54) rotate(-37.69)" fill="#fbf5e6"/><rect x="1310.76" y="454.71" width="14.95" height="49.06" transform="translate(-17.9 906.04) rotate(-37.69)" fill="#e0cfcb"/><rect x="1337.27" y="494.72" width="4.78" height="7.82" transform="translate(-25.29 923.18) rotate(-37.69)" fill="#fbf5e6"/><rect x="1331.4" y="499.26" width="4.78" height="7.82" transform="translate(-29.29 920.54) rotate(-37.69)" fill="#fbf5e6"/><rect x="1297.04" y="465.32" width="14.95" height="49.06" transform="translate(-27.25 899.86) rotate(-37.69)" fill="#e0cfcb"/><rect x="1323.54" y="505.33" width="4.78" height="7.82" transform="translate(-34.64 917) rotate(-37.69)" fill="#fbf5e6"/><rect x="1317.68" y="509.86" width="4.78" height="7.82" transform="translate(-38.64 914.36) rotate(-37.69)" fill="#fbf5e6"/><rect x="1270.38" y="485.92" width="14.95" height="49.06" transform="translate(-45.41 887.86) rotate(-37.69)" fill="#e0cfcb"/><rect x="1296.89" y="525.93" width="4.78" height="7.82" transform="translate(-52.8 905) rotate(-37.69)" fill="#fbf5e6"/><rect x="1291.02" y="530.46" width="4.78" height="7.82" transform="translate(-56.79 902.36) rotate(-37.69)" fill="#fbf5e6"/><rect x="1283.71" y="475.62" width="14.95" height="49.06" transform="translate(-36.33 893.86) rotate(-37.69)" fill="#e0cfcb"/><rect x="1310.21" y="515.63" width="4.78" height="7.82" transform="translate(-43.72 911) rotate(-37.69)" fill="#fbf5e6"/><rect x="1304.35" y="520.16" width="4.78" height="7.82" transform="translate(-47.71 908.36) rotate(-37.69)" fill="#fbf5e6"/><rect x="1257.05" y="496.22" width="14.95" height="49.06" transform="translate(-54.49 881.86) rotate(-37.69)" fill="#e0cfcb"/><rect x="1283.56" y="536.23" width="4.78" height="7.82" transform="translate(-61.88 899) rotate(-37.69)" fill="#fbf5e6"/><rect x="1277.69" y="540.76" width="4.78" height="7.82" transform="translate(-65.87 896.36) rotate(-37.69)" fill="#fbf5e6"/><rect x="1304.06" y="386.35" width="31.65" height="76.1" transform="translate(15.98 895.6) rotate(-37.69)" fill="#efe6e3"/><rect x="1279.22" y="405.54" width="31.65" height="76.1" transform="translate(-0.95 884.41) rotate(-37.69)" fill="#e0cfcb"/><rect x="1254.17" y="424.89" width="31.65" height="76.1" transform="translate(-18 873.14) rotate(-37.69)" fill="#efe6e3"/><rect x="1229.13" y="444.24" width="31.65" height="76.1" transform="translate(-35.06 861.87) rotate(-37.69)" fill="#e0cfcb"/><rect x="1329.1" y="367" width="31.65" height="76.1" transform="translate(33.04 906.87) rotate(-37.69)" fill="#e0cfcb"/><rect x="1344.31" y="326.42" width="121.87" height="121.87" transform="translate(56.44 940.06) rotate(-37.69)" fill="#e0cfcb"/><rect x="1360.59" y="343.21" width="88.46" height="88.46" transform="translate(56.3 939.82) rotate(-37.69)" fill="#d2bab7"/><rect x="1390.89" y="372.19" width="29.64" height="29.64" transform="translate(56.75 940.27) rotate(-37.69)" fill="#e0cfcb"/><rect x="1394.51" y="375.81" width="22.39" height="22.39" transform="translate(56.75 940.27) rotate(-37.69)" fill="#b99590"/><rect x="1399.24" y="380.53" width="12.94" height="12.94" transform="translate(56.75 940.27) rotate(-37.69)" fill="#6f4a49"/><rect x="914.51" y="253.08" width="58.05" height="58.05" transform="translate(-39.55 340.32) rotate(-20.03)" fill="#9d503a"/><rect x="884.66" y="276.88" width="117.37" height="10.56" transform="translate(-39.58 340.26) rotate(-20.03)" fill="#d68778"/><rect x="702.08" y="226.56" width="125.35" height="125.35" transform="translate(-52.81 279.5) rotate(-20.03)" fill="#e09641"/><rect x="706.42" y="284.8" width="125.35" height="32.69" transform="translate(-56.63 281.71) rotate(-20.03)" fill="#dc4c3f"/><rect x="686.12" y="229.15" width="125.35" height="32.69" transform="translate(-38.79 271.39) rotate(-20.03)" fill="#dc4c3f"/><rect x="488.76" y="292.25" width="53.38" height="53.38" transform="translate(-78.07 195.89) rotate(-20.03)" fill="#81cbeb"/><rect x="491.81" y="323.81" width="13.92" height="13.92" transform="translate(-83.14 190.89) rotate(-20.03)" fill="#aac779"/><rect x="486.83" y="309.49" width="21.44" height="13.92" transform="translate(-78.3 189.61) rotate(-20.03)" fill="#aac779"/><rect x="526.89" y="310.65" width="15.97" height="13.92" transform="translate(-76.44 202.46) rotate(-20.03)" fill="#aac779"/><rect x="509.87" y="339.87" width="28.01" height="4.36" transform="translate(-85.48 200.17) rotate(-20.03)" fill="#aac779"/><rect x="520.21" y="297.96" width="17.96" height="13.92" transform="translate(-72.44 199.75) rotate(-20.03)" fill="#aac779"/><rect x="611.11" y="300.48" width="19.33" height="19.33" transform="translate(-68.69 231.44) rotate(-20.03)" fill="#ed017f"/><rect x="611.78" y="309.46" width="19.33" height="5.04" transform="translate(-69.27 231.78) rotate(-20.03)" fill="#f384a1"/><rect x="608.65" y="300.88" width="19.33" height="5.04" transform="translate(-66.52 230.19) rotate(-20.03)" fill="#f384a1"/><rect x="1067.25" y="269.33" width="25.59" height="25.59" transform="translate(-31.3 387.09) rotate(-20.03)" fill="#c58979"/><rect x="1068.14" y="281.22" width="25.59" height="6.67" transform="translate(-32.07 387.54) rotate(-20.03)" fill="#baa88d"/><rect x="1064" y="269.86" width="25.59" height="6.67" transform="translate(-28.43 385.43) rotate(-20.03)" fill="#baa88d"/><rect x="1181.23" y="269.33" width="25.59" height="25.59" transform="translate(-24.4 426.14) rotate(-20.03)" fill="#d0ecf6"/><rect x="1182.12" y="281.22" width="25.59" height="6.67" transform="translate(-25.18 426.59) rotate(-20.03)" fill="#7cccbf"/><rect x="1177.98" y="269.86" width="25.59" height="6.67" transform="translate(-21.54 424.48) rotate(-20.03)" fill="#7cccbf"/><rect x="398.03" y="305.15" width="32.94" height="32.94" transform="translate(-85.1 161.47) rotate(-20.03)" fill="#ebe70e"/><rect x="399.17" y="320.46" width="32.94" height="8.59" transform="translate(-86.1 162.05) rotate(-20.03)" fill="#f5f2a8"/><rect x="393.84" y="305.83" width="32.94" height="8.59" transform="translate(-81.42 159.34) rotate(-20.03)" fill="#f5f2a8"/><rect x="334.25" y="319.54" width="13.62" height="13.62" transform="translate(-91.16 136.59) rotate(-20.03)" fill="#d93833"/><rect x="334.72" y="325.87" width="13.62" height="3.55" transform="translate(-91.58 136.83) rotate(-20.03)" fill="#dc4c3f"/><rect x="332.52" y="319.82" width="13.62" height="3.55" transform="translate(-89.64 135.71) rotate(-20.03)" fill="#dc4c3f"/></svg>