<svg id="5147a4b2-0286-47d7-b341-4f44c18f8dbe" data-name="Layer 1" xmlns="http://www.w3.org/2000/svg" viewBox="0 0 302.19 346.85"><title>Hello World</title><rect x="241.2" y="90.43" width="31.78" height="94.74" transform="translate(-20.69 226.82) rotate(-45.96)" fill="#b97362"/><rect x="216.16" y="110.13" width="31.78" height="68.95" transform="translate(-33.21 210.89) rotate(-45.96)" fill="#b97362"/><rect x="193.06" y="129.54" width="31.78" height="48.53" transform="translate(-46.87 197.09) rotate(-45.96)" fill="#b97362"/><rect x="175.82" y="295.61" width="13.37" height="39.2" transform="translate(359.7 633.44) rotate(-179.04)" fill="#593939"/><rect x="175.42" y="334.98" width="32.92" height="8.53" transform="translate(378.04 681.65) rotate(-179.04)" fill="#593939"/><rect x="113" y="298.68" width="13.37" height="39.2" transform="translate(234.03 638.52) rotate(-179.04)" fill="#593939"/><rect x="112.6" y="338.04" width="32.92" height="8.53" transform="translate(252.37 686.72) rotate(-179.04)" fill="#593939"/><rect x="84.68" y="106.68" width="136.15" height="200.84" transform="translate(302.01 416.72) rotate(-179.04)" fill="#863d11"/><rect x="199.4" y="78.73" width="50.31" height="21.78" transform="translate(447.58 182.99) rotate(-179.04)" fill="#ffc809"/><rect x="103.26" y="12.29" width="109.26" height="109.26" transform="translate(314.64 136.47) rotate(-179.04)" fill="#863d11"/><rect x="89.42" y="14.44" width="50.31" height="21.78" transform="translate(141.82 -88.8) rotate(90.96)" fill="#863d11"/><rect x="177.53" y="14.44" width="50.31" height="21.78" transform="translate(231.4 -176.89) rotate(90.96)" fill="#863d11"/><rect x="146.56" y="43.93" width="28.6" height="28.6" transform="matrix(-1, -0.02, 0.02, -1, 320.73, 119.15)" fill="#4f3231"/><rect x="151.63" y="49.46" width="17.5" height="17.5" transform="translate(319.77 119.1) rotate(-179.04)" fill="#f1f2f2"/><rect x="139.29" y="148.42" width="81.19" height="159.55" transform="translate(355.93 459.37) rotate(-179.04)" fill="#eed1bf"/><rect x="146.1" y="155.69" width="14.8" height="14.8" fill="#d96931"/><rect x="146.1" y="193.67" width="14.8" height="14.8" fill="#d96931"/><rect x="146.1" y="231.65" width="14.8" height="14.8" fill="#d96931"/><rect x="146.1" y="269.63" width="14.8" height="14.8" fill="#d96931"/><rect x="173.06" y="174.76" width="14.8" height="14.8" fill="#d96931"/><rect x="173.06" y="212.74" width="14.8" height="14.8" fill="#d96931"/><rect x="173.06" y="250.72" width="14.8" height="14.8" fill="#d96931"/><rect x="173.06" y="288.7" width="14.8" height="14.8" fill="#d96931"/><rect x="198.88" y="152.89" width="14.8" height="14.8" fill="#d96931"/><rect x="198.88" y="190.87" width="14.8" height="14.8" fill="#d96931"/><rect x="198.88" y="228.85" width="14.8" height="14.8" fill="#d96931"/><rect x="198.88" y="266.83" width="14.8" height="14.8" fill="#d96931"/><rect x="29.21" y="78.76" width="31.78" height="94.74" transform="translate(-14.22 246.23) rotate(-134.04)" fill="#b97362"/><rect x="54.25" y="98.46" width="31.78" height="68.95" transform="translate(23.34 275.75) rotate(-134.04)" fill="#b97362"/><rect x="77.35" y="117.87" width="31.78" height="48.53" transform="translate(55.88 307.96) rotate(-134.04)" fill="#b97362"/></svg>