<svg id="f70e5d50-f4e2-481a-982a-49dfc304b316" data-name="Layer 1" xmlns="http://www.w3.org/2000/svg" viewBox="0 0 1723.28 629.89"><title>Hello World</title><rect width="1723.28" height="209.96" fill="#e8f6fd"/><rect y="209.96" width="1723.28" height="209.96" fill="#d9f1fd"/><rect y="419.93" width="1723.28" height="209.96" fill="#c9ebfc"/><rect x="118.56" y="127.47" width="186.02" height="34" fill="#fffef9"/><rect x="653.13" y="87.39" width="186.02" height="34" fill="#fffef9"/><rect x="491.11" y="278.9" width="186.02" height="34" fill="#fffef9"/><rect x="1039.74" y="199.47" width="186.02" height="34" fill="#fffef9"/><rect x="1361.86" y="70.39" width="186.02" height="34" fill="#fffef9"/><rect x="231.13" y="458.4" width="186.02" height="34" fill="#fffef9"/><rect x="1039.74" y="475.4" width="186.02" height="34" fill="#fffef9"/><rect x="1361.86" y="346.32" width="186.02" height="34" fill="#fffef9"/><rect x="884.23" y="245.53" width="143.12" height="102.37" fill="#f5eb0e"/><rect x="909.59" y="245.53" width="17.33" height="102.37" fill="#010101"/><rect x="964.46" y="245.53" width="19.58" height="102.37" fill="#010101"/><rect x="1007.78" y="245.53" width="19.58" height="102.37" fill="#010101"/><rect x="840.27" y="275.69" width="43.96" height="6.42" fill="#010101"/><rect x="840.27" y="306.82" width="43.96" height="6.42" fill="#010101"/><rect x="936.54" y="192.58" width="21.5" height="52.95" fill="#e5e5e4"/><rect x="973.12" y="192.58" width="21.5" height="52.95" fill="#e5e5e4"/></svg>