<svg id="6ff2645c-66c3-4dff-8ae2-266939162532" data-name="Layer 1" xmlns="http://www.w3.org/2000/svg" viewBox="0 0 305.37 110.52"><title>Hello World</title><rect x="70.08" y="28.95" width="138.1" height="56.52" fill="#7392ba"/><rect x="189.79" y="46.87" width="4.6" height="25.51" fill="#c0282d"/><rect x="180.37" y="46.87" width="4.6" height="25.51" fill="#c0282d"/><rect x="173.48" y="46.87" width="4.6" height="25.51" fill="#c0282d"/><rect x="164.29" y="46.87" width="4.6" height="25.51" fill="#c0282d"/><rect width="16.31" height="70.08" fill="#7392ba"/><rect y="28.72" width="70.08" height="16.31" fill="#7392ba"/><rect x="199.9" y="28.72" width="105.47" height="33.09" fill="#7392ba"/><rect x="199.9" y="60.43" width="86.85" height="25.05" fill="#7392ba"/><rect x="123.16" y="37.91" width="22.98" height="9.42" fill="#7392ba"/><rect x="89.38" y="37.91" width="22.98" height="9.42" fill="#7392ba"/><rect x="123.16" y="61.81" width="22.98" height="9.42" fill="#7392ba"/><rect x="89.38" y="61.81" width="22.98" height="9.42" fill="#7392ba"/><rect x="137.87" y="77.43" width="20.45" height="33.09" fill="#7392ba"/><rect x="137.87" y="3.91" width="20.45" height="25.51" fill="#7392ba"/><rect x="102.02" y="15.85" width="20.45" height="25.51" fill="#7392ba"/><rect x="279.87" y="60.43" width="6.89" height="6.89" fill="#eae8f1"/><rect x="272.97" y="67.09" width="6.89" height="6.89" fill="#eae8f1"/><rect x="266.31" y="60.43" width="6.89" height="6.89" fill="#eae8f1"/><rect x="259.42" y="67.09" width="6.89" height="6.89" fill="#eae8f1"/><rect x="252.75" y="60.43" width="6.89" height="6.89" fill="#eae8f1"/><rect x="245.86" y="67.09" width="6.89" height="6.89" fill="#eae8f1"/></svg>