<svg id="3c2a1510-e712-4802-9808-17b333fe4133" data-name="Layer 1" xmlns="http://www.w3.org/2000/svg" viewBox="0 0 242.41 134.42"><title>Hello World</title><rect x="198.99" y="119.48" width="43.43" height="14.94" fill="#979797"/><rect y="82.03" width="42.74" height="35.85" fill="#979797"/><rect x="133.27" width="88" height="98.8" fill="#b4b2b4"/><rect x="32.17" y="57.44" width="189.11" height="76.97" fill="#b4b2b4"/><rect x="187.04" y="31.71" width="6.43" height="6.43" fill="#818181"/><rect x="166.13" y="31.71" width="6.43" height="6.43" fill="#818181"/><rect x="73.99" y="58.13" width="17" height="10.57" fill="#818181"/><rect x="49.86" y="58.13" width="17" height="10.57" fill="#818181"/><rect x="101.79" y="58.13" width="17" height="10.57" fill="#818181"/><rect x="73.99" y="75.14" width="17" height="10.57" fill="#818181"/><rect x="49.86" y="75.14" width="17" height="10.57" fill="#818181"/><rect x="101.79" y="75.14" width="17" height="10.57" fill="#818181"/><rect x="73.99" y="93.29" width="17" height="10.57" fill="#818181"/><rect x="49.86" y="93.29" width="17" height="10.57" fill="#818181"/><rect x="101.79" y="93.29" width="17" height="10.57" fill="#818181"/><rect x="10.34" y="93.06" width="37.68" height="41.13" fill="#b4b2b4"/><rect x="105.47" y="119.25" width="49.17" height="14.94" fill="#cbcbca"/></svg>