<svg id="b57dd8bb-767e-4792-bea6-2f0aff4bbe36" data-name="Layer 1" xmlns="http://www.w3.org/2000/svg" viewBox="0 0 349.72 151.88"><title>Hello World</title><rect x="223.57" y="24.13" width="126.15" height="103.63" fill="#bddcf4"/><rect x="243.1" y="42.05" width="7.81" height="7.12" fill="#5c64ad"/><rect y="70.77" width="82.95" height="18.38" fill="#a13d24"/><rect x="144.3" width="21.6" height="24.36" fill="#a13d24"/><rect x="142.46" y="127.53" width="21.6" height="24.36" fill="#a13d24"/><rect x="200.13" y="24.36" width="23.44" height="103.17" fill="#90cff1"/><rect x="176.7" y="24.36" width="23.44" height="103.17" fill="#81bde7"/><rect x="153.26" y="24.36" width="23.44" height="103.17" fill="#98daf1"/><rect x="129.82" y="24.36" width="23.44" height="103.17" fill="#ffcc5d"/><rect x="106.39" y="24.36" width="23.44" height="103.17" fill="#f27c47"/><rect x="59.51" y="24.36" width="23.44" height="103.17" fill="#a12023"/><rect x="82.95" y="24.36" width="23.44" height="103.17" fill="#ed5628"/><rect x="136.95" y="30.56" width="3.45" height="3.22" fill="#fff"/><rect x="136.95" y="35.85" width="3.45" height="3.22" fill="#fff"/><rect x="136.95" y="41.36" width="3.45" height="3.22" fill="#fff"/><rect x="136.95" y="46.64" width="3.45" height="3.22" fill="#fff"/><rect x="155.33" y="50.78" width="3.45" height="3.22" fill="#fff"/><rect x="155.33" y="56.07" width="3.45" height="3.22" fill="#fff"/><rect x="155.33" y="61.35" width="3.45" height="3.22" fill="#fff"/><rect x="155.33" y="66.63" width="3.45" height="3.22" fill="#fff"/><rect x="176.24" y="77.2" width="3.45" height="3.22" fill="#fff"/><rect x="176.24" y="82.49" width="3.45" height="3.22" fill="#fff"/><rect x="176.24" y="88" width="3.45" height="3.22" fill="#fff"/><rect x="176.24" y="93.29" width="3.45" height="3.22" fill="#fff"/><rect x="104.32" y="78.35" width="3.45" height="3.22" fill="#fff"/><rect x="104.32" y="83.87" width="3.45" height="3.22" fill="#fff"/><rect x="104.32" y="89.15" width="3.45" height="3.22" fill="#fff"/><rect x="104.32" y="94.44" width="3.45" height="3.22" fill="#fff"/><rect x="83.18" y="54.92" width="3.45" height="3.22" fill="#fff"/><rect x="83.18" y="60.2" width="3.45" height="3.22" fill="#fff"/><rect x="83.18" y="65.72" width="3.45" height="3.22" fill="#fff"/><rect x="83.18" y="71" width="3.45" height="3.22" fill="#fff"/><rect x="63.42" y="29.41" width="3.45" height="3.22" fill="#fff"/><rect x="63.42" y="34.7" width="3.45" height="3.22" fill="#fff"/><rect x="63.42" y="40.21" width="3.45" height="3.22" fill="#fff"/><rect x="63.42" y="45.5" width="3.45" height="3.22" fill="#fff"/></svg>