<svg id="d52b3d69-a6aa-4b9f-b339-2537e79ca62f" data-name="Layer 1" xmlns="http://www.w3.org/2000/svg" viewBox="0 0 1723.28 629.89"><title>Hello World</title><rect width="1723.28" height="209.96" fill="#ecd3e6"/><rect y="209.96" width="1723.28" height="209.96" fill="#dac1dd"/><rect y="419.93" width="1723.28" height="209.96" fill="#c1acc5"/><rect x="1.82" y="573.79" width="1721.46" height="56.16" fill="#910045"/><rect x="1376.82" y="433.16" width="72.21" height="112.43" fill="#a79d2a"/><rect x="1088.12" y="518.29" width="68.48" height="27.98" fill="#a79d2a"/><rect x="1271.97" y="532.14" width="25.58" height="57.02" fill="#a79d2a"/><rect x="1236.8" y="532.14" width="25.58" height="57.02" fill="#a79d2a"/><rect x="1203.5" y="532.14" width="25.58" height="57.02" fill="#a79d2a"/><rect x="1171.26" y="532.14" width="25.58" height="57.02" fill="#a79d2a"/><rect x="1145.41" y="406.11" width="159.34" height="139.62" fill="#4f3231"/><rect x="1352.17" y="479.38" width="7.73" height="43.96" fill="#999dc7"/><rect x="1335.92" y="479.38" width="7.73" height="43.96" fill="#999dc7"/><rect x="1323.93" y="479.38" width="7.73" height="43.96" fill="#999dc7"/><rect x="1307.94" y="479.38" width="7.73" height="43.96" fill="#999dc7"/><rect x="1304.75" y="473.52" width="144.15" height="72.21" fill="#a79d2a"/><rect x="1236.8" y="463.66" width="39.7" height="16.25" fill="#593939"/><rect x="1427.18" y="452.28" width="12.52" height="16.25" fill="#863d11"/><rect x="1396.8" y="452.28" width="12.52" height="16.25" fill="#863d11"/><rect x="1178.45" y="463.66" width="39.7" height="16.25" fill="#593939"/><rect x="1236.8" y="428.53" width="39.7" height="16.25" fill="#593939"/><rect x="1178.45" y="428.53" width="39.7" height="16.25" fill="#593939"/><rect x="1236.8" y="504.96" width="39.7" height="16.25" fill="#593939"/><rect x="1178.45" y="504.96" width="39.7" height="16.25" fill="#593939"/><rect x="437.22" y="446.45" width="356.13" height="182.24" fill="#910045"/><rect x="484.33" y="386.87" width="265.52" height="150.71" fill="#97134d"/><rect x="527.44" y="327.21" width="184.41" height="150.71" fill="#910045"/><rect x="571.69" y="274.49" width="95.9" height="150.71" fill="#97134d"/><rect x="587.63" y="274.49" width="64.03" height="30.1" fill="#f04e36"/><rect x="67.43" y="505.86" width="240.04" height="122.84" fill="#910045"/><rect x="99.18" y="465.7" width="178.96" height="101.58" fill="#97134d"/><rect x="128.24" y="425.49" width="124.29" height="101.58" fill="#910045"/><rect x="158.07" y="389.96" width="64.63" height="101.58" fill="#97134d"/><rect x="168.81" y="389.96" width="43.16" height="20.29" fill="#f04e36"/><rect x="1284.25" y="88.14" width="8.63" height="8.63" fill="#7b7c7f"/><rect x="1216.82" y="106.98" width="8.63" height="8.63" fill="#7b7c7f"/><rect x="1419.11" y="125.82" width="8.63" height="8.63" fill="#7b7c7f"/><rect x="1081.97" y="144.66" width="8.63" height="8.63" fill="#7b7c7f"/><rect x="1553.96" y="163.51" width="8.63" height="8.63" fill="#7b7c7f"/><rect x="1486.53" y="182.35" width="8.63" height="8.63" fill="#7b7c7f"/><rect x="1621.39" y="201.19" width="8.63" height="8.63" fill="#7b7c7f"/><rect x="1351.68" y="220.03" width="8.63" height="8.63" fill="#7b7c7f"/><rect x="1014.54" y="238.87" width="8.63" height="8.63" fill="#7b7c7f"/><rect x="947.12" y="257.71" width="8.63" height="8.63" fill="#7b7c7f"/><rect x="1149.4" y="276.56" width="8.63" height="8.63" fill="#7b7c7f"/><rect x="812.26" y="295.4" width="8.63" height="8.63" fill="#7b7c7f"/><rect x="744.84" y="314.24" width="8.63" height="8.63" fill="#7b7c7f"/><rect x="677.41" y="333.08" width="8.63" height="8.63" fill="#7b7c7f"/><rect x="879.69" y="351.92" width="8.63" height="8.63" fill="#7b7c7f"/><rect x="542.56" y="370.76" width="8.63" height="8.63" fill="#7b7c7f"/><rect x="475.13" y="389.6" width="8.63" height="8.63" fill="#7b7c7f"/><rect x="407.7" y="408.45" width="8.63" height="8.63" fill="#7b7c7f"/><rect x="609.98" y="427.29" width="8.63" height="8.63" fill="#7b7c7f"/><rect x="340.28" y="446.13" width="8.63" height="8.63" fill="#7b7c7f"/><rect x="205.42" y="464.97" width="8.63" height="8.63" fill="#7b7c7f"/><rect x="137.99" y="464.97" width="8.63" height="8.63" fill="#7b7c7f"/><rect x="272.85" y="464.97" width="8.63" height="8.63" fill="#7b7c7f"/><rect x="70.57" y="464.97" width="8.63" height="8.63" fill="#7b7c7f"/><rect x="634.92" y="241.24" width="8.63" height="8.63" fill="#f04e36"/><rect x="648.91" y="227.25" width="8.63" height="8.63" fill="#f04e36"/><rect x="664.65" y="211.51" width="8.63" height="8.63" fill="#f04e36"/><rect x="678.94" y="197.22" width="8.63" height="8.63" fill="#f04e36"/><rect x="615.91" y="242.64" width="8.63" height="8.63" transform="translate(6.49 509.62) rotate(-44.88)" fill="#f04e36"/><rect x="615.95" y="222.84" width="8.63" height="8.63" transform="translate(20.47 503.88) rotate(-44.88)" fill="#f04e36"/><rect x="616" y="200.58" width="8.63" height="8.63" transform="translate(36.19 497.42) rotate(-44.88)" fill="#f04e36"/><rect x="616.04" y="180.37" width="8.63" height="8.63" transform="translate(50.46 491.56) rotate(-44.88)" fill="#f04e36"/><rect x="594.86" y="245.37" width="8.63" height="8.63" transform="translate(370.11 857.04) rotate(-91.96)" fill="#f04e36"/><rect x="580.39" y="231.86" width="8.63" height="8.63" transform="translate(368.65 828.61) rotate(-91.96)" fill="#f04e36"/><rect x="564.12" y="216.67" width="8.63" height="8.63" transform="translate(367.01 796.64) rotate(-91.96)" fill="#f04e36"/><rect x="549.35" y="202.88" width="8.63" height="8.63" transform="translate(365.52 767.62) rotate(-91.96)" fill="#f04e36"/><rect x="203.98" y="357.95" width="8.63" height="8.63" fill="#f04e36"/><rect x="217.98" y="343.96" width="8.63" height="8.63" fill="#f04e36"/><rect x="233.71" y="328.22" width="8.63" height="8.63" fill="#f04e36"/><rect x="248.01" y="313.93" width="8.63" height="8.63" fill="#f04e36"/><rect x="184.97" y="359.35" width="8.63" height="8.63" transform="translate(-201.45 239.55) rotate(-44.88)" fill="#f04e36"/><rect x="185.01" y="339.56" width="8.63" height="8.63" transform="translate(-187.47 233.81) rotate(-44.88)" fill="#f04e36"/><rect x="185.06" y="317.3" width="8.63" height="8.63" transform="translate(-171.75 227.35) rotate(-44.88)" fill="#f04e36"/><rect x="185.1" y="297.09" width="8.63" height="8.63" transform="translate(-157.48 221.49) rotate(-44.88)" fill="#f04e36"/><rect x="163.92" y="362.09" width="8.63" height="8.63" transform="translate(-192.2 547.06) rotate(-91.96)" fill="#f04e36"/><rect x="149.45" y="348.58" width="8.63" height="8.63" transform="translate(-193.66 518.63) rotate(-91.96)" fill="#f04e36"/><rect x="133.18" y="333.39" width="8.63" height="8.63" transform="translate(-195.3 486.66) rotate(-91.96)" fill="#f04e36"/><rect x="118.41" y="319.59" width="8.63" height="8.63" transform="translate(-196.79 457.64) rotate(-91.96)" fill="#f04e36"/></svg>