<svg id="6c07b443-af53-4c5f-bb24-5b83933daefb" data-name="Layer 1" xmlns="http://www.w3.org/2000/svg" viewBox="0 0 317.82 241.73"><title>Hello World</title><rect x="215.76" y="-75.64" width="13.61" height="164.89" transform="translate(229.37 -215.76) rotate(90)" fill="#51342d"/><rect x="215.76" y="152.48" width="13.61" height="164.89" transform="translate(457.5 12.36) rotate(90)" fill="#51342d"/><rect x="93" y="114.36" width="196.91" height="13.02" transform="translate(312.32 -70.59) rotate(90)" fill="#51342d"/><rect x="77.59" y="114.36" width="196.91" height="13.02" transform="translate(296.91 -55.18) rotate(90)" fill="#51342d"/><rect x="62.18" y="114.36" width="196.91" height="13.02" transform="translate(281.5 -39.77) rotate(90)" fill="#51342d"/><rect x="46.77" y="114.36" width="196.91" height="13.02" transform="translate(266.09 -24.35) rotate(90)" fill="#51342d"/><rect x="31.35" y="114.36" width="196.91" height="13.02" transform="translate(250.68 -8.94) rotate(90)" fill="#51342d"/><rect x="15.94" y="114.36" width="196.91" height="13.02" transform="translate(235.26 6.47) rotate(90)" fill="#51342d"/><rect x="0.53" y="114.36" width="196.91" height="13.02" transform="translate(219.85 21.88) rotate(90)" fill="#51342d"/><rect x="-14.88" y="114.36" width="196.91" height="13.02" transform="translate(204.44 37.29) rotate(90)" fill="#51342d"/><rect x="-30.29" y="114.36" width="196.91" height="13.02" transform="translate(189.03 52.71) rotate(90)" fill="#51342d"/><rect x="5.79" y="114.36" width="93.92" height="13.02" transform="translate(173.62 68.12) rotate(90)" fill="#51342d"/><rect x="-9.62" y="114.36" width="93.92" height="13.02" transform="translate(158.2 83.53) rotate(90)" fill="#51342d"/><rect x="-25.04" y="114.36" width="93.92" height="13.02" transform="translate(142.79 98.94) rotate(90)" fill="#51342d"/><rect x="-28.58" y="114.36" width="70.18" height="13.02" transform="translate(127.38 114.36) rotate(90)" fill="#51342d"/><rect x="146.04" y="69.16" width="214.52" height="103.42" transform="translate(374.17 -132.44) rotate(90)" fill="#51342d"/><rect x="218.03" y="114.46" width="186.77" height="12.81" transform="translate(432.28 -190.55) rotate(90)" fill="#51342d"/><rect x="229.08" y="62.81" width="57.63" height="119.85" transform="translate(380.63 -135.16) rotate(90)" fill="#61453e"/><rect x="268.15" y="199.4" width="11.47" height="41.18" transform="translate(493.88 -53.9) rotate(90)" fill="#fff"/><rect x="234.75" y="214.25" width="11.47" height="11.47" transform="translate(460.48 -20.5) rotate(90)" fill="#fff"/><rect x="147.17" y="114.36" width="88.58" height="13.02" transform="translate(312.32 -70.59) rotate(90)" fill="#61453e"/><rect x="131.75" y="114.36" width="88.58" height="13.02" transform="translate(296.91 -55.18) rotate(90)" fill="#61453e"/><rect x="116.34" y="114.36" width="88.58" height="13.02" transform="translate(281.5 -39.77) rotate(90)" fill="#61453e"/><rect x="100.93" y="114.36" width="88.58" height="13.02" transform="translate(266.09 -24.35) rotate(90)" fill="#61453e"/><rect x="85.52" y="114.36" width="88.58" height="13.02" transform="translate(250.68 -8.94) rotate(90)" fill="#61453e"/><rect x="70.11" y="114.36" width="88.58" height="13.02" transform="translate(235.26 6.47) rotate(90)" fill="#61453e"/><rect x="54.69" y="114.36" width="88.58" height="13.02" transform="translate(219.85 21.88) rotate(90)" fill="#61453e"/><rect x="39.28" y="114.36" width="88.58" height="13.02" transform="translate(204.44 37.29) rotate(90)" fill="#61453e"/><rect x="23.87" y="114.36" width="88.58" height="13.02" transform="translate(189.03 52.71) rotate(90)" fill="#61453e"/><rect x="31.62" y="114.36" width="42.25" height="13.02" transform="translate(173.62 68.12) rotate(90)" fill="#61453e"/><rect x="16.21" y="114.36" width="42.25" height="13.02" transform="translate(158.2 83.53) rotate(90)" fill="#61453e"/><rect x="0.8" y="114.36" width="42.25" height="13.02" transform="translate(142.79 98.94) rotate(90)" fill="#61453e"/><rect x="-9.27" y="114.36" width="31.57" height="13.02" transform="translate(127.38 114.36) rotate(90)" fill="#61453e"/><rect x="243.15" y="44.96" width="13.22" height="13.22" transform="translate(301.33 -198.2) rotate(90)" fill="#61453e"/><rect x="243.15" y="176.29" width="13.22" height="13.22" transform="translate(432.66 -66.86) rotate(90)" fill="#61453e"/></svg>