<svg id="1b52b44e-b8ba-4def-b017-0e5757c8d49d" data-name="Layer 1" xmlns="http://www.w3.org/2000/svg" viewBox="0 0 346.04 140.39"><title>Hello World</title><rect x="76.51" width="116.27" height="85.02" fill="#ac5b26"/><rect x="193.01" y="0.23" width="126.61" height="101.79" fill="#ac5b26"/><rect x="168.89" y="36.07" width="27.57" height="22.52" fill="#f2c9a3"/><rect x="207.95" y="12.41" width="96.28" height="75.6" fill="#f2c9a3"/><rect x="319.39" y="36.07" width="26.65" height="22.52" fill="#f2c9a3"/><rect x="225.64" y="32.4" width="7.81" height="8.73" fill="#221f1f"/><rect x="278.49" y="32.4" width="7.81" height="8.73" fill="#221f1f"/><rect x="156.48" width="5.51" height="47.1" fill="#934e1e"/><rect x="144.07" width="5.51" height="47.1" fill="#934e1e"/><rect x="130.51" width="5.51" height="47.1" fill="#934e1e"/><rect x="118.1" width="5.51" height="47.1" fill="#934e1e"/><rect x="105.47" width="5.51" height="47.1" fill="#934e1e"/><rect x="93.06" width="5.51" height="47.1" fill="#934e1e"/><rect x="80.88" width="5.51" height="47.1" fill="#934e1e"/><rect x="179.45" y="79.04" width="13.56" height="50.55" fill="#ac5b26"/><rect x="179.45" y="129.59" width="13.56" height="10.8" fill="#f2c9a3"/><rect x="146.6" y="129.59" width="13.56" height="10.8" fill="#f2c9a3"/><rect x="111.67" y="129.59" width="13.56" height="10.8" fill="#f2c9a3"/><rect x="76.51" y="129.59" width="13.56" height="10.8" fill="#f2c9a3"/><rect x="146.6" y="79.04" width="13.56" height="50.55" fill="#ac5b26"/><rect x="111.67" y="79.04" width="13.56" height="50.55" fill="#ac5b26"/><rect x="76.51" y="79.04" width="13.56" height="50.55" fill="#ac5b26"/><rect x="32.63" width="45.96" height="14.94" fill="#ac5b26"/><rect y="45.73" width="45.96" height="14.94" fill="#ac5b26"/><rect x="32.63" y="10.11" width="13.56" height="50.55" fill="#ac5b26"/></svg>