<svg id="55e738e1-5145-4a99-97e2-a959e7e6ece1" data-name="Layer 1" xmlns="http://www.w3.org/2000/svg" viewBox="0 0 201.74 262.17"><title>Hello World</title><rect x="62.96" y="95.82" width="86.17" height="132.81" fill="#e4c620"/><rect x="95.13" y="36.53" width="54" height="59.97" fill="#e4c620"/><rect x="108.91" y="36.3" width="92.83" height="54" fill="#e4c620"/><rect x="142.69" y="123.85" width="36.07" height="19.53" fill="#e4c620"/><rect x="142.46" y="96.28" width="36.07" height="19.53" fill="#e4c620"/><rect x="0.23" y="210.93" width="79.73" height="17.92" fill="#e4c620"/><rect y="188.88" width="17.92" height="39.75" fill="#e4c620"/><rect x="62.96" y="242.64" width="36.07" height="19.53" fill="#e4c620"/><rect x="62.96" y="210.24" width="17.92" height="39.75" fill="#e4c620"/><rect x="113.97" y="242.64" width="36.07" height="19.53" fill="#e4c620"/><rect x="114.2" y="210.47" width="17.92" height="39.75" fill="#e4c620"/><rect x="121.78" y="208.87" width="10.34" height="10.34" fill="#734b1f"/><rect x="121.78" y="182.21" width="10.34" height="10.34" fill="#734b1f"/><rect x="121.78" y="155.79" width="10.34" height="10.34" fill="#734b1f"/><rect x="121.78" y="129.13" width="10.34" height="10.34" fill="#734b1f"/><rect x="102.94" y="195.54" width="10.34" height="10.34" fill="#734b1f"/><rect x="102.71" y="168.89" width="10.34" height="10.34" fill="#734b1f"/><rect x="102.94" y="142.46" width="10.34" height="10.34" fill="#734b1f"/><rect x="102.71" y="115.81" width="10.34" height="10.34" fill="#734b1f"/><rect x="84.79" y="210.7" width="10.34" height="10.34" fill="#734b1f"/><rect x="84.79" y="184.05" width="10.34" height="10.34" fill="#734b1f"/><rect x="84.79" y="157.63" width="10.34" height="10.34" fill="#734b1f"/><rect x="85.02" y="130.97" width="10.34" height="10.34" fill="#734b1f"/><rect x="95.13" y="12.18" width="65.49" height="24.13" fill="#734b1f"/><rect x="107.99" width="39.75" height="12.18" fill="#734b1f"/><rect x="131.89" y="30.79" width="10.34" height="10.34" fill="#e6e7e7"/><rect x="113.51" y="30.79" width="10.34" height="10.34" fill="#e6e7e7"/><rect x="95.13" y="30.79" width="10.34" height="10.34" fill="#e6e7e7"/><rect x="150.27" y="30.79" width="10.34" height="10.34" fill="#e6e7e7"/></svg>