<svg id="4e0247f3-1650-4b62-aa42-492d9d49a35c" data-name="Layer 1" xmlns="http://www.w3.org/2000/svg" viewBox="0 0 232.76 144.07"><title>Hello World</title><rect x="20.22" y="36.99" width="102.94" height="77.43" fill="#eec6ce"/><rect x="116.73" y="36.99" width="92.14" height="73.53" fill="#eec6ce"/><rect x="193.24" width="20.22" height="110.29" fill="#eec6ce"/><rect x="122.47" width="20.22" height="110.29" fill="#eec6ce"/><rect x="109.6" y="104.32" width="13.56" height="38.6" fill="#eec6ce"/><rect x="85.71" y="104.32" width="13.56" height="38.6" fill="#eec6ce"/><rect x="61.35" y="104.32" width="13.56" height="38.6" fill="#eec6ce"/><rect x="41.13" y="105.47" width="13.56" height="38.6" fill="#eec6ce"/><rect y="36.99" width="20.22" height="12.18" fill="#eec6ce"/><rect x="157.63" y="81.34" width="20.22" height="8.27" fill="#ef4478"/><rect x="128.44" y="5.51" width="8.27" height="31.48" fill="#ef4478"/><rect x="199.22" y="5.51" width="8.27" height="31.48" fill="#ef4478"/><rect x="105.24" y="95.13" width="42.05" height="4.14" fill="#ed1b70"/><rect x="105.24" y="101.33" width="42.05" height="4.14" fill="#ed1b70"/><rect x="190.71" y="95.13" width="42.05" height="4.14" fill="#ed1b70"/><rect x="190.71" y="101.33" width="42.05" height="4.14" fill="#ed1b70"/></svg>