<svg id="d07606a2-ed04-427b-ba0a-bc4f4f03a936" data-name="Layer 1" xmlns="http://www.w3.org/2000/svg" viewBox="0 0 317.45 318.23"><title>Hello World</title><rect x="131.29" y="45.34" width="54.86" height="186.16" fill="#4c98cb"/><rect x="196.94" y="54.49" width="54.86" height="186.16" transform="translate(371.94 -76.8) rotate(90)" fill="#4c98cb"/><rect x="196.94" y="138.42" width="54.86" height="186.16" transform="translate(455.87 7.12) rotate(90)" fill="#4c98cb"/><rect x="65.65" y="157.67" width="54.86" height="186.16" transform="translate(343.83 157.67) rotate(90)" fill="#4c98cb"/><rect x="65.65" y="27.06" width="54.86" height="186.16" transform="translate(213.22 27.06) rotate(90)" fill="#4c98cb"/><rect y="52.66" width="54.86" height="94.91" transform="translate(54.86 200.23) rotate(180)" fill="#4c98cb"/><rect x="262.59" y="80.09" width="54.86" height="94.91" transform="translate(580.04 255.1) rotate(180)" fill="#4c98cb"/><rect x="262.59" y="204.06" width="54.86" height="94.91" transform="translate(580.04 503.04) rotate(180)" fill="#4c98cb"/><rect y="223.32" width="54.86" height="94.91" transform="translate(54.86 541.54) rotate(180)" fill="#4c98cb"/><rect x="131.29" width="54.86" height="94.91" transform="translate(317.45 94.91) rotate(180)" fill="#4c98cb"/><rect x="165.65" y="29.75" width="11.58" height="11.58" fill="#014976"/><rect x="165.65" y="52.66" width="11.58" height="11.58" fill="#014976"/><rect x="165.65" y="77.48" width="11.58" height="11.58" fill="#014976"/><rect x="294.22" y="94.91" width="11.58" height="11.58" fill="#014976"/><rect x="294.22" y="117.82" width="11.58" height="11.58" fill="#014976"/><rect x="294.22" y="142.64" width="11.58" height="11.58" fill="#014976"/><rect x="31.6" y="65.26" width="11.58" height="11.58" fill="#014976"/><rect x="31.6" y="88.17" width="11.58" height="11.58" fill="#014976"/><rect x="31.6" y="112.99" width="11.58" height="11.58" fill="#014976"/><rect x="294.22" y="221.09" width="11.58" height="11.58" fill="#014976"/><rect x="294.22" y="244" width="11.58" height="11.58" fill="#014976"/><rect x="294.22" y="268.82" width="11.58" height="11.58" fill="#014976"/><rect x="31.6" y="241.12" width="11.58" height="11.58" fill="#014976"/><rect x="31.6" y="264.03" width="11.58" height="11.58" fill="#014976"/><rect x="31.6" y="288.85" width="11.58" height="11.58" fill="#014976"/></svg>