<svg id="e3d46e3c-8317-4240-956b-108dc466b5a4" data-name="Layer 1" xmlns="http://www.w3.org/2000/svg" viewBox="0 0 1723.28 629.89"><title>Hello World</title><rect width="1723.28" height="209.96" fill="#f6eeb3"/><rect y="209.96" width="1723.28" height="209.96" fill="#f2e790"/><rect y="419.93" width="1723.28" height="209.96" fill="#dad183"/><rect y="503.27" width="1723.28" height="126.62" fill="#e09641"/><rect x="127" y="95.88" width="107.56" height="107.56" fill="#f7941d"/><rect x="1195.3" y="194.67" width="44.14" height="16.76" fill="#a79d2a"/><rect x="1149.21" y="211.43" width="136.32" height="16.76" fill="#a79d2a"/><rect x="1117.99" y="228.18" width="198.76" height="16.76" fill="#a79d2a"/><rect x="1080.25" y="244.94" width="274.24" height="16.76" fill="#a79d2a"/><rect x="1192.73" y="261.69" width="49.28" height="251.02" fill="#c58979"/><rect x="1497.86" y="261.69" width="21.94" height="13.22" fill="#a79d2a"/><rect x="1474.95" y="274.92" width="67.77" height="13.22" fill="#a79d2a"/><rect x="1459.43" y="288.14" width="98.81" height="13.22" fill="#a79d2a"/><rect x="1440.67" y="301.37" width="136.32" height="13.22" fill="#a79d2a"/><rect x="1496.58" y="314.59" width="24.5" height="198.12" fill="#c58979"/><rect x="956.4" y="261.94" width="21.94" height="13.22" fill="#a79d2a"/><rect x="933.49" y="275.16" width="67.77" height="13.22" fill="#a79d2a"/><rect x="917.97" y="288.39" width="98.81" height="13.22" fill="#a79d2a"/><rect x="899.21" y="301.61" width="136.32" height="13.22" fill="#a79d2a"/><rect x="955.13" y="314.84" width="24.5" height="198.12" fill="#c58979"/><rect x="408.97" y="343.09" width="175.84" height="132.36" fill="#f69322"/><rect x="526.51" y="457.42" width="23.19" height="66.02" fill="#f69322"/><rect x="485.61" y="457.42" width="23.19" height="66.02" fill="#f69322"/><rect x="443.75" y="457.42" width="23.19" height="66.02" fill="#f69322"/><rect x="408.97" y="459.35" width="23.19" height="66.02" fill="#f69322"/><rect x="374.51" y="343.09" width="34.46" height="20.61" fill="#f69322"/><rect x="365.81" y="343.09" width="17.07" height="115.29" fill="#f69322"/><rect x="299.15" y="441.31" width="84.06" height="17.07" fill="#f69322"/><rect x="558.72" y="307.34" width="185.5" height="203.86" fill="#f15b28"/><rect x="573.86" y="343.41" width="157.48" height="125.92" fill="#f69322"/><rect x="643.74" y="419.41" width="34.46" height="14.17" fill="#e9262a"/><rect x="697.2" y="329.56" width="34.46" height="14.17" fill="#f69322"/><rect x="573.86" y="329.56" width="34.46" height="14.17" fill="#f69322"/><rect x="694.3" y="453.23" width="6.44" height="7.09" fill="#e9262a"/><rect x="622.81" y="442.92" width="6.44" height="7.09" fill="#e9262a"/><rect x="622.81" y="453.23" width="6.44" height="7.09" fill="#e9262a"/><rect x="694.3" y="442.92" width="6.44" height="7.09" fill="#e9262a"/></svg>