<svg id="0e0e9449-a93d-4378-9b0e-de84e78e6d14" data-name="Layer 1" xmlns="http://www.w3.org/2000/svg" viewBox="0 0 308.82 139.7"><title>Hello World</title><rect x="78.58" y="9.65" width="125.46" height="94.44" fill="#f69322"/><rect x="162.22" y="90.99" width="16.54" height="47.1" fill="#f69322"/><rect x="133.04" y="90.99" width="16.54" height="47.1" fill="#f69322"/><rect x="103.4" y="90.99" width="16.54" height="47.1" fill="#f69322"/><rect x="78.58" y="92.6" width="16.54" height="47.1" fill="#f69322"/><rect x="54" y="9.65" width="24.59" height="14.71" fill="#f69322"/><rect x="47.79" y="9.65" width="12.18" height="82.26" fill="#f69322"/><rect y="79.73" width="59.97" height="12.18" fill="#f69322"/><rect x="196.23" y="9.88" width="112.36" height="89.84" fill="#f69322"/><rect x="246.09" y="64.11" width="24.59" height="10.11" fill="#e9262a"/><rect x="284.23" width="24.59" height="10.11" fill="#f69322"/><rect x="196.23" width="24.59" height="10.11" fill="#f69322"/><rect x="281.94" y="88.23" width="4.6" height="5.06" fill="#e9262a"/><rect x="231.15" y="80.88" width="4.6" height="5.06" fill="#e9262a"/><rect x="231.15" y="88.23" width="4.6" height="5.06" fill="#e9262a"/><rect x="281.94" y="80.88" width="4.6" height="5.06" fill="#e9262a"/><rect x="87.77" y="10.34" width="13.1" height="62.96" fill="#402414"/><rect x="114.2" y="10.34" width="13.1" height="62.96" fill="#402414"/><rect x="140.62" y="10.34" width="13.1" height="62.96" fill="#402414"/><rect x="169.8" y="10.34" width="13.1" height="62.96" fill="#402414"/><rect x="47.33" y="27.11" width="13.1" height="7.58" fill="#402414"/><rect x="47.33" y="41.82" width="13.1" height="7.58" fill="#402414"/><rect x="47.33" y="56.98" width="13.1" height="7.58" fill="#402414"/><rect x="47.33" y="73.3" width="13.1" height="7.58" fill="#402414"/><rect x="32.86" y="79.27" width="7.58" height="13.1" fill="#402414"/><rect x="19.76" y="79.27" width="7.58" height="13.1" fill="#402414"/><rect x="6.66" y="79.27" width="7.58" height="13.1" fill="#402414"/><rect x="81.34" y="107.08" width="13.1" height="7.58" fill="#402414"/><rect x="81.34" y="120.17" width="13.1" height="7.58" fill="#402414"/><rect x="107.76" y="107.08" width="13.1" height="7.58" fill="#402414"/><rect x="107.76" y="120.17" width="13.1" height="7.58" fill="#402414"/><rect x="136.49" y="107.08" width="13.1" height="7.58" fill="#402414"/><rect x="136.49" y="120.17" width="13.1" height="7.58" fill="#402414"/><rect x="165.67" y="107.08" width="13.1" height="7.58" fill="#402414"/><rect x="239.89" y="23.21" width="26.42" height="7.58" fill="#402414"/><rect x="239.89" y="34.47" width="26.42" height="7.58" fill="#402414"/><rect x="248.85" y="10.11" width="7.58" height="36.99" fill="#402414"/><rect x="165.67" y="120.17" width="13.1" height="7.58" fill="#402414"/></svg>