<svg id="1d1c237f-f610-4644-8f72-743e57bacb1d" data-name="Layer 1" xmlns="http://www.w3.org/2000/svg" viewBox="0 0 1723.28 629.89"><title>Hello World</title><rect width="1723.28" height="209.96" fill="#b5a3b6"/><rect y="209.96" width="1723.28" height="209.96" fill="#9d86a0"/><rect y="419.93" width="1723.28" height="209.96" fill="#87738a"/><rect y="503.27" width="1723.28" height="126.62" fill="#c89881"/><rect x="800.04" y="237.83" width="13.9" height="168.43" transform="translate(1078.54 -503.31) rotate(86.46)" fill="#51342d"/><rect x="814.45" y="470.41" width="13.9" height="168.43" transform="translate(1324.19 -299.48) rotate(86.46)" fill="#51342d"/><rect x="681.91" y="433.65" width="201.13" height="13.3" transform="translate(1173.57 -367.9) rotate(86.46)" fill="#51342d"/><rect x="666.2" y="434.62" width="201.13" height="13.3" transform="translate(1159.8 -351.3) rotate(86.46)" fill="#51342d"/><rect x="650.48" y="435.6" width="201.13" height="13.3" transform="translate(1146.03 -334.7) rotate(86.46)" fill="#51342d"/><rect x="634.77" y="436.57" width="201.13" height="13.3" transform="translate(1132.26 -318.11) rotate(86.46)" fill="#51342d"/><rect x="619.06" y="437.54" width="201.13" height="13.3" transform="translate(1118.49 -301.51) rotate(86.46)" fill="#51342d"/><rect x="603.35" y="438.52" width="201.13" height="13.3" transform="translate(1104.72 -284.92) rotate(86.46)" fill="#51342d"/><rect x="587.63" y="439.49" width="201.13" height="13.3" transform="translate(1090.95 -268.32) rotate(86.46)" fill="#51342d"/><rect x="571.92" y="440.46" width="201.13" height="13.3" transform="translate(1077.18 -251.73) rotate(86.46)" fill="#51342d"/><rect x="556.21" y="441.43" width="201.13" height="13.3" transform="translate(1063.41 -235.13) rotate(86.46)" fill="#51342d"/><rect x="593.1" y="442.41" width="95.93" height="13.3" transform="translate(1049.64 -218.54) rotate(86.46)" fill="#51342d"/><rect x="577.38" y="443.38" width="95.93" height="13.3" transform="translate(1035.87 -201.94) rotate(86.46)" fill="#51342d"/><rect x="561.67" y="444.35" width="95.93" height="13.3" transform="translate(1022.1 -185.34) rotate(86.46)" fill="#51342d"/><rect x="558.08" y="445.33" width="71.68" height="13.3" transform="translate(1008.33 -168.75) rotate(86.46)" fill="#51342d"/><rect x="735.97" y="383.58" width="219.12" height="105.64" transform="translate(1228.83 -434.49) rotate(86.46)" fill="#51342d"/><rect x="809.39" y="426.19" width="190.78" height="13.08" transform="translate(1280.75 -497.07) rotate(86.46)" fill="#51342d"/><rect x="820.89" y="376.8" width="58.87" height="122.42" transform="translate(1234.94 -437.77) rotate(86.46)" fill="#61453e"/><rect x="866.92" y="515.12" width="11.72" height="42.06" transform="translate(1353.95 -368.1) rotate(86.46)" fill="#a18d87"/><rect x="832.86" y="532.4" width="11.72" height="11.72" transform="translate(1324.11 -332.13) rotate(86.46)" fill="#a18d87"/><rect x="737.24" y="433.65" width="90.48" height="13.3" transform="translate(1173.57 -367.9) rotate(86.46)" fill="#61453e"/><rect x="721.52" y="434.62" width="90.48" height="13.3" transform="translate(1159.8 -351.3) rotate(86.46)" fill="#61453e"/><rect x="705.81" y="435.6" width="90.48" height="13.3" transform="translate(1146.03 -334.7) rotate(86.46)" fill="#61453e"/><rect x="690.1" y="436.57" width="90.48" height="13.3" transform="translate(1132.26 -318.11) rotate(86.46)" fill="#61453e"/><rect x="674.38" y="437.54" width="90.48" height="13.3" transform="translate(1118.49 -301.51) rotate(86.46)" fill="#61453e"/><rect x="658.67" y="438.52" width="90.48" height="13.3" transform="translate(1104.72 -284.92) rotate(86.46)" fill="#61453e"/><rect x="642.96" y="439.49" width="90.48" height="13.3" transform="translate(1090.95 -268.32) rotate(86.46)" fill="#61453e"/><rect x="627.25" y="440.46" width="90.48" height="13.3" transform="translate(1077.18 -251.73) rotate(86.46)" fill="#61453e"/><rect x="611.53" y="441.43" width="90.48" height="13.3" transform="translate(1063.41 -235.13) rotate(86.46)" fill="#61453e"/><rect x="619.48" y="442.41" width="43.16" height="13.3" transform="translate(1049.64 -218.54) rotate(86.46)" fill="#61453e"/><rect x="603.77" y="443.38" width="43.16" height="13.3" transform="translate(1035.87 -201.94) rotate(86.46)" fill="#61453e"/><rect x="588.06" y="444.35" width="43.16" height="13.3" transform="translate(1022.1 -185.34) rotate(86.46)" fill="#61453e"/><rect x="577.8" y="445.33" width="32.25" height="13.3" transform="translate(1008.33 -168.75) rotate(86.46)" fill="#61453e"/><rect x="830.79" y="359.21" width="13.51" height="13.51" transform="translate(1151.04 -492.6) rotate(86.46)" fill="#61453e"/><rect x="839.08" y="493.11" width="13.51" height="13.51" transform="translate(1292.46 -375.25) rotate(86.46)" fill="#61453e"/><rect x="1438.67" y="443.77" width="15.99" height="62.37" transform="translate(2893.33 949.92) rotate(180)" fill="#6cbe45"/><rect x="1372.89" y="365.42" width="15.99" height="62.37" transform="translate(2761.78 793.21) rotate(180)" fill="#6cbe45"/><rect x="1438.67" y="335.83" width="15.99" height="75.97" transform="translate(2893.33 747.63) rotate(180)" fill="#6cbe45"/><rect x="1390.59" y="395.69" width="15.99" height="112.15" transform="translate(946.81 1850.35) rotate(-90)" fill="#6cbe45"/><rect x="1405.78" y="378.91" width="15.99" height="81.77" transform="translate(993.98 1833.57) rotate(-90)" fill="#6cbe45"/><rect x="1387.24" y="351.07" width="15.99" height="44.68" transform="translate(1021.82 1768.65) rotate(-90)" fill="#6cbe45"/><rect x="1390.59" y="287.75" width="15.99" height="112.15" transform="translate(1054.76 1742.41) rotate(-90)" fill="#6cbe45"/><rect x="1342.51" y="335.83" width="15.99" height="123.94" transform="translate(2701.01 795.6) rotate(180)" fill="#6cbe45"/><rect x="1276.93" y="443.77" width="15.99" height="62.37" transform="translate(2569.85 949.92) rotate(180)" fill="#6cbe45"/><rect x="1211.15" y="365.42" width="15.99" height="62.37" transform="translate(2438.3 793.21) rotate(180)" fill="#6cbe45"/><rect x="1276.93" y="335.83" width="15.99" height="75.97" transform="translate(2569.85 747.63) rotate(180)" fill="#6cbe45"/><rect x="1228.85" y="395.69" width="15.99" height="112.15" transform="translate(785.07 1688.61) rotate(-90)" fill="#6cbe45"/><rect x="1244.04" y="378.91" width="15.99" height="81.77" transform="translate(832.24 1671.83) rotate(-90)" fill="#6cbe45"/><rect x="1225.5" y="351.07" width="15.99" height="44.68" transform="translate(860.08 1606.91) rotate(-90)" fill="#6cbe45"/><rect x="1228.85" y="287.75" width="15.99" height="112.15" transform="translate(893.02 1580.67) rotate(-90)" fill="#6cbe45"/><rect x="1180.77" y="335.83" width="15.99" height="123.94" transform="translate(2377.53 795.6) rotate(180)" fill="#6cbe45"/><rect x="1109" y="443.77" width="15.99" height="62.37" transform="translate(2233.99 949.92) rotate(180)" fill="#6cbe45"/><rect x="1043.22" y="365.42" width="15.99" height="62.37" transform="translate(2102.44 793.21) rotate(180)" fill="#6cbe45"/><rect x="1109" y="335.83" width="15.99" height="75.97" transform="translate(2233.99 747.63) rotate(180)" fill="#6cbe45"/><rect x="1060.92" y="395.69" width="15.99" height="112.15" transform="translate(617.14 1520.68) rotate(-90)" fill="#6cbe45"/><rect x="1076.11" y="378.91" width="15.99" height="81.77" transform="translate(664.31 1503.9) rotate(-90)" fill="#6cbe45"/><rect x="1057.57" y="351.07" width="15.99" height="44.68" transform="translate(692.15 1438.98) rotate(-90)" fill="#6cbe45"/><rect x="1060.92" y="287.75" width="15.99" height="112.15" transform="translate(725.09 1412.74) rotate(-90)" fill="#6cbe45"/><rect x="1012.84" y="335.83" width="15.99" height="123.94" transform="translate(2041.67 795.6) rotate(180)" fill="#6cbe45"/></svg>