<svg id="26be77ad-e49c-4139-a5ae-4f45b00be409" data-name="Layer 1" xmlns="http://www.w3.org/2000/svg" viewBox="0 0 1723.28 629.89"><title>Hello World</title><rect width="1723.28" height="209.96" fill="#88bbcb"/><rect y="209.96" width="1723.28" height="209.96" fill="#65aabc"/><rect y="419.93" width="1723.28" height="209.96" fill="#518b9b"/><rect y="503.27" width="1723.28" height="126.62" fill="#c89881"/><rect x="1234.97" y="104.83" width="8.63" height="8.63" fill="#fff"/><rect x="1167.54" y="123.67" width="8.63" height="8.63" fill="#fff"/><rect x="1369.82" y="142.51" width="8.63" height="8.63" fill="#fff"/><rect x="1032.69" y="161.35" width="8.63" height="8.63" fill="#fff"/><rect x="1504.67" y="180.19" width="8.63" height="8.63" fill="#fff"/><rect x="1437.25" y="199.04" width="8.63" height="8.63" fill="#fff"/><rect x="1572.1" y="217.88" width="8.63" height="8.63" fill="#fff"/><rect x="1302.39" y="236.72" width="8.63" height="8.63" fill="#fff"/><rect x="965.26" y="255.56" width="8.63" height="8.63" fill="#fff"/><rect x="897.83" y="274.4" width="8.63" height="8.63" fill="#fff"/><rect x="1100.11" y="293.24" width="8.63" height="8.63" fill="#fff"/><rect x="762.98" y="312.08" width="8.63" height="8.63" fill="#fff"/><rect x="695.55" y="330.93" width="8.63" height="8.63" fill="#fff"/><rect x="628.12" y="349.77" width="8.63" height="8.63" fill="#fff"/><rect x="830.4" y="368.61" width="8.63" height="8.63" fill="#fff"/><rect x="493.27" y="387.45" width="8.63" height="8.63" fill="#fff"/><rect x="425.84" y="406.29" width="8.63" height="8.63" fill="#fff"/><rect x="358.42" y="425.13" width="8.63" height="8.63" fill="#fff"/><rect x="560.7" y="443.98" width="8.63" height="8.63" fill="#fff"/><rect x="290.99" y="462.82" width="8.63" height="8.63" fill="#fff"/><rect x="156.14" y="481.66" width="8.63" height="8.63" fill="#fff"/><rect x="88.71" y="481.66" width="8.63" height="8.63" fill="#fff"/><rect x="223.56" y="481.66" width="8.63" height="8.63" fill="#fff"/><rect x="21.28" y="481.66" width="8.63" height="8.63" fill="#fff"/><rect x="527.66" y="306.48" width="157.36" height="209.09" transform="translate(190.59 1014.14) rotate(-89.55)" fill="#7a1502"/><rect x="615.08" y="493.61" width="78.26" height="27.54" transform="translate(141.73 1157.61) rotate(-89.55)" fill="#7a1502"/><rect x="566.55" y="493.23" width="78.26" height="27.54" transform="translate(93.95 1108.7) rotate(-89.55)" fill="#7a1502"/><rect x="516.84" y="492.85" width="78.26" height="27.54" transform="translate(45.02 1058.61) rotate(-89.55)" fill="#7a1502"/><rect x="475.67" y="495.04" width="78.26" height="27.54" transform="translate(1.98 1019.63) rotate(-89.55)" fill="#7a1502"/><rect x="474.74" y="349.38" width="24.52" height="40.98" transform="translate(113.34 853.97) rotate(-89.55)" fill="#7a1502"/><rect x="397.3" y="415.64" width="136.87" height="20.49" transform="translate(36.23 888.28) rotate(-89.55)" fill="#7a1502"/><rect x="680.76" y="343.66" width="144.77" height="131.84" transform="translate(337.69 1159.49) rotate(-89.55)" fill="#8b321d"/><rect x="729.24" y="279.49" width="49.07" height="97.58" transform="translate(419.62 1079.47) rotate(-89.55)" fill="#7a1502"/><rect x="686.31" y="414.18" width="23.34" height="9.57" transform="translate(273.57 1113.65) rotate(-89.55)" fill="#8b321d"/><rect x="776.37" y="369.79" width="108.99" height="68.18" transform="translate(420.5 1231.56) rotate(-89.55)" fill="#8b321d"/><rect x="622.34" y="372.62" width="108.99" height="68.18" transform="translate(264.84 1080.34) rotate(-89.55)" fill="#8b321d"/><rect x="709.34" y="485.66" width="89.51" height="34.09" transform="translate(245.51 1252.85) rotate(-89.55)" fill="#8b321d"/><rect x="756.32" y="507.86" width="24.52" height="64.66" transform="translate(222.4 1304.52) rotate(-89.55)" fill="#8b321d"/><rect x="744.61" y="474.49" width="19.15" height="34.09" transform="translate(256.76 1241.86) rotate(-89.55)" fill="#8b321d"/><rect x="744.37" y="505.56" width="19.15" height="34.09" transform="translate(225.45 1272.44) rotate(-89.55)" fill="#8b321d"/><rect x="686.52" y="481.49" width="13.4" height="36.74" transform="matrix(1, 0.01, -0.01, 1, 3.93, -5.4)" fill="#fde3d8"/><rect x="698.1" y="493.25" width="13.4" height="36.74" transform="translate(1221.91 -189.15) rotate(90.45)" fill="#fde3d8"/><rect x="804.93" y="482.42" width="13.4" height="36.74" transform="translate(3.94 -6.33) rotate(0.45)" fill="#fde3d8"/><rect x="816.51" y="494.18" width="13.4" height="36.74" transform="matrix(-0.01, 1, -1, -0.01, 1342.17, -306.63)" fill="#fde3d8"/></svg>