<svg id="3e9a2f26-11df-4138-9269-e2f01dc2b654" data-name="Layer 1" xmlns="http://www.w3.org/2000/svg" viewBox="0 0 325.88 207.49"><title>Hello World</title><rect x="287.47" y="167.65" width="19.76" height="56.98" transform="translate(100.26 492.86) rotate(-89.82)" fill="#8b6439"/><rect x="270.22" y="149.12" width="19.76" height="56.98" fill="#8b6439"/><rect y="141.31" width="56.07" height="47.1" fill="#8b6439"/><rect x="175.32" width="115.58" height="129.82" fill="#a67d53"/><rect x="42.28" y="75.6" width="248.62" height="101.1" fill="#a67d53"/><rect x="245.86" y="41.59" width="8.5" height="8.5" fill="#8b6439"/><rect x="218.29" y="41.59" width="8.5" height="8.5" fill="#8b6439"/><rect x="156.94" y="76.29" width="4.83" height="51.01" fill="#8b6439"/><rect x="135.34" y="76.29" width="6.2" height="58.82" fill="#8b6439"/><rect x="111.9" y="75.6" width="6.2" height="49.86" fill="#8b6439"/><rect x="84.79" y="76.29" width="4.83" height="49.17" fill="#a67d53"/><rect x="16.08" y="150.73" width="49.4" height="54.23" fill="#a67d53"/><rect x="162.22" y="31.48" width="24.82" height="27.11" fill="#a67d53"/><rect x="285.38" y="27.34" width="24.82" height="27.11" fill="#a67d53"/><rect x="138.55" y="186.35" width="64.57" height="19.76" fill="#c3996c"/><rect x="183.82" y="142.92" width="19.76" height="64.57" fill="#c3996c"/></svg>