<svg id="0e89e439-25e4-4212-adfa-dae62e836e4f" data-name="Layer 1" xmlns="http://www.w3.org/2000/svg" viewBox="0 0 361.21 183.82"><title>Hello World</title><rect x="116.5" y="75.83" width="136.95" height="73.76" fill="#90298d"/><rect x="309.05" y="151.19" width="51.93" height="14.71" fill="#90298d"/><rect x="148.66" y="131.89" width="16.31" height="51.93" fill="#90298d"/><rect x="309.28" y="130.28" width="51.93" height="14.71" fill="#90298d"/><rect x="125" y="131.89" width="16.31" height="51.93" fill="#90298d"/><rect x="125.69" y="0.23" width="75.6" height="37.68" fill="#90298d"/><rect x="185.43" y="0.23" width="15.85" height="75.6" fill="#90298d"/><rect x="109.83" y="22.06" width="15.85" height="15.85" fill="#90298d"/><rect x="218.98" width="15.85" height="75.6" fill="#90298d"/><rect x="218.98" y="0.23" width="75.6" height="37.68" fill="#90298d"/><rect x="294.57" y="22.06" width="15.85" height="15.85" fill="#90298d"/><rect x="80.19" y="115.81" width="51.47" height="11.49" fill="#90298d"/><rect y="115.81" width="51.47" height="11.49" fill="#90298d"/><rect x="39.98" y="75.83" width="51.47" height="11.49" fill="#90298d"/><rect x="79.96" y="75.83" width="11.49" height="51.47" fill="#90298d"/><rect x="39.98" y="75.6" width="11.49" height="51.47" fill="#90298d"/><rect x="253.67" y="51.7" width="35.62" height="114.43" fill="#90298d"/><rect x="253.44" y="130.51" width="55.61" height="35.62" fill="#90298d"/><rect x="150.5" y="123.62" width="10.34" height="10.34" fill="#65308f"/><rect x="177.16" y="123.62" width="10.34" height="10.34" fill="#65308f"/><rect x="203.58" y="123.62" width="10.34" height="10.34" fill="#65308f"/><rect x="230.24" y="123.62" width="10.34" height="10.34" fill="#65308f"/><rect x="163.83" y="104.55" width="10.34" height="10.34" fill="#65308f"/><rect x="190.48" y="104.55" width="10.34" height="10.34" fill="#65308f"/><rect x="216.91" y="104.55" width="10.34" height="10.34" fill="#65308f"/><rect x="243.56" y="104.55" width="10.34" height="10.34" fill="#65308f"/><rect x="148.66" y="86.63" width="10.34" height="10.34" fill="#65308f"/><rect x="175.09" y="86.63" width="10.34" height="10.34" fill="#65308f"/><rect x="201.74" y="86.63" width="10.34" height="10.34" fill="#65308f"/><rect x="228.17" y="86.63" width="10.34" height="10.34" fill="#65308f"/></svg>