<svg id="104a6289-f2f8-43a3-9217-1becb1e4962a" data-name="Layer 1" xmlns="http://www.w3.org/2000/svg" viewBox="0 0 332.48 202.43"><title>Hello World</title><rect x="0.23" y="22.52" width="192.78" height="145.45" fill="#ffc749"/><rect x="192.78" y="22.52" width="139.7" height="101.79" fill="#ffc749"/><rect x="192.78" width="30.33" height="22.52" fill="#ffc749"/><rect x="232.3" width="30.33" height="22.52" fill="#ffc749"/><rect x="214.61" y="44.12" width="8.73" height="8.73" fill="#90742c"/><rect x="152.8" y="22.29" width="5.97" height="47.1" fill="#dcae3b"/><rect x="139.24" y="22.29" width="5.97" height="47.1" fill="#dcae3b"/><rect x="124.31" y="22.29" width="5.97" height="47.1" fill="#dcae3b"/><rect x="110.75" y="22.29" width="5.97" height="47.1" fill="#dcae3b"/><rect x="96.74" y="22.29" width="5.97" height="47.1" fill="#dcae3b"/><rect x="83.18" y="22.29" width="5.97" height="47.1" fill="#dcae3b"/><rect x="69.62" y="22.29" width="5.97" height="47.1" fill="#dcae3b"/><rect x="55.61" y="22.29" width="5.97" height="47.1" fill="#dcae3b"/><rect x="170.49" y="151.88" width="22.52" height="50.55" fill="#ffc749"/><rect x="116.04" y="151.88" width="22.52" height="50.55" fill="#ffc749"/><rect x="57.9" y="151.88" width="22.52" height="50.55" fill="#ffc749"/><rect y="151.88" width="22.52" height="50.55" fill="#ffc749"/></svg>