<svg id="e1aa5f57-9b45-43af-bb78-92f31d0938ae" data-name="Layer 1" xmlns="http://www.w3.org/2000/svg" viewBox="0 0 480 360"><title>Hello World</title><rect x="0.61" width="479.24" height="119.74" fill="#b1e3fa"/><rect x="0.61" y="119.74" width="479.24" height="119.74" fill="#97daf8"/><rect x="0.61" y="239.48" width="479.24" height="119.74" fill="#6acff6"/><rect x="0.76" y="324" width="479.24" height="35.21" fill="#8dc63f"/><rect x="38.46" y="263.09" width="2.5" height="65.92" fill="#8dc63f"/><rect x="36.04" y="271.16" width="6.5" height="26.7" fill="#a97c50"/><rect x="60.3" y="276.41" width="2.5" height="65.92" fill="#8dc63f"/><rect x="57.89" y="284.48" width="6.5" height="26.7" fill="#a97c50"/><rect x="81.41" y="267.52" width="2.5" height="65.92" fill="#8dc63f"/><rect x="78.99" y="275.58" width="6.5" height="26.7" fill="#a97c50"/><rect x="100.84" y="273.83" width="2.5" height="65.92" fill="#8dc63f"/><rect x="98.43" y="281.9" width="6.5" height="26.7" fill="#a97c50"/><rect x="12.56" y="330.3" width="3.34" height="11.39" fill="#72af3a"/><rect x="22.27" y="330.3" width="3.34" height="11.39" fill="#72af3a"/><rect x="31.99" y="330.3" width="3.34" height="11.39" fill="#72af3a"/><rect x="41.71" y="330.3" width="3.34" height="11.39" fill="#72af3a"/><rect x="51.42" y="330.3" width="3.34" height="11.39" fill="#72af3a"/><rect x="61.14" y="330.3" width="3.34" height="11.39" fill="#72af3a"/><rect x="70.86" y="330.3" width="3.34" height="11.39" fill="#72af3a"/><rect x="80.57" y="330.3" width="3.34" height="11.39" fill="#72af3a"/><rect x="90.29" y="330.3" width="3.34" height="11.39" fill="#72af3a"/><rect x="100.01" y="330.3" width="3.34" height="11.39" fill="#72af3a"/><rect x="109.72" y="330.3" width="3.34" height="11.39" fill="#72af3a"/><rect x="119.44" y="330.3" width="3.34" height="11.39" fill="#72af3a"/><rect x="129.16" y="330.3" width="3.34" height="11.39" fill="#72af3a"/><rect x="138.87" y="330.3" width="3.34" height="11.39" fill="#72af3a"/><rect x="148.59" y="330.3" width="3.34" height="11.39" fill="#72af3a"/><rect x="158.3" y="330.3" width="3.34" height="11.39" fill="#72af3a"/><rect x="168.02" y="330.3" width="3.34" height="11.39" fill="#72af3a"/><rect x="177.74" y="330.3" width="3.34" height="11.39" fill="#72af3a"/><rect x="187.45" y="330.3" width="3.34" height="11.39" fill="#72af3a"/><rect x="197.17" y="330.3" width="3.34" height="11.39" fill="#72af3a"/><rect x="206.89" y="330.3" width="3.34" height="11.39" fill="#72af3a"/><rect x="216.6" y="330.3" width="3.34" height="11.39" fill="#72af3a"/><rect x="226.32" y="330.3" width="3.34" height="11.39" fill="#72af3a"/><rect x="236.04" y="330.3" width="3.34" height="11.39" fill="#72af3a"/><rect x="245.75" y="330.3" width="3.34" height="11.39" fill="#72af3a"/><rect x="255.47" y="330.3" width="3.34" height="11.39" fill="#72af3a"/><rect x="265.19" y="330.3" width="3.34" height="11.39" fill="#72af3a"/><rect x="274.9" y="330.3" width="3.34" height="11.39" fill="#72af3a"/><rect x="284.62" y="330.3" width="3.34" height="11.39" fill="#72af3a"/><rect x="294.34" y="330.3" width="3.34" height="11.39" fill="#72af3a"/><rect x="304.05" y="330.3" width="3.34" height="11.39" fill="#72af3a"/><rect x="313.77" y="330.3" width="3.34" height="11.39" fill="#72af3a"/><rect x="323.49" y="330.3" width="3.34" height="11.39" fill="#72af3a"/><rect x="333.2" y="330.3" width="3.34" height="11.39" fill="#72af3a"/><rect x="342.92" y="330.3" width="3.34" height="11.39" fill="#72af3a"/><rect x="352.64" y="330.3" width="3.34" height="11.39" fill="#72af3a"/><rect x="362.35" y="330.3" width="3.34" height="11.39" fill="#72af3a"/><rect x="372.07" y="330.3" width="3.34" height="11.39" fill="#72af3a"/><rect x="381.79" y="330.3" width="3.34" height="11.39" fill="#72af3a"/><rect x="391.5" y="330.3" width="3.34" height="11.39" fill="#72af3a"/><rect x="401.22" y="330.3" width="3.34" height="11.39" fill="#72af3a"/><rect x="410.94" y="330.3" width="3.34" height="11.39" fill="#72af3a"/><rect x="420.65" y="330.3" width="3.34" height="11.39" fill="#72af3a"/><rect x="430.37" y="330.3" width="3.34" height="11.39" fill="#72af3a"/><rect x="440.09" y="330.3" width="3.34" height="11.39" fill="#72af3a"/><rect x="449.8" y="330.3" width="3.34" height="11.39" fill="#72af3a"/><rect x="459.52" y="330.3" width="3.34" height="11.39" fill="#72af3a"/><rect x="469.24" y="330.3" width="3.34" height="11.39" fill="#72af3a"/></svg>