<svg id="b0e67581-9c70-413e-9a09-8705b2a69ed8" data-name="Layer 1" xmlns="http://www.w3.org/2000/svg" viewBox="0 0 249.51 309.61"><title>Hello World</title><rect x="2.38" y="101.44" width="37.71" height="64.09" transform="translate(42.47 266.98) rotate(-180)" fill="#d5a28b"/><rect x="2.38" y="201.85" width="37.71" height="64.09" transform="translate(42.47 467.8) rotate(-180)" fill="#d5a28b"/><rect x="114.46" y="272.75" width="9.51" height="27.87" transform="translate(238.42 573.36) rotate(-180)" fill="#8b5e3c"/><rect x="114.46" y="300.62" width="23.4" height="6.07" transform="translate(252.32 607.3) rotate(-180)" fill="#8b5e3c"/><rect x="69.84" y="275.67" width="9.51" height="27.87" transform="translate(149.2 579.21) rotate(-180)" fill="#8b5e3c"/><rect x="69.84" y="303.54" width="23.4" height="6.07" transform="translate(163.09 613.15) rotate(-180)" fill="#8b5e3c"/><rect x="25.8" y="151.44" width="14.6" height="42.8" transform="translate(205.94 139.74) rotate(90)" fill="#8b5e3c"/><rect x="-32.31" y="136.13" width="78.7" height="9.32" transform="translate(147.83 133.75) rotate(90)" fill="#8b5e3c"/><rect x="23.42" y="173.34" width="14.6" height="42.8" transform="translate(-164.03 225.46) rotate(-90)" fill="#8b5e3c"/><rect x="-34.69" y="222.13" width="78.7" height="9.32" transform="translate(-222.13 231.45) rotate(-90)" fill="#8b5e3c"/><rect x="194.58" y="113.65" width="54.93" height="23.78" transform="translate(444.08 251.08) rotate(-180)" fill="#603913"/><rect x="110.48" y="58.02" width="119.3" height="119.3" transform="translate(340.25 235.34) rotate(-180)" fill="#8b5e3c"/><rect x="47.46" y="165.41" width="97.72" height="110.53" transform="translate(192.63 441.36) rotate(-180)" fill="#8b5e3c"/><rect x="163.13" y="98.56" width="19.11" height="19.11" transform="translate(345.37 216.24) rotate(-180)" fill="#d70073"/><rect x="127.83" width="35.31" height="85.09" transform="translate(290.96 85.09) rotate(-180)" fill="#8b5e3c"/><rect x="172.69" width="35.31" height="85.09" transform="translate(380.68 85.09) rotate(-180)" fill="#8b5e3c"/><rect x="194.58" y="28.9" width="8.1" height="23.55" transform="translate(397.26 81.35) rotate(-180)" fill="#da1c5c"/><rect x="148.11" y="28.9" width="8.1" height="23.55" transform="translate(304.31 81.35) rotate(-180)" fill="#da1c5c"/><rect x="2.38" y="128.55" width="25.13" height="9.32" fill="#8b5e3c"/><rect x="2.38" y="101.44" width="37.71" height="9.32" fill="#8b5e3c"/><rect x="2.38" y="256.82" width="37.71" height="9.32" fill="#8b5e3c"/><rect x="2.38" y="226.79" width="25.13" height="9.32" fill="#8b5e3c"/></svg>