<svg id="946d6f01-522e-4a43-a83d-73b58e6be03e" data-name="Layer 1" xmlns="http://www.w3.org/2000/svg" viewBox="0 0 463.13 215.72"><title>Hello World</title><rect x="210.17" y="98.97" width="26.47" height="86.84" fill="#e0cfcb"/><rect x="228.19" y="185.81" width="8.45" height="13.85" fill="#fbf5e6"/><rect x="215.06" y="185.81" width="8.45" height="13.85" fill="#fbf5e6"/><rect x="150.54" y="98.97" width="26.47" height="86.84" fill="#e0cfcb"/><rect x="168.56" y="185.81" width="8.45" height="13.85" fill="#fbf5e6"/><rect x="155.43" y="185.81" width="8.45" height="13.85" fill="#fbf5e6"/><rect x="180.35" y="98.97" width="26.47" height="86.84" fill="#e0cfcb"/><rect x="198.37" y="185.81" width="8.45" height="13.85" fill="#fbf5e6"/><rect x="185.25" y="185.81" width="8.45" height="13.85" fill="#fbf5e6"/><rect x="120.72" y="98.97" width="26.47" height="86.84" fill="#e0cfcb"/><rect x="138.74" y="185.81" width="8.45" height="13.85" fill="#fbf5e6"/><rect x="125.62" y="185.81" width="8.45" height="13.85" fill="#fbf5e6"/><rect x="90.02" y="98.97" width="26.47" height="86.84" fill="#e0cfcb"/><rect x="108.03" y="185.81" width="8.45" height="13.85" fill="#fbf5e6"/><rect x="94.91" y="185.81" width="8.45" height="13.85" fill="#fbf5e6"/><rect x="30.38" y="98.97" width="26.47" height="86.84" fill="#e0cfcb"/><rect x="48.4" y="185.81" width="8.45" height="13.85" fill="#fbf5e6"/><rect x="35.28" y="185.81" width="8.45" height="13.85" fill="#fbf5e6"/><rect x="60.2" y="98.97" width="26.47" height="86.84" fill="#e0cfcb"/><rect x="78.22" y="185.81" width="8.45" height="13.85" fill="#fbf5e6"/><rect x="65.09" y="185.81" width="8.45" height="13.85" fill="#fbf5e6"/><rect x="0.57" y="98.97" width="26.47" height="86.84" fill="#e0cfcb"/><rect x="18.59" y="185.81" width="8.45" height="13.85" fill="#fbf5e6"/><rect x="5.46" y="185.81" width="8.45" height="13.85" fill="#fbf5e6"/><rect x="167.61" width="56.02" height="134.7" fill="#efe6e3"/><rect x="112.03" width="56.02" height="134.7" fill="#e0cfcb"/><rect x="56.02" width="56.02" height="134.7" fill="#efe6e3"/><rect width="56.02" height="134.7" fill="#e0cfcb"/><rect x="223.63" width="56.02" height="134.7" fill="#e0cfcb"/><rect x="247.4" width="215.72" height="215.72" fill="#e0cfcb"/><rect x="276.29" y="29.23" width="156.58" height="156.58" fill="#d2bab7"/><rect x="330.06" y="81.63" width="52.46" height="52.46" fill="#e0cfcb"/><rect x="336.47" y="88.04" width="39.64" height="39.64" fill="#b99590"/><rect x="344.84" y="96.41" width="22.91" height="22.91" fill="#6f4a49"/></svg>