<svg id="36119f61-8fae-4da4-964d-1ce88a7bba3e" data-name="Layer 1" xmlns="http://www.w3.org/2000/svg" viewBox="0 0 311.12 121.55"><title>Hello World</title><rect y="60.43" width="59.05" height="24.13" fill="#9dba3c"/><rect x="158.55" y="72.38" width="22.06" height="49.17" fill="#9dba3c"/><rect x="128.21" y="72.38" width="22.06" height="49.17" fill="#9dba3c"/><rect x="99.49" y="72.38" width="22.06" height="49.17" fill="#9dba3c"/><rect x="71.69" y="72.38" width="22.06" height="49.17" fill="#9dba3c"/><rect x="49.4" width="137.41" height="84.1" fill="#025a50"/><rect x="227.71" y="26.88" width="6.66" height="37.91" fill="#999dc7"/><rect x="213.69" y="26.88" width="6.66" height="37.91" fill="#999dc7"/><rect x="203.35" y="26.88" width="6.66" height="37.91" fill="#999dc7"/><rect x="189.57" y="26.88" width="6.66" height="37.91" fill="#999dc7"/><rect x="186.81" y="21.83" width="124.31" height="62.27" fill="#9dba3c"/><rect x="128.21" y="13.33" width="34.24" height="14.02" fill="#9dba3c"/><rect x="284.69" y="59.51" width="10.8" height="14.02" fill="#466931"/><rect x="258.5" y="59.51" width="10.8" height="14.02" fill="#466931"/><rect x="77.89" y="13.33" width="34.24" height="14.02" fill="#9dba3c"/><rect x="128.21" y="48.94" width="34.24" height="14.02" fill="#9dba3c"/><rect x="77.89" y="48.94" width="34.24" height="14.02" fill="#9dba3c"/></svg>